<?xml version="1.0" encoding="UTF-8"?>
<svg version="1.1" xmlns="http://www.w3.org/2000/svg" width="8788" height="2095">
<path d="M0 0 C77.55 0 155.1 0 235 0 C235 155.1 235 310.2 235 470 C511.21 470 787.42 470 1072 470 C1072 314.9 1072 159.8 1072 0 C1149.55 0 1227.1 0 1307 0 C1307 376.53 1307 753.06 1307 1141 C1229.45 1141 1151.9 1141 1072 1141 C1072 984.58 1072 828.16 1072 667 C795.79 667 519.58 667 235 667 C235 823.42 235 979.84 235 1141 C157.45 1141 79.9 1141 0 1141 C0 764.47 0 387.94 0 0 Z " fill="#0F172A" transform="translate(7420,938)"/>
<path d="M0 0 C77.55 0 155.1 0 235 0 C235 155.43 235 310.86 235 471 C511.21 471 787.42 471 1072 471 C1072 315.57 1072 160.14 1072 0 C1149.55 0 1227.1 0 1307 0 C1307 376.86 1307 753.72 1307 1142 C1229.45 1142 1151.9 1142 1072 1142 C1072 985.25 1072 828.5 1072 667 C795.79 667 519.58 667 235 667 C235 823.75 235 980.5 235 1142 C157.45 1142 79.9 1142 0 1142 C0 765.14 0 388.28 0 0 Z " fill="#0F172A" transform="translate(0,937)"/>
<path d="M0 0 C1.16137463 0.00056958 1.16137463 0.00056958 2.34621137 0.00115067 C3.23646829 -0.00084038 4.12672521 -0.00283143 5.04395962 -0.00488281 C6.03323859 -0.00196997 7.02251757 0.00094287 8.04177469 0.00394398 C9.08393497 0.00308955 10.12609524 0.00223513 11.19983613 0.00135481 C14.72072865 -0.0003031 18.24157437 0.00522646 21.76246256 0.01067311 C24.27489337 0.01095494 26.78732427 0.01079733 29.29975504 0.0102306 C34.72365098 0.01000228 40.14753163 0.01285375 45.57142442 0.01846844 C53.41354703 0.02658116 61.25566382 0.02919842 69.09779017 0.03045643 C81.81983921 0.03264731 94.54188184 0.03930837 107.2639274 0.04875904 C119.6252552 0.05793223 131.98658126 0.06501352 144.34791178 0.06926686 C145.4900435 0.06966094 145.4900435 0.06966094 146.65524859 0.07006299 C150.47491611 0.07136799 154.29458365 0.0726317 158.1142512 0.07387489 C189.8230835 0.08424862 221.53190778 0.10194203 253.24073404 0.1241985 C254.49933509 2.63735436 255.75748709 5.15073341 257.01539224 7.66423756 C257.36674486 8.36569905 257.71809747 9.06716053 258.08009714 9.78987843 C261.58348145 16.79184945 265.01921115 23.82586234 268.42823404 30.8741985 C268.90704019 31.86299 268.90704019 31.86299 269.3955192 32.87175709 C274.48302026 43.38559131 279.43654456 53.9548556 284.32545084 64.56267506 C288.3637908 73.30000649 292.52846964 81.96994885 296.74073404 90.6241985 C302.05867755 101.55010588 307.2406639 112.52921871 312.32667154 123.56560475 C316.36484425 132.30184669 320.52893217 140.97089913 324.74073404 149.6241985 C330.05867755 160.55010588 335.2406639 171.52921871 340.32667154 182.56560475 C344.36484425 191.30184669 348.52893217 199.97089913 352.74073404 208.6241985 C358.05867755 219.55010588 363.2406639 230.52921871 368.32667154 241.56560475 C372.36484425 250.30184669 376.52893217 258.97089913 380.74073404 267.6241985 C386.05867755 278.55010588 391.2406639 289.52921871 396.32667154 300.56560475 C400.36484425 309.30184669 404.52893217 317.97089913 408.74073404 326.6241985 C414.05867755 337.55010588 419.2406639 348.52921871 424.32667154 359.56560475 C428.36484425 368.30184669 432.52893217 376.97089913 436.74073404 385.6241985 C442.05867755 396.55010588 447.2406639 407.52921871 452.32667154 418.56560475 C456.36484466 427.30184758 460.52895783 435.97088599 464.74073404 444.6241985 C470.08173054 455.5977756 475.28721009 466.62252891 480.39698404 477.70622975 C484.25596622 486.05635011 488.2221541 494.35021215 492.24073404 502.6241985 C496.81391679 512.0400748 501.29556225 521.49266777 505.67823404 530.9991985 C510.56271234 541.59218688 515.59371063 552.10392398 520.6984672 562.5919109 C525.69472094 572.86254622 530.5462615 583.19235044 535.32667154 593.56560475 C539.36484425 602.30184669 543.52893217 610.97089913 547.74073404 619.6241985 C553.05867755 630.55010588 558.2406639 641.52921871 563.32667154 652.56560475 C567.36484425 661.30184669 571.52893217 669.97089913 575.74073404 678.6241985 C581.05867755 689.55010588 586.2406639 700.52921871 591.32667154 711.56560475 C595.36484425 720.30184669 599.52893217 728.97089913 603.74073404 737.6241985 C609.05867755 748.55010588 614.2406639 759.52921871 619.32667154 770.56560475 C623.36484425 779.30184669 627.52893217 787.97089913 631.74073404 796.6241985 C637.05867755 807.55010588 642.2406639 818.52921871 647.32667154 829.56560475 C651.36484425 838.30184669 655.52893217 846.97089913 659.74073404 855.6241985 C665.05867755 866.55010588 670.2406639 877.52921871 675.32667154 888.56560475 C679.36484425 897.30184669 683.52893217 905.97089913 687.74073404 914.6241985 C693.05867755 925.55010588 698.2406639 936.52921871 703.32667154 947.56560475 C707.36484425 956.30184669 711.52893217 964.97089913 715.74073404 973.6241985 C721.05867755 984.55010588 726.2406639 995.52921871 731.32667154 1006.56560475 C735.36484425 1015.30184669 739.52893217 1023.97089913 743.74073404 1032.6241985 C749.05867755 1043.55010588 754.2406639 1054.52921871 759.32667154 1065.56560475 C763.36485678 1074.3018738 767.52973974 1082.97048739 771.74073404 1091.6241985 C776.46197216 1101.33275233 781.13667109 1111.06045953 785.69581217 1120.84636647 C786.5304531 1122.6378025 787.36797542 1124.4278952 788.20557779 1126.2179485 C788.70831217 1127.30205006 789.21104654 1128.38615162 789.72901529 1129.50310475 C790.16769937 1130.44742359 790.60638345 1131.39174244 791.05836099 1132.36467701 C792.28185298 1135.22016532 793.25835193 1138.17705217 794.24073404 1141.1241985 C709.43073404 1141.1241985 624.62073404 1141.1241985 537.24073404 1141.1241985 C527.7873172 1120.54911478 518.34183848 1099.97589158 508.98292154 1079.3585735 C505.1042195 1070.81547138 501.20559019 1062.28151689 497.30323404 1053.7491985 C496.97170328 1053.02426197 496.64017252 1052.29932545 496.29859537 1051.55242115 C493.94649165 1046.40944383 491.5937002 1041.26678129 489.24073404 1036.1241985 C486.55275403 1030.24941798 483.8650848 1024.37449557 481.17823404 1018.4991985 C480.84671335 1017.77428211 480.51519266 1017.04936573 480.17362589 1016.30248219 C475.03696046 1005.06886921 469.91990502 993.82645115 464.81220621 982.57964283 C460.32203007 972.69341145 455.81945667 962.81293416 451.30399698 952.93822438 C450.31028489 950.76462121 449.3173133 948.59068103 448.32447428 946.41667897 C445.1795396 939.53293878 442.02644106 932.65317629 438.851345 925.78328663 C437.35837722 922.55171854 435.86931692 919.31835719 434.3805961 916.08483082 C433.66846806 914.5409958 432.95440988 912.99804947 432.23832315 911.45604664 C431.24601751 909.31897561 430.26029397 907.17898085 429.27589029 905.038261 C428.98190347 904.40968189 428.68791666 903.78110279 428.38502115 903.13347584 C426.81429599 899.6987483 425.99591213 896.90008895 425.24073404 893.1241985 C130.22073404 893.6191985 130.22073404 893.6191985 -170.75926596 894.1241985 C-176.03926596 906.0041985 -181.31926596 917.8841985 -186.75926596 930.1241985 C-193.25926596 944.1241985 -193.25926596 944.1241985 -196.43504721 950.91716725 C-200.20849708 959.044859 -203.82637743 967.23996441 -207.44676596 975.4366985 C-213.15948452 988.3688115 -219.00060828 1001.23525826 -224.94676596 1014.0616985 C-230.69014152 1026.45135887 -236.36735397 1038.86394026 -241.92796713 1051.33684498 C-246.48140444 1061.53908494 -251.1259241 1071.69824822 -255.78151327 1081.85417897 C-261.02733434 1093.30063704 -266.21489102 1104.77152848 -271.33543783 1116.27458912 C-275.05102918 1124.60606905 -278.89967062 1132.85363705 -282.75926596 1141.1241985 C-366.90926596 1141.1241985 -451.05926596 1141.1241985 -537.75926596 1141.1241985 C-535.29818151 1134.97148738 -532.84969528 1128.9824732 -529.99364096 1123.0304485 C-529.46832281 1121.92567158 -529.46832281 1121.92567158 -528.93239218 1120.79857594 C-528.18312873 1119.22365951 -527.43249796 1117.64939295 -526.68059164 1116.07573658 C-525.07029384 1112.70544729 -523.46683705 1109.33191722 -521.86287314 1105.95861012 C-521.03657997 1104.22101848 -520.20993844 1102.48359245 -519.3829537 1100.74632984 C-515.44246915 1092.46699537 -511.53413285 1084.17272556 -507.63426596 1075.8741985 C-506.97860455 1074.47949559 -506.32292419 1073.08480159 -505.66722494 1071.69011647 C-504.6851813 1069.60123817 -503.70317745 1067.51234124 -502.72134787 1065.42336231 C-500.3712364 1060.42372395 -498.01716944 1055.42595942 -495.66160971 1050.428886 C-489.53383293 1037.42679386 -483.4200262 1024.41935138 -477.38426596 1011.3741985 C-471.878459 999.4766722 -466.27324133 987.62780319 -460.65193564 975.78453785 C-455.63134363 965.20573797 -450.63767654 954.61545025 -445.69676596 943.9991985 C-440.62732515 933.10765523 -435.51841411 922.235392 -430.38426596 911.3741985 C-429.66445711 909.85124971 -428.94464916 908.32830049 -428.22484213 906.80535084 C-427.14401872 904.51864779 -426.06318571 902.23194928 -424.98230368 899.94527394 C-421.15197027 891.84106918 -417.32780091 883.73396905 -413.50926596 875.6241985 C-413.17572104 874.91585865 -412.84217612 874.20751881 -412.49852377 873.47771412 C-408.09565904 864.1243008 -403.72567179 854.75633366 -399.38426596 845.3741985 C-393.87840576 833.47669635 -388.27324165 821.62780387 -382.65193564 809.78453785 C-377.06238013 798.00688512 -371.51770415 786.20985532 -366.0173226 774.39031178 C-361.46709618 764.61795067 -356.86836938 754.86891028 -352.25926596 745.1241985 C-347.06305517 734.13780825 -341.88865364 723.14194981 -336.75926596 712.1241985 C-331.66870895 701.191158 -326.53808472 690.27755906 -321.38426596 679.3741985 C-320.84992941 678.2436504 -320.84992941 678.2436504 -320.30479819 677.09026295 C-318.86401619 674.0418973 -317.42318678 670.99355407 -315.98228842 667.94524342 C-312.15196229 659.84104779 -308.32779607 651.73395876 -304.50926596 643.6241985 C-304.17572104 642.91585865 -303.84217612 642.20751881 -303.49852377 641.47771412 C-299.09565904 632.1243008 -294.72567179 622.75633366 -290.38426596 613.3741985 C-284.87840576 601.47669635 -279.27324165 589.62780387 -273.65193564 577.78453785 C-268.63134363 567.20573797 -263.63767654 556.61545025 -258.69676596 545.9991985 C-253.62732515 535.10765523 -248.51841411 524.235392 -243.38426596 513.3741985 C-242.66445711 511.85124971 -241.94464916 510.32830049 -241.22484213 508.80535084 C-240.14401872 506.51864779 -239.06318571 504.23194928 -237.98230368 501.94527394 C-234.15197027 493.84106918 -230.32780091 485.73396905 -226.50926596 477.6241985 C-226.17572104 476.91585865 -225.84217612 476.20751881 -225.49852377 475.47771412 C-221.09565904 466.1243008 -216.72567179 456.75633366 -212.38426596 447.3741985 C-206.87840576 435.47669635 -201.27324165 423.62780387 -195.65193564 411.78453785 C-190.63134363 401.20573797 -185.63767654 390.61545025 -180.69676596 379.9991985 C-175.62732515 369.10765523 -170.51841411 358.235392 -165.38426596 347.3741985 C-164.66445711 345.85124971 -163.94464916 344.32830049 -163.22484213 342.80535084 C-162.14401872 340.51864779 -161.06318571 338.23194928 -159.98230368 335.94527394 C-156.15197027 327.84106918 -152.32780091 319.73396905 -148.50926596 311.6241985 C-148.17572104 310.91585865 -147.84217612 310.20751881 -147.49852377 309.47771412 C-143.09565904 300.1243008 -138.72567179 290.75633366 -134.38426596 281.3741985 C-128.87840576 269.47669635 -123.27324165 257.62780387 -117.65193564 245.78453785 C-112.06238013 234.00688512 -106.51770415 222.20985532 -101.0173226 210.39031178 C-96.46709618 200.61795067 -91.86836938 190.86891028 -87.25926596 181.1241985 C-82.06305517 170.13780825 -76.88865364 159.14194981 -71.75926596 148.1241985 C-66.66870895 137.191158 -61.53808472 126.27755906 -56.38426596 115.3741985 C-56.02804159 114.62049977 -55.67181723 113.86680104 -55.30479819 113.09026295 C-53.86401619 110.0418973 -52.42318678 106.99355407 -50.98228842 103.94524342 C-42.35679645 85.69544643 -33.74441932 67.43974459 -25.25926596 49.1241985 C-20.56461401 38.99335974 -15.84706991 28.87349869 -11.10228354 18.7660442 C-10.37675103 17.21985129 -9.65197209 15.67330454 -8.92796713 14.12639576 C-7.9207378 11.97491657 -6.91071169 9.82477346 -5.89989096 7.67497975 C-5.59637717 7.02539799 -5.29286337 6.37581623 -4.98015219 5.70655018 C-2.36850935 0.16720911 -2.36850935 0.16720911 0 0 Z M125.24073404 238.1241985 C124.93071451 238.81940602 124.62069498 239.51461354 124.30128092 240.23088795 C117.68307357 255.06044098 111.00663595 269.86141735 104.24073404 284.6241985 C99.42818487 295.12674421 94.64275786 305.63968887 89.92823404 316.1866985 C84.62325068 328.05374651 79.28528891 339.90556438 73.92823404 351.7491985 C73.52315622 352.64481495 73.1180784 353.54043141 72.7007255 354.46318775 C66.7884774 367.53108336 60.83843629 380.58127977 54.86500162 393.62129933 C49.98494507 404.27715885 45.16050142 414.95645266 40.37720865 425.65618092 C35.58733423 436.36583018 30.76319591 447.05983265 25.92823404 457.7491985 C25.32061731 459.09262318 25.32061731 459.09262318 24.7007255 460.46318775 C18.7884774 473.53108336 12.83843629 486.58127977 6.86500162 499.62129933 C1.98494507 510.27715885 -2.83949858 520.95645266 -7.62279135 531.65618092 C-12.41266577 542.36583018 -17.23680409 553.05983265 -22.07176596 563.7491985 C-22.47684378 564.64481495 -22.8819216 565.54043141 -23.2992745 566.46318775 C-29.2115226 579.53108336 -35.16156371 592.58127977 -41.13499838 605.62129933 C-46.00482096 616.25481244 -50.82568789 626.90886408 -55.58983237 637.59026295 C-58.9451439 645.10522732 -62.33927338 652.60149477 -65.75535971 660.08904225 C-67.07083724 662.97758498 -68.38595544 665.86629108 -69.7010079 668.75502735 C-70.56811824 670.65670717 -71.43709515 672.55753707 -72.30800253 674.45748097 C-73.53083712 677.12551846 -74.74720219 679.79642184 -75.96239096 682.4679485 C-76.3315412 683.26873326 -76.70069144 684.06951802 -77.08102804 684.89456898 C-77.41989538 685.64259281 -77.75876272 686.39061665 -78.10789877 687.16130787 C-78.40400046 687.80886036 -78.70010214 688.45641285 -79.0051766 689.12358814 C-79.9891253 691.57000422 -79.9891253 691.57000422 -80.75926596 696.1241985 C56.19073404 696.1241985 193.14073404 696.1241985 334.24073404 696.1241985 C332.18464495 689.95593122 330.07368322 684.26370714 327.31885904 678.4366985 C326.94225641 677.62935261 326.56565378 676.82200672 326.17763895 675.99019581 C325.37146625 674.26307308 324.56314817 672.53695037 323.75284952 670.81175953 C321.59163773 666.20965402 319.44677704 661.59992502 317.29932779 656.991386 C316.86682214 656.06437886 316.4343165 655.13737171 315.98870462 654.18227345 C312.12484045 645.89465345 308.32537278 637.57889078 304.55323404 629.2491985 C303.34113348 626.57465631 302.12880849 623.90021587 300.91651529 621.225761 C300.61736215 620.56557972 300.31820902 619.90539845 300.00999063 619.22521168 C296.4394128 611.34944696 292.83929285 603.48720609 289.24073404 595.6241985 C284.05819447 584.29803992 278.89069978 572.96520487 273.74073404 561.6241985 C268.60971599 550.32573622 263.46406419 539.03407579 258.30323404 527.7491985 C257.97179392 527.02444325 257.64035379 526.299688 257.29887003 525.55297047 C254.94667618 520.4098094 252.59378532 515.26696733 250.24073404 510.1241985 C247.55275403 504.24941798 244.8650848 498.37449557 242.17823404 492.4991985 C241.680953 491.41182392 241.680953 491.41182392 241.17362589 490.30248219 C236.0372728 479.06955228 230.92018019 467.8279734 225.81321329 456.58165699 C220.97215744 445.92162496 216.11186187 435.27052042 211.24073404 424.6241985 C206.05849082 413.29790374 200.89070021 401.96520583 195.74073404 390.6241985 C190.60971599 379.32573622 185.46406419 368.03407579 180.30323404 356.7491985 C179.97179392 356.02444325 179.64035379 355.299688 179.29887003 354.55297047 C176.94667618 349.4098094 174.59378532 344.26696733 172.24073404 339.1241985 C162.83362634 318.56426394 153.44429072 297.99650225 144.09556192 277.40994984 C140.67311844 269.87355522 137.24769239 262.33851681 133.82230753 254.80345875 C132.21299058 251.26327955 130.60381859 247.72303447 128.99464029 244.18279225 C128.46169351 243.01030934 127.92874674 241.83782643 127.37965006 240.62981373 C127.00380777 239.8029607 126.62796549 238.97610768 126.24073404 238.1241985 C125.91073404 238.1241985 125.58073404 238.1241985 125.24073404 238.1241985 Z " fill="#0F172A" transform="translate(6373.759265959263,937.8758015036583)"/>
<path d="M0 0 C84.48 0 168.96 0 256 0 C284.5 60 284.5 60 289.24609375 69.9921875 C292.02631738 75.8454571 294.80697151 81.69852187 297.58816528 87.55133057 C306.10801757 105.48075074 314.62045646 123.41362523 323.11502075 141.3550415 C328.90063996 153.57448957 334.69715888 165.78872161 340.5 178 C346.675632 190.99576534 352.84285721 203.99546463 359 217 C365.13738491 229.962353 371.28303951 242.92074532 377.4375 255.875 C377.83081512 256.70288025 378.22413025 257.5307605 378.62936401 258.38372803 C381.41927765 264.25596047 384.20959253 270.12800221 387 276 C390.18777655 282.70820196 393.3753738 289.41648903 396.5625 296.125 C397.15259354 297.36706207 397.15259354 297.36706207 397.75460815 298.63421631 C403.88439464 311.5374255 410.00283977 324.44597572 416.11602783 337.35705566 C421.88165937 349.53360064 427.65608062 361.70594323 433.4375 373.875 C433.83081512 374.70288025 434.22413025 375.5307605 434.62936401 376.38372803 C437.41927765 382.25596047 440.20959253 388.12800221 443 394 C446.18777655 400.70820196 449.3753738 407.41648903 452.5625 414.125 C453.15259354 415.36706207 453.15259354 415.36706207 453.75460815 416.63421631 C459.8840725 429.53674739 466.00239306 442.4445267 472.11502075 455.3550415 C477.90063996 467.57448957 483.69715888 479.78872161 489.5 492 C495.675632 504.99576534 501.84285721 517.99546463 508 531 C514.13738491 543.962353 520.28303951 556.92074532 526.4375 569.875 C527.02747269 571.11682037 527.02747269 571.11682037 527.62936401 572.38372803 C530.41927765 578.25596047 533.20959253 584.12800221 536 590 C539.18777655 596.70820196 542.3753738 603.41648903 545.5625 610.125 C545.95589569 610.95304138 546.34929138 611.78108276 546.75460815 612.63421631 C552.8840725 625.53674739 559.00239306 638.4445267 565.11502075 651.3550415 C570.90063996 663.57448957 576.69715888 675.78872161 582.5 688 C588.675632 700.99576534 594.84285721 713.99546463 601 727 C607.13738491 739.962353 613.28303951 752.92074532 619.4375 765.875 C620.02747269 767.11682037 620.02747269 767.11682037 620.62936401 768.38372803 C623.41927765 774.25596047 626.20959253 780.12800221 629 786 C632.18777655 792.70820196 635.3753738 799.41648903 638.5625 806.125 C638.95589569 806.95304138 639.34929138 807.78108276 639.75460815 808.63421631 C645.8840725 821.53674739 652.00239306 834.4445267 658.11502075 847.3550415 C663.90063996 859.57448957 669.69715888 871.78872161 675.5 884 C681.675632 896.99576534 687.84285721 909.99546463 694 923 C700.13738491 935.962353 706.28303951 948.92074532 712.4375 961.875 C713.02747269 963.11682037 713.02747269 963.11682037 713.62936401 964.38372803 C716.41927765 970.25596047 719.20959253 976.12800221 722 982 C725.18777655 988.70820196 728.3753738 995.41648903 731.5625 1002.125 C731.95589569 1002.95304138 732.34929138 1003.78108276 732.75460815 1004.63421631 C738.8840725 1017.53674739 745.00239306 1030.4445267 751.11502075 1043.3550415 C756.50418497 1054.73716153 761.90211518 1066.11508152 767.30718994 1077.48965454 C769.6686749 1082.45955147 772.02923171 1087.42988936 774.38986206 1092.40019226 C776.44958055 1096.73671895 778.50993682 1101.07294105 780.57128906 1105.40869141 C782.6876544 1109.86035472 784.80228992 1114.31283604 786.91577148 1118.76586914 C787.71642176 1120.45203572 788.51768284 1122.13791242 789.31958008 1123.82348633 C790.4255857 1126.14849794 791.5294552 1128.47451194 792.6328125 1130.80078125 C792.96100983 1131.4894075 793.28920715 1132.17803375 793.62734985 1132.88752747 C794.89738789 1135.56993503 796.06031663 1138.1809499 797 1141 C712.19 1141 627.38 1141 540 1141 C530.77977061 1122.55954122 530.77977061 1122.55954122 526.77734375 1113.640625 C525.21295912 1110.16111249 523.64282015 1106.68425347 522.0703125 1103.20840454 C521.39678001 1101.71944986 520.72360463 1100.23033359 520.05078125 1098.74105835 C516.72416849 1091.37982808 513.3651805 1084.03354244 510.00219727 1076.68887329 C504.48290103 1064.63432024 498.98175938 1052.57166636 493.5 1040.5 C488.36898195 1029.20153773 483.22333015 1017.9098773 478.0625 1006.625 C477.73105988 1005.90024475 477.39961975 1005.1754895 477.05813599 1004.42877197 C474.70594214 999.2856109 472.35305128 994.14276883 470 989 C454.74760257 955.66474937 454.74760257 955.66474937 447.17337036 939.02764893 C446.58253467 937.73022007 445.99132305 936.43296231 445.39962769 935.13592529 C439.16568007 921.46801531 433.1016904 907.72880339 427 894 C230.32 893.67 33.64 893.34 -169 893 C-169.99 895.97 -170.98 898.94 -172 902 C-173.14744971 904.67969673 -174.31658755 907.3173739 -175.5546875 909.953125 C-175.89213989 910.68212509 -176.22959229 911.41112518 -176.57727051 912.16221619 C-177.2982489 913.71873277 -178.02129933 915.27429104 -178.74627686 916.82894897 C-180.68469809 920.98675927 -182.60682188 925.15210583 -184.53125 929.31640625 C-184.91727386 930.15065628 -185.30329773 930.98490631 -185.70101929 931.84443665 C-188.97914225 938.93528716 -192.1926079 946.05310757 -195.375 953.1875 C-200.65670234 965.01401174 -205.97426487 976.8238956 -211.3125 988.625 C-211.71766846 989.52079773 -212.12283691 990.41659546 -212.5402832 991.33953857 C-218.45243543 1004.4072532 -224.40238287 1017.4572671 -230.37573242 1030.49710083 C-235.25210323 1041.14491235 -240.07332682 1051.81595405 -244.85253906 1062.5078125 C-252.83920136 1080.36667327 -260.91656244 1098.18477412 -269 1116 C-269.32387695 1116.71389893 -269.64775391 1117.42779785 -269.98144531 1118.16333008 C-271.85804424 1122.29848616 -273.73958081 1126.43135563 -275.625 1130.5625 C-276.0679541 1131.53678955 -276.5109082 1132.5110791 -276.96728516 1133.51489258 C-277.36222168 1134.37751709 -277.7571582 1135.2401416 -278.1640625 1136.12890625 C-278.49873535 1136.86181885 -278.8334082 1137.59473145 -279.17822266 1138.34985352 C-280 1140 -280 1140 -281 1141 C-282.36049266 1141.09639773 -283.72595661 1141.12371937 -285.08985996 1141.12304783 C-285.97663349 1141.12503888 -286.86340701 1141.12702993 -287.77705246 1141.12908131 C-288.76244049 1141.12616847 -289.74782851 1141.12325563 -290.76307678 1141.12025452 C-292.32019187 1141.12153615 -292.32019187 1141.12153615 -293.90876383 1141.12284368 C-297.41583687 1141.12450159 -300.92286294 1141.11897205 -304.42993164 1141.11352539 C-306.93251036 1141.11324356 -309.43508917 1141.11340117 -311.93766785 1141.1139679 C-317.34028289 1141.11419622 -322.74288258 1141.11134476 -328.14549446 1141.10573006 C-335.95684798 1141.09761732 -343.76819566 1141.09500007 -351.57955294 1141.09374207 C-364.25168769 1141.09155119 -376.92381601 1141.08489014 -389.59594727 1141.07543945 C-401.90877246 1141.06626626 -414.22159591 1141.05918497 -426.53442383 1141.05493164 C-427.29285798 1141.05466892 -428.05129213 1141.05440619 -428.83270914 1141.05413551 C-432.63739259 1141.05283051 -436.44207606 1141.05156679 -440.24675953 1141.05032361 C-471.83117769 1141.03994988 -503.41558787 1141.02225648 -535 1141 C-534.29187266 1137.16160405 -533.24525076 1134.10005637 -531.515625 1130.58984375 C-530.9997583 1129.5330542 -530.4838916 1128.47626465 -529.95239258 1127.38745117 C-529.39060303 1126.24896729 -528.82881348 1125.1104834 -528.25 1123.9375 C-527.0472973 1121.47564947 -525.84957322 1119.01139106 -524.65234375 1116.546875 C-524.34556198 1115.91637741 -524.03878021 1115.28587982 -523.72270203 1114.63627625 C-520.67354618 1108.35649288 -517.73545814 1102.02690874 -514.8125 1095.6875 C-509.61145779 1084.42472492 -504.32147627 1073.20631162 -499 1062 C-493.78714073 1051.02089161 -488.59897869 1040.03257283 -483.5 1029 C-478.01748011 1017.13756565 -472.42845305 1005.32750967 -466.82373047 993.52246094 C-462.00401252 983.3687075 -457.21547924 973.20267827 -452.5 963 C-447.42011744 952.00993962 -442.25412211 941.06260914 -437.0625 930.125 C-431.65140922 918.72489797 -426.26214143 907.31575229 -420.9375 895.875 C-415.86805919 884.98345673 -410.75914815 874.1111935 -405.625 863.25 C-404.90519115 861.72705121 -404.1853832 860.20410199 -403.46557617 858.68115234 C-402.38475276 856.39444929 -401.30391975 854.10775078 -400.22303772 851.82107544 C-396.39270431 843.71687068 -392.56853495 835.60977055 -388.75 827.5 C-388.41645508 826.79166016 -388.08291016 826.08332031 -387.73925781 825.35351562 C-383.33639308 816.0001023 -378.96640583 806.63213517 -374.625 797.25 C-369.1191398 785.35249785 -363.51397569 773.50360537 -357.89266968 761.66033936 C-352.87207768 751.08153948 -347.87841058 740.49125176 -342.9375 729.875 C-337.86805919 718.98345673 -332.75914815 708.1111935 -327.625 697.25 C-326.90519115 695.72705121 -326.1853832 694.20410199 -325.46557617 692.68115234 C-324.38475276 690.39444929 -323.30391975 688.10775078 -322.22303772 685.82107544 C-318.39270431 677.71687068 -314.56853495 669.60977055 -310.75 661.5 C-310.41645508 660.79166016 -310.08291016 660.08332031 -309.73925781 659.35351562 C-305.33639308 650.0001023 -300.96640583 640.63213517 -296.625 631.25 C-291.1191398 619.35249785 -285.51397569 607.50360537 -279.89266968 595.66033936 C-274.87207768 585.08153948 -269.87841058 574.49125176 -264.9375 563.875 C-259.86805919 552.98345673 -254.75914815 542.1111935 -249.625 531.25 C-248.90519115 529.72705121 -248.1853832 528.20410199 -247.46557617 526.68115234 C-246.38475276 524.39444929 -245.30391975 522.10775078 -244.22303772 519.82107544 C-240.39270431 511.71687068 -236.56853495 503.60977055 -232.75 495.5 C-232.41645508 494.79166016 -232.08291016 494.08332031 -231.73925781 493.35351562 C-227.33639308 484.0001023 -222.96640583 474.63213517 -218.625 465.25 C-213.1191398 453.35249785 -207.51397569 441.50360537 -201.89266968 429.66033936 C-196.30311417 417.88268662 -190.75843819 406.08565682 -185.25805664 394.26611328 C-180.70783022 384.49375217 -176.10910342 374.74471178 -171.5 365 C-166.30378921 354.01360976 -161.12938769 343.01775131 -156 332 C-150.909443 321.0669595 -145.77881876 310.15336057 -140.625 299.25 C-140.26877563 298.49630127 -139.91255127 297.74260254 -139.54553223 296.96606445 C-138.10475024 293.9176988 -136.66392082 290.86935557 -135.22302246 287.82104492 C-131.39269633 279.7168493 -127.56853011 271.60976027 -123.75 263.5 C-123.41645508 262.79166016 -123.08291016 262.08332031 -122.73925781 261.35351562 C-118.33639308 252.0001023 -113.96640583 242.63213517 -109.625 233.25 C-104.1191398 221.35249785 -98.51397569 209.50360537 -92.89266968 197.66033936 C-87.87207768 187.08153948 -82.87841058 176.49125176 -77.9375 165.875 C-72.86805919 154.98345673 -67.75914815 144.1111935 -62.625 133.25 C-61.90519115 131.72705121 -61.1853832 130.20410199 -60.46557617 128.68115234 C-59.38475276 126.39444929 -58.30391975 124.10775078 -57.22303772 121.82107544 C-53.39270431 113.71687068 -49.56853495 105.60977055 -45.75 97.5 C-45.41645508 96.79166016 -45.08291016 96.08332031 -44.73925781 95.35351562 C-40.33639317 86.0001025 -35.96637255 76.63215047 -31.625 67.25 C-25.61557625 54.26327483 -19.49308547 41.33109649 -13.35400391 28.40527344 C-12.98549316 27.62906143 -12.61698242 26.85284943 -12.23730469 26.05311584 C-11.56055439 24.62794338 -10.88336842 23.20297763 -10.20556641 21.77830505 C-6.76588552 14.53605564 -3.39083146 7.2660674 0 0 Z M127 239 C126.68998047 239.69520752 126.37996094 240.39041504 126.06054688 241.10668945 C119.44233953 255.93624249 112.76590191 270.73721886 106 285.5 C101.18745083 296.00254571 96.40202382 306.51549037 91.6875 317.0625 C86.38251664 328.92954801 81.04455487 340.78136588 75.6875 352.625 C75.28242218 353.52061646 74.87734436 354.41623291 74.45999146 355.33898926 C68.54774336 368.40688486 62.59770225 381.45708128 56.62426758 394.49710083 C51.74421103 405.15296036 46.91976738 415.83225417 42.13647461 426.53198242 C37.34660019 437.24163168 32.52246187 447.93563415 27.6875 458.625 C27.07988327 459.96842468 27.07988327 459.96842468 26.45999146 461.33898926 C20.54774336 474.40688486 14.59770225 487.45708128 8.62426758 500.49710083 C3.74421103 511.15296036 -1.08023262 521.83225417 -5.86352539 532.53198242 C-10.65339981 543.24163168 -15.47753813 553.93563415 -20.3125 564.625 C-20.71757782 565.52061646 -21.12265564 566.41623291 -21.54000854 567.33898926 C-27.45225664 580.40688486 -33.40229775 593.45708128 -39.37573242 606.49710083 C-44.24528091 617.13001545 -49.06412748 627.78422307 -53.83056641 638.46386719 C-57.19180016 645.98845909 -60.58453334 653.49808037 -63.99609375 661 C-64.87267324 662.92959101 -65.74921939 664.85919716 -66.62573242 666.78881836 C-67.93141695 669.663032 -69.23822915 672.5367038 -70.54873657 675.40872192 C-71.76983132 678.08494552 -72.98683839 680.7629948 -74.203125 683.44140625 C-74.57227524 684.24735229 -74.94142548 685.05329834 -75.32176208 685.88366699 C-75.66062943 686.63176636 -75.99949677 687.37986572 -76.34863281 688.15063477 C-76.6447345 688.80040787 -76.94083618 689.45018097 -77.24591064 690.11964417 C-78.17388973 692.31023327 -78.17388973 692.31023327 -79 696 C58.28 696 195.56 696 337 696 C331.49791201 683.16179469 325.97354604 670.42312071 320.05947876 657.7822876 C317.98160285 653.34001343 315.91510329 648.89244745 313.84765625 644.4453125 C313.43370102 643.55540619 313.01974579 642.66549988 312.59324646 641.74862671 C308.78810675 633.56101641 305.03905263 625.34862315 301.3125 617.125 C300.7054866 615.78596934 300.09847163 614.44693939 299.49145508 613.10791016 C298.58249192 611.1026888 297.67355439 609.09745593 296.76481628 607.09213257 C293.2148424 599.2617781 289.63890502 591.44330864 286.0625 583.625 C285.39241249 582.15983204 284.72232786 580.69466277 284.05224609 579.22949219 C282.03520216 574.8194915 280.01764965 570.40972359 278 566 C275.31201999 560.12521949 272.62435076 554.25029708 269.9375 548.375 C269.60597931 547.65008362 269.27445862 546.92516724 268.93289185 546.17828369 C263.79653876 534.94535378 258.67944615 523.7037749 253.57247925 512.4574585 C248.7314234 501.79742646 243.87112783 491.14632192 239 480.5 C233.81775678 469.17370525 228.64996617 457.84100733 223.5 446.5 C218.36898195 435.20153773 213.22333015 423.9098773 208.0625 412.625 C207.73105988 411.90024475 207.39961975 411.1754895 207.05813599 410.42877197 C204.70594214 405.2856109 202.35305128 400.14276883 200 395 C197.31201999 389.12521949 194.62435076 383.25029708 191.9375 377.375 C191.44021896 376.28762543 191.44021896 376.28762543 190.93289185 375.17828369 C185.79622642 363.94467071 180.67917098 352.70225265 175.57147217 341.45544434 C170.74951286 330.83871038 165.911873 320.22923977 161.0625 309.625 C160.73338623 308.9052298 160.40427246 308.18545959 160.06518555 307.44387817 C156.64261828 299.9590555 153.21796576 292.47519099 149.79039001 284.99266052 C135.256153 253.2615593 135.256153 253.2615593 129 239 C128.34 239 127.68 239 127 239 Z " fill="#0F172A" transform="translate(2040,938)"/>
<path d="M0 0 C165.33 0 330.66 0 501 0 C501 63.69 501 127.38 501 193 C455.79 193 410.58 193 364 193 C364 442.48 364 691.96 364 949 C409.21 949 454.42 949 501 949 C501 1012.69 501 1076.38 501 1142 C335.67 1142 170.34 1142 0 1142 C0 1078.31 0 1014.62 0 949 C42.57 949 85.14 949 129 949 C129 699.52 129 450.04 129 193 C86.43 193 43.86 193 0 193 C0 129.31 0 65.62 0 0 Z " fill="#0F172A" transform="translate(5187,937)"/>
<path d="M0 0 C100.32 0 200.64 0 304 0 C312.03978451 17.22810967 312.03978451 17.22810967 314.69921875 23.37890625 C315.01182648 24.09723633 315.3244342 24.81556641 315.64651489 25.55566406 C316.66205802 27.89046356 317.6747929 30.22646918 318.6875 32.5625 C319.42453682 34.25846322 320.16176558 35.95434303 320.89916992 37.65014648 C322.46217999 41.24546305 324.02402939 44.84128055 325.58496094 48.4375 C328.00455093 54.01155293 330.42768959 59.5840584 332.8515625 65.15625 C336.20025693 72.85501775 339.54795525 80.5542174 342.89453125 88.25390625 C347.51383034 98.88178349 352.13420338 109.50919346 356.75494385 120.13644409 C357.99796642 122.99532289 359.24093556 125.85422492 360.48388672 128.71313477 C364.29868707 137.48750323 368.11372472 146.26176826 371.92965698 155.03564453 C379.9651628 173.51151465 387.99962255 191.98777573 396.00537109 210.4765625 C403.44684201 227.6567456 410.92005558 244.82315553 418.38720703 261.9921875 C422.17789317 270.70817494 425.96744354 279.42465618 429.75704956 288.14111328 C431.83798366 292.92743032 433.91899589 297.7137134 436 302.5 C436.83333371 304.4166665 437.66666704 306.33333317 438.5 308.25 C438.9125 309.19875 439.325 310.1475 439.75 311.125 C463.49999999 365.74999999 463.49999999 365.74999999 464.74989319 368.62475586 C465.58358107 370.54223697 466.41727045 372.45971744 467.2509613 374.37719727 C469.32888219 379.15639757 471.40677757 383.93560896 473.48461914 388.71484375 C477.29918434 397.48863864 481.11397191 406.2623366 484.92965698 415.03564453 C492.9651628 433.51151465 500.99962255 451.98777573 509.00537109 470.4765625 C516.44684201 487.6567456 523.92005558 504.82315553 531.38720703 521.9921875 C535.17789317 530.70817494 538.96744354 539.42465618 542.75704956 548.14111328 C544.83798366 552.92743032 546.91899589 557.7137134 549 562.5 C549.83333371 564.4166665 550.66666704 566.33333317 551.5 568.25 C551.9125 569.19875 552.325 570.1475 552.75 571.125 C576.50000018 625.75000041 576.50000018 625.75000041 577.74989319 628.62475586 C578.58358107 630.54223697 579.41727045 632.45971744 580.2509613 634.37719727 C582.32888219 639.15639757 584.40677757 643.93560896 586.48461914 648.71484375 C590.29918434 657.48863864 594.11397191 666.2623366 597.92965698 675.03564453 C605.9651628 693.51151465 613.99962255 711.98777573 622.00537109 730.4765625 C629.44684201 747.6567456 636.92005558 764.82315553 644.38720703 781.9921875 C648.17789317 790.70817494 651.96744354 799.42465618 655.75704956 808.14111328 C657.83798366 812.92743032 659.91899589 817.7137134 662 822.5 C662.83333371 824.4166665 663.66666704 826.33333317 664.5 828.25 C664.9125 829.19875 665.325 830.1475 665.75 831.125 C689.50000014 885.75000032 689.50000014 885.75000032 690.74989319 888.62475586 C691.58358107 890.54223697 692.41727045 892.45971744 693.2509613 894.37719727 C695.32888219 899.15639757 697.40677757 903.93560896 699.48461914 908.71484375 C703.29918434 917.48863864 707.11397191 926.2623366 710.92965698 935.03564453 C718.9651628 953.51151465 726.99962255 971.98777573 735.00537109 990.4765625 C742.44684201 1007.6567456 749.92005558 1024.82315553 757.38720703 1041.9921875 C761.17844933 1050.70945371 764.96854228 1059.4272196 768.75869751 1068.1449585 C770.00077239 1071.00177653 771.2429277 1073.85855958 772.48510742 1076.71533203 C776.29220749 1085.4710416 780.09887951 1094.22693627 783.90368652 1102.98364258 C785.63500505 1106.96814874 787.36663735 1110.95251851 789.0982666 1114.93688965 C790.35849237 1117.83701146 791.61821656 1120.7373508 792.87792969 1123.63769531 C796.68937827 1132.40981861 800.51126118 1141.17701316 804.3671875 1149.9296875 C805.03467251 1151.44677535 805.70215312 1152.96386513 806.36962891 1154.48095703 C807.5890834 1157.25203291 808.81333148 1160.02091944 810.04052734 1162.78857422 C810.83257568 1164.58705811 810.83257568 1164.58705811 811.640625 1166.421875 C812.32946777 1167.97793457 812.32946777 1167.97793457 813.03222656 1169.56542969 C814 1172 814 1172 814 1174 C713.68 1174 613.36 1174 510 1174 C493.28125 1136.10416667 493.28125 1136.10416667 485.6171875 1118.359375 C481.23994437 1108.23264186 476.83756406 1098.11683224 472.4375 1088 C471.57502314 1086.01668704 470.71255576 1084.03336995 469.85009766 1082.05004883 C466.81658411 1075.07432979 463.78271473 1068.09876553 460.7487793 1061.12322998 C457.89479607 1054.56141716 455.04099561 1047.99952489 452.1875 1041.4375 C451.78046844 1040.50147949 451.37343689 1039.56545898 450.95407104 1038.60107422 C443.63948397 1021.77926812 436.33650081 1004.95243744 429.0355835 988.12469482 C419.85174301 966.95749736 410.65435686 945.79621212 401.45166016 924.63720703 C397.71798769 916.05249927 393.98556263 907.46724914 390.25302124 898.88204956 C388.16872981 894.08801174 386.08436106 889.29400754 384 884.5 C383.16666629 882.5833335 382.33333296 880.66666683 381.5 878.75 C381.0875 877.80125 380.675 876.8525 380.25 875.875 C356.49999993 821.24999984 356.49999993 821.24999984 355.25010681 818.37524414 C354.41641893 816.45776303 353.58272955 814.54028256 352.7490387 812.62280273 C350.67111781 807.84360243 348.59322243 803.06439104 346.51538086 798.28515625 C342.70081566 789.51136136 338.88602809 780.7376634 335.07034302 771.96435547 C327.0348372 753.48848535 319.00037745 735.01222427 310.99462891 716.5234375 C303.55315799 699.3432544 296.07994442 682.17684447 288.61279297 665.0078125 C284.82210683 656.29182506 281.03255646 647.57534382 277.24295044 638.85888672 C275.16201634 634.07256968 273.08100411 629.2862866 271 624.5 C270.16666629 622.5833335 269.33333296 620.66666683 268.5 618.75 C268.0875 617.80125 267.675 616.8525 267.25 615.875 C243.50000019 561.25000043 243.50000019 561.25000043 242.25010681 558.37524414 C241.41641893 556.45776303 240.58272955 554.54028256 239.7490387 552.62280273 C237.67111781 547.84360243 235.59322243 543.06439104 233.51538086 538.28515625 C229.70081566 529.51136136 225.88602809 520.7376634 222.07034302 511.96435547 C214.0348372 493.48848535 206.00037745 475.01222427 197.99462891 456.5234375 C190.55315799 439.3432544 183.07994442 422.17684447 175.61279297 405.0078125 C171.82210683 396.29182506 168.03255646 387.57534382 164.24295044 378.85888672 C162.16201634 374.07256968 160.08100411 369.2862866 158 364.5 C157.16666629 362.5833335 156.33333296 360.66666683 155.5 358.75 C155.0875 357.80125 154.675 356.8525 154.25 355.875 C130.49999988 301.24999973 130.49999988 301.24999973 129.25010681 298.37524414 C128.41641893 296.45776303 127.58272955 294.54028256 126.7490387 292.62280273 C124.67111781 287.84360243 122.59322243 283.06439104 120.51538086 278.28515625 C116.70081566 269.51136136 112.88602809 260.7376634 109.07034302 251.96435547 C101.0348372 233.48848535 93.00037745 215.01222427 84.99462891 196.5234375 C77.55315799 179.3432544 70.07994442 162.17684447 62.61279297 145.0078125 C58.82210683 136.29182506 55.03255646 127.57534382 51.24295044 118.85888672 C49.16201634 114.07256968 47.08100411 109.2862866 45 104.5 C44.16666629 102.5833335 43.33333296 100.66666683 42.5 98.75 C41.88125 97.326875 41.88125 97.326875 41.25 95.875 C37.5 87.25 37.5 87.25 36.25030518 84.37568665 C35.41596946 82.45672469 34.58161885 80.53776922 33.74725342 78.61882019 C31.67913494 73.8623241 29.61126553 69.10572005 27.54394531 64.34887695 C23.61272509 55.30399994 19.67871221 46.26036165 15.73669434 37.22018433 C13.85935589 32.91452174 11.98333455 28.60828588 10.10742188 24.30200195 C9.20639152 22.23465586 8.3047045 20.16759583 7.40234375 18.10083008 C6.15722954 15.24891456 4.91430981 12.39605233 3.671875 9.54296875 C3.29794617 8.68809372 2.92401733 7.83321869 2.53875732 6.95243835 C0 1.11386608 0 1.11386608 0 0 Z " fill="#2AD352" transform="translate(2754,921)"/>
<path d="M0 0 C1.38009354 0.00056958 1.38009354 0.00056958 2.78806776 0.00115067 C3.84552767 -0.00084038 4.90298757 -0.00283143 5.99249172 -0.00488281 C7.16853621 -0.00196997 8.34458071 0.00094287 9.55626291 0.00394398 C10.7944337 0.00308955 12.03260449 0.00223513 13.30829561 0.00135481 C16.76073403 -0.00001344 20.21311646 0.00313428 23.66554815 0.00813287 C27.38267506 0.01243388 31.09980011 0.0109912 34.8169288 0.0102306 C41.26230718 0.00970514 47.70767547 0.01285422 54.15305132 0.01846844 C63.47209013 0.02658049 72.79112404 0.02919836 82.11016601 0.03045643 C97.22810094 0.03264742 112.34603049 0.03930876 127.4639625 0.04875904 C142.15341535 0.05793196 156.84286674 0.06501338 171.53232187 0.06926686 C172.43711881 0.06952958 173.34191574 0.0697923 174.27413077 0.07006299 C178.81303372 0.07136798 183.35193667 0.0726317 187.89083964 0.07387489 C225.5715491 0.08424895 263.25225245 0.10186853 300.93295664 0.1241985 C300.46658698 1.54638445 299.99819184 2.96790629 299.52896494 4.38915211 C299.26834898 5.18083412 299.00773302 5.97251614 298.73921961 6.78818852 C297.57456459 10.16257856 296.17725286 13.41018839 294.72983164 16.6710735 C294.41976679 17.3787537 294.10970194 18.08643391 293.79024118 18.81555897 C293.11462045 20.35645654 292.43722667 21.89657769 291.7582435 23.43599659 C290.25555043 26.84333767 288.76186481 30.25460653 287.26747507 33.66559559 C286.4532208 35.52397011 285.63852263 37.38215019 284.82341379 39.24015003 C280.21339663 49.75204469 275.64776201 60.28312855 271.08240122 70.8144756 C268.62482382 76.48329429 266.16558646 82.15139273 263.70639414 87.819511 C262.97752748 89.49955471 262.97752748 89.49955471 262.23393625 91.21353871 C257.40988217 102.33195736 252.57880126 113.44731596 247.74545664 124.5616985 C247.33854593 125.49740681 246.93163522 126.43311512 246.51239389 127.39717823 C244.46991485 132.09383193 242.4272977 136.79042555 240.38461679 141.48699147 C236.65094433 150.07169923 232.91851927 158.65694935 229.18597788 167.24214894 C227.10168644 172.03618675 225.0173177 176.83019095 222.93295664 181.6241985 C222.09962293 183.540865 221.2662896 185.45753167 220.43295664 187.3741985 C212.0996233 206.54086516 203.76628997 225.70753183 195.43295664 244.8741985 C195.02049188 245.82286793 194.60802713 246.77153736 194.18306345 247.74895436 C193.34937556 249.66643547 192.51568619 251.58391594 191.68199533 253.50139576 C189.60407444 258.28059606 187.52617907 263.05980746 185.4483375 267.83904225 C181.6337723 276.61283714 177.81898473 285.3865351 174.00329965 294.15984303 C162.70418241 320.1359665 162.70418241 320.1359665 151.43295664 346.1241985 C143.49167519 364.46410246 135.51656067 382.78930224 127.5457496 401.116386 C123.75506346 409.83237344 119.9655131 418.54885467 116.17590708 427.26531178 C114.09497297 432.05162882 112.01396074 436.83791189 109.93295664 441.6241985 C109.09962293 443.540865 108.2662896 445.45753167 107.43295664 447.3741985 C99.0996233 466.54086516 90.76628997 485.70753183 82.43295664 504.8741985 C82.02044153 505.82298374 81.60792642 506.77176899 81.18291086 507.74930531 C80.3497316 509.66561658 79.51655086 511.58192721 78.68336862 513.49823719 C76.59766572 518.29533604 74.51198882 523.09244619 72.42636484 527.88957936 C68.70467137 536.44975988 64.982815 545.00986933 61.25995249 553.56954151 C51.97523726 574.91717254 42.69849592 596.26823684 33.43295664 617.6241985 C23.76114396 639.91657181 14.07646425 662.20332221 4.38461679 684.48699147 C0.65094433 693.07169923 -3.08148073 701.65694935 -6.81402212 710.24214894 C-8.89831356 715.03618675 -10.9826823 719.83019095 -13.06704336 724.6241985 C-13.90037707 726.540865 -14.7337104 728.45753167 -15.56704336 730.3741985 C-23.9003767 749.54086516 -32.23371003 768.70753183 -40.56704336 787.8741985 C-40.97955847 788.82298374 -41.39207358 789.77176899 -41.81708914 790.74930531 C-42.6502684 792.66561658 -43.48344914 794.58192721 -44.31663138 796.49823719 C-46.40233428 801.29533604 -48.48801118 806.09244619 -50.57363516 810.88957936 C-54.29532863 819.44975988 -58.017185 828.00986933 -61.74004751 836.56954151 C-71.02476274 857.91717254 -80.30150408 879.26823684 -89.56704336 900.6241985 C-99.23885604 922.91657181 -108.92353575 945.20332221 -118.61538321 967.48699147 C-122.34905567 976.07169923 -126.08148073 984.65694935 -129.81402212 993.24214894 C-131.89831356 998.03618675 -133.9826823 1002.83019095 -136.06704336 1007.6241985 C-136.90037707 1009.540865 -137.7337104 1011.45753167 -138.56704336 1013.3741985 C-163.56704316 1070.87419804 -163.56704316 1070.87419804 -164.816845 1073.74874073 C-165.65084103 1075.66693263 -166.48483558 1077.58512518 -167.31882864 1079.50331837 C-169.39201047 1084.27165428 -171.46521752 1089.03997921 -173.53847891 1093.80828053 C-177.40938288 1102.71105895 -181.28004035 1111.6139443 -185.14983755 1120.51720387 C-186.9581628 1124.67758477 -188.76662646 1128.83790549 -190.5751 1132.99822193 C-191.42900996 1134.96271026 -192.28285368 1136.92722737 -193.13662344 1138.89177662 C-195.0700225 1143.34056535 -197.0041711 1147.78902299 -198.94057852 1152.23650318 C-200.35058018 1155.47498657 -201.7560573 1158.71537885 -203.15835196 1161.95720631 C-203.79843569 1163.4321642 -204.4385695 1164.90710036 -205.07876211 1166.382011 C-205.36902777 1167.05577778 -205.65929343 1167.72954457 -205.95835501 1168.42372853 C-207.95376326 1173.01091839 -207.95376326 1173.01091839 -209.06704336 1174.1241985 C-210.68301902 1174.22129455 -212.30326458 1174.24791446 -213.92215449 1174.24724633 C-215.50834435 1174.2502329 -215.50834435 1174.2502329 -217.12657845 1174.25327981 C-218.30262294 1174.25036696 -219.47866743 1174.24745412 -220.69034964 1174.24445301 C-222.54760582 1174.24573465 -222.54760582 1174.24573465 -224.44238234 1174.24704218 C-227.89482076 1174.24841043 -231.34720319 1174.24526271 -234.79963487 1174.24026412 C-238.51676179 1174.23596312 -242.23388683 1174.23740579 -245.95101553 1174.23816639 C-252.39639391 1174.23869185 -258.8417622 1174.23554277 -265.28713804 1174.22992855 C-274.60617686 1174.2218165 -283.92521077 1174.21919864 -293.24425273 1174.21794056 C-308.36218767 1174.21574958 -323.48011722 1174.20908823 -338.59804922 1174.19963795 C-353.28750207 1174.19046503 -367.97695346 1174.18338361 -382.6664086 1174.17913014 C-383.57120554 1174.17886741 -384.47600247 1174.17860469 -385.4082175 1174.17833401 C-389.94712044 1174.17702901 -394.4860234 1174.17576529 -399.02492636 1174.1745221 C-436.70563583 1174.16414804 -474.38633918 1174.14652846 -512.06704336 1174.1241985 C-511.59247699 1172.68497861 -511.11657138 1171.24620028 -510.64010245 1169.80760914 C-510.37522654 1169.00634224 -510.11035063 1168.20507534 -509.83744818 1167.37952763 C-508.92509467 1164.70864941 -507.87223651 1162.13064992 -506.73891836 1159.5460735 C-506.28122061 1158.49613209 -505.82352286 1157.44619068 -505.35195547 1156.36443287 C-504.84543448 1155.21265553 -504.33891348 1154.06087818 -503.81704336 1152.8741985 C-503.25874392 1151.59639504 -502.70090258 1150.31839135 -502.14345938 1149.04021412 C-501.20476055 1146.88827374 -500.26562779 1144.73652857 -499.32511526 1142.58538014 C-496.47071291 1136.0565818 -493.63231109 1129.52090462 -490.79751211 1122.9835735 C-490.09884276 1121.37238384 -490.09884276 1121.37238384 -489.38605887 1119.72864491 C-488.41935474 1117.49922935 -487.45267525 1115.26980311 -486.48601919 1113.04036671 C-476.17930367 1089.27388113 -465.85069244 1065.51691172 -455.51870352 1041.76140553 C-451.78503106 1033.17669777 -448.052606 1024.59144764 -444.3200646 1016.00624806 C-442.23577317 1011.21221024 -440.15140443 1006.41820604 -438.06704336 1001.6241985 C-437.23370966 999.70753199 -436.40037633 997.79086532 -435.56704336 995.8741985 C-427.23371003 976.70753183 -418.9003767 957.54086516 -410.56704336 938.3741985 C-410.15452826 937.42541325 -409.74201315 936.476628 -409.31699759 935.49909168 C-408.48381833 933.58278041 -407.65063759 931.66646978 -406.81745535 929.7501598 C-404.73175245 924.95306095 -402.64607554 920.1559508 -400.56045157 915.35881764 C-396.8387581 906.79863711 -393.11690173 898.23852766 -389.39403921 889.67885548 C-380.10932399 868.33122445 -370.83258265 846.98016016 -361.56704336 825.6241985 C-351.89523068 803.33182518 -342.21055098 781.04507478 -332.51870352 758.76140553 C-328.78503106 750.17669777 -325.052606 741.59144764 -321.3200646 733.00624806 C-319.23577317 728.21221024 -317.15140443 723.41820604 -315.06704336 718.6241985 C-314.23370966 716.70753199 -313.40037633 714.79086532 -312.56704336 712.8741985 C-300.06704336 684.1241985 -300.06704336 684.1241985 -287.56704336 655.3741985 C-287.15452826 654.42541325 -286.74201315 653.476628 -286.31699759 652.49909168 C-285.48381833 650.58278041 -284.65063759 648.66646978 -283.81745535 646.7501598 C-281.73175245 641.95306095 -279.64607554 637.1559508 -277.56045157 632.35881764 C-273.8387581 623.79863711 -270.11690173 615.23852766 -266.39403921 606.67885548 C-257.10932399 585.33122445 -247.83258265 563.98016016 -238.56704336 542.6241985 C-228.89523068 520.33182518 -219.21055098 498.04507478 -209.51870352 475.76140553 C-205.78503106 467.17669777 -202.052606 458.59144764 -198.3200646 450.00624806 C-196.23577317 445.21221024 -194.15140443 440.41820604 -192.06704336 435.6241985 C-191.23370966 433.70753199 -190.40037633 431.79086532 -189.56704336 429.8741985 C-174.56704336 395.3741985 -159.56704336 360.8741985 -144.56704336 326.3741985 C-144.15457861 325.42552906 -143.74211386 324.47685963 -143.31715018 323.49944264 C-142.48346229 321.58196152 -141.64977292 319.66448105 -140.81608206 317.74700123 C-138.73816117 312.96780093 -136.6602658 308.18858953 -134.58242422 303.40935475 C-130.76785903 294.63555985 -126.95307146 285.8618619 -123.13738638 277.08855397 C-111.83826914 251.1124305 -111.83826914 251.1124305 -100.56704336 225.1241985 C-92.62576192 206.78429454 -84.6506474 188.45909475 -76.67983633 170.132011 C-72.88915019 161.41602356 -69.09959983 152.69954232 -65.3099938 143.98308522 C-63.2290597 139.19676817 -61.14804747 134.4104851 -59.06704336 129.6241985 C-58.23370966 127.70753199 -57.40037633 125.79086532 -56.56704336 123.8741985 C-51.56704339 112.37419856 -51.56704339 112.37419856 -50.31718069 109.49951893 C-49.48338513 107.58178609 -48.64959404 105.66405131 -47.8158074 103.74631459 C-45.73958266 98.9709445 -43.6632817 94.19560759 -41.58681875 89.42034107 C-37.30636155 79.57628395 -33.02737367 69.73159142 -28.75063711 59.88591725 C-23.8609736 48.62989147 -18.96774149 37.37542482 -14.06704336 26.1241985 C-13.57826712 25.00198902 -13.57826712 25.00198902 -13.07961661 23.85710865 C-11.18414014 19.50664015 -9.28373182 15.15836304 -7.37954336 10.8116985 C-6.72006705 9.29999073 -6.72006705 9.29999073 -6.04726797 7.75774342 C-5.65805166 6.87191578 -5.26883536 5.98608814 -4.86782461 5.07341725 C-4.53951651 4.3240691 -4.2112084 3.57472096 -3.87295157 2.80266529 C-2.60234102 0.15636191 -2.60234102 0.15636191 0 0 Z " fill="#2AD352" transform="translate(4643.067043364048,920.8758015036583)"/>
<path d="M0 0 C68.5884375 -0.0928125 68.5884375 -0.0928125 138.5625 -0.1875 C160.17536499 -0.22846802 160.17536499 -0.22846802 182.22485352 -0.27026367 C199.89440918 -0.28381348 199.89440918 -0.28381348 208.18077087 -0.28633118 C213.93646475 -0.28911269 219.69206985 -0.30004827 225.44773865 -0.31672668 C232.10517763 -0.33598925 238.76253238 -0.34446948 245.41999936 -0.34033485 C248.81670175 -0.33854796 252.21306781 -0.34286982 255.60975945 -0.35764539 C305.17475506 -0.56305197 353.72499055 10.26409533 390.6875 45.25 C409.59830497 65.00440965 420.24720934 90.09537775 424 117 C424.27457031 118.94712891 424.27457031 118.94712891 424.5546875 120.93359375 C426.58802307 140.07779312 426.3812549 161.24451745 422 180 C421.81727539 180.79937988 421.63455078 181.59875977 421.44628906 182.42236328 C417.22789748 200.0682624 409.37201482 217.55971884 397 231 C396.31679688 231.81082031 395.63359375 232.62164062 394.9296875 233.45703125 C367.27890176 265.71628128 323.50312444 277.1120503 282.71079254 280.25328732 C272.25587087 280.97445181 261.86173991 281.13687874 251.38476562 281.11352539 C249.57947288 281.11324253 247.77418001 281.11340318 245.96888733 281.1139679 C241.12080554 281.11425202 236.27274905 281.10841809 231.42467308 281.10139394 C226.33849596 281.09509577 221.25231811 281.09455153 216.1661377 281.09336853 C206.55831309 281.09027413 196.95050001 281.08208649 187.34268045 281.07201904 C174.34296536 281.05869632 161.34324705 281.05334271 148.34352684 281.04751682 C127.89567594 281.03814512 107.44784936 281.01821364 87 281 C87 325.22 87 369.44 87 415 C58.29 415 29.58 415 0 415 C0 278.05 0 141.1 0 0 Z M87 74 C87 119.54 87 165.08 87 212 C119.99901271 212.08746898 119.99901271 212.08746898 152.99804688 212.14648438 C166.46382086 212.1642535 179.92953834 212.18509074 193.39526367 212.22631836 C203.20427625 212.25633587 213.01324278 212.27560219 222.82230002 212.28226548 C228.01017656 212.28615691 233.19792143 212.29522321 238.38575554 212.31719017 C243.28178477 212.33775101 248.17762974 212.34379475 253.07369804 212.33932304 C254.85811875 212.34013957 256.64254647 212.34598731 258.42692947 212.35761642 C281.47779864 212.50030759 304.25496261 208.80509689 321.76953125 192.4375 C336.47399226 176.36817659 339.76393121 156.65469952 339.13623047 135.5078125 C338.19414677 118.16536857 331.17609818 102.23670565 318.6796875 90.203125 C301.61997661 76.17735687 282.28830505 73.6842098 261.03442383 73.77294922 C259.13134772 73.77351419 257.22827117 73.77319511 255.32519531 73.77206421 C250.18754209 73.77149303 245.04998324 73.78320914 239.91235185 73.79721212 C234.53253047 73.80975882 229.15270667 73.81089308 223.77287292 73.81326294 C213.5982111 73.81946616 203.42359253 73.83586126 193.24894971 73.85596192 C179.49089719 73.88254882 165.73283276 73.89330292 151.97476101 73.90496635 C130.31647498 73.92374272 108.65828019 73.96359613 87 74 Z " fill="#2AD252" transform="translate(7377,32)"/>
<path d="M0 0 C90.09 0 180.18 0 273 0 C273 89.1 273 178.2 273 270 C182.91 270 92.82 270 0 270 C0 180.9 0 91.8 0 0 Z " fill="#2AD352" transform="translate(3712,1482)"/>
<path d="M0 0 C90.09 0 180.18 0 273 0 C273 89.1 273 178.2 273 270 C182.91 270 92.82 270 0 270 C0 180.9 0 91.8 0 0 Z " fill="#2AD352" transform="translate(3712,918)"/>
<path d="M0 0 C27.72 0 55.44 0 84 0 C84.03738281 13.63957031 84.07476562 27.27914062 84.11328125 41.33203125 C84.14357267 49.9954527 84.17460808 58.65886101 84.20898438 67.32226562 C84.263358 81.05996481 84.31477573 94.79762756 84.34643555 108.53540039 C84.36951287 118.54298844 84.40301835 128.55047991 84.44870156 138.55799121 C84.47250327 143.84984561 84.49131712 149.14160514 84.49761391 154.43351173 C84.5037244 159.42974434 84.52393539 164.42573459 84.55427551 169.42187691 C84.56296129 171.24090634 84.56679836 173.05996758 84.56500816 174.87901688 C84.54937876 198.1196825 86.83546814 222.01691885 103.51171875 239.6484375 C121.51952463 256.66680349 150.03396626 258.88724284 173.6171875 258.28125 C200.5464249 257.11674244 224.42871699 248.43274453 245 231 C245.51691406 230.56284668 246.03382813 230.12569336 246.56640625 229.67529297 C256.88572183 220.8333982 265.31053335 210.85771259 272.75 199.5 C273.18578369 198.83661621 273.62156738 198.17323242 274.07055664 197.48974609 C275.43232958 195.35434992 276.71284783 193.18121792 278 191 C278.50925585 190.19617512 279.0185117 189.39235023 279.54319954 188.56416702 C284.74203839 179.53999413 284.8517726 171.28311135 284.77294922 161.20605469 C284.78113457 159.44074662 284.79194531 157.67544909 284.80516052 155.91017151 C284.83343101 151.15254836 284.82529947 146.39562219 284.81029272 141.6379652 C284.80087253 136.65312285 284.82540031 131.66844601 284.84622192 126.68365479 C284.88048141 117.25980115 284.88451165 107.83619046 284.87749684 98.412287 C284.8697734 85.66683143 284.90912058 72.92152499 284.94573593 60.17613411 C285.0021286 40.1173287 284.99595421 20.05904249 285 0 C312.72 0 340.44 0 369 0 C369 105.27 369 210.54 369 319 C341.28 319 313.56 319 285 319 C284.505 269.005 284.505 269.005 284 218 C281.03 224.93 278.06 231.86 275 239 C273.11876972 242.84591184 271.25936129 246.58322382 269.1875 250.3125 C268.68887451 251.21709961 268.19024902 252.12169922 267.67651367 253.05371094 C260.63556402 265.5283291 251.89294092 276.66050272 242 287 C240.7934375 288.31871094 240.7934375 288.31871094 239.5625 289.6640625 C217.83323683 312.62206376 186.20488035 325.89956055 154.76489258 327.1262207 C113.8594079 328.00461921 72.67004814 322.56216958 40 296 C39.23429687 295.41089844 38.46859375 294.82179688 37.6796875 294.21484375 C14.06387093 274.95821913 3.66185631 244.01665374 0.26948333 214.81572747 C-0.51530281 206.61579949 -0.38829857 198.38329111 -0.34057617 190.1550293 C-0.33972717 188.0632885 -0.34021036 185.97154681 -0.34190369 183.87980652 C-0.3427544 178.27370984 -0.32528067 172.66781095 -0.30418181 167.06175971 C-0.28525862 161.17617821 -0.28365238 155.29059075 -0.28010559 149.40498352 C-0.27083062 138.29210924 -0.24627926 127.17932491 -0.21605712 116.06648999 C-0.18237042 103.40120227 -0.16599143 90.73590994 -0.15097082 78.07058847 C-0.11972498 52.04699783 -0.06477068 26.02353028 0 0 Z " fill="#2AD352" transform="translate(8045,128)"/>
<path d="M0 0 C1.3746492 0.00223572 1.3746492 0.00223572 2.77706909 0.0045166 C17.14695344 0.04641997 31.21986533 0.64041599 45.375 3.3125 C46.13876953 3.45171875 46.90253906 3.5909375 47.68945312 3.734375 C71.69287542 8.2704548 93.88865432 18.34813261 112.375 34.3125 C113.06980469 34.90546875 113.76460938 35.4984375 114.48046875 36.109375 C132.28048382 52.56522417 141.4681278 78.37941126 143.0625 101.9375 C143.13537231 103.00532715 143.13537231 103.00532715 143.2097168 104.09472656 C143.30884039 105.83203127 143.34748313 107.57258737 143.375 109.3125 C142.375 110.3125 142.375 110.3125 139.44541931 110.43275452 C138.13303787 110.43053391 136.82065643 110.42831329 135.46850586 110.42602539 C134.74659561 110.42617142 134.02468536 110.42631744 133.28089905 110.4264679 C130.88385053 110.42576869 128.48687877 110.41797595 126.08984375 110.41015625 C124.43217511 110.4082921 122.77450593 110.40686818 121.11683655 110.40586853 C116.74545786 110.40204312 112.37411219 110.39221265 108.00274658 110.38116455 C103.54545539 110.37095092 99.08815889 110.36637101 94.63085938 110.36132812 C85.87889107 110.3505904 77.12694964 110.33351371 68.375 110.3125 C68.18095078 109.76442688 67.98690155 109.21635376 67.78697205 108.65167236 C66.89505098 106.14538988 65.99255459 103.64304042 65.08984375 101.140625 C64.78477905 100.27840332 64.47971436 99.41618164 64.16540527 98.52783203 C61.85866543 92.16714558 59.23155711 87.11638295 54.375 82.3125 C53.77042969 81.6834375 53.16585937 81.054375 52.54296875 80.40625 C36.28456191 64.77698721 11.38777659 65.6788592 -9.61785889 66.08003235 C-25.89574939 66.52837313 -42.1130382 70.29514115 -54.625 81.3125 C-60.00998443 87.9358917 -61.91490666 94.82427717 -61.5625 103.25 C-60.79850624 110.05727026 -58.89934845 115.37964802 -53.71484375 120.0234375 C-51.4263663 121.65984424 -49.11509179 123.00395099 -46.625 124.3125 C-45.84253906 124.73015625 -45.06007812 125.1478125 -44.25390625 125.578125 C-37.51555233 128.7420475 -30.48510225 130.44625515 -23.26953125 132.16015625 C-22.17349075 132.42163956 -21.07745026 132.68312286 -19.94819641 132.95252991 C-9.20125785 135.47672001 1.61130613 137.59115829 12.45751953 139.63796997 C114.90232047 159.04963364 114.90232047 159.04963364 140.42578125 192.390625 C142.74528451 195.86755574 144.766445 199.41554484 146.6875 203.125 C147.01314941 203.73996338 147.33879883 204.35492676 147.67431641 204.98852539 C152.82988522 215.4538207 153.91454888 226.60942206 153.8125 238.125 C153.80347656 239.35186523 153.79445312 240.57873047 153.78515625 241.84277344 C153.39152836 262.51370453 146.4406847 280.06179424 132.375 295.3125 C131.83617188 295.93125 131.29734375 296.55 130.7421875 297.1875 C110.04099816 319.65713265 77.45583276 328.02803108 48.375 332.3125 C47.59801758 332.43109375 46.82103516 332.5496875 46.02050781 332.671875 C-5.59092935 340.15631302 -69.03826439 335.21399914 -112.19580078 303.43725586 C-114.73918314 301.47114678 -117.18911537 299.40968719 -119.625 297.3125 C-120.5015625 296.57386719 -121.378125 295.83523438 -122.28125 295.07421875 C-141.15429612 278.67680368 -156.30654595 255.81549459 -158.625 230.3125 C-158.625 227.0125 -158.625 223.7125 -158.625 220.3125 C-132.555 220.3125 -106.485 220.3125 -79.625 220.3125 C-78.305 223.6125 -76.985 226.9125 -75.625 230.3125 C-73.54928897 233.85258252 -71.12365955 237.05983965 -68.625 240.3125 C-68.16351562 240.94027344 -67.70203125 241.56804687 -67.2265625 242.21484375 C-54.59450195 258.31524462 -32.84114594 265.15812754 -13.31640625 267.7734375 C8.82602811 270.20121301 39.26304394 271.76152197 57.875 257.0625 C63.47201661 251.74475241 66.0741086 244.54964288 66.61328125 236.95703125 C66.78551224 228.06447308 66.52400545 221.23659438 60.59765625 214.203125 C43.52844936 197.29284927 12.88978902 196.15985737 -9.625 192.4375 C-108.35675287 176.10732269 -108.35675287 176.10732269 -136.68359375 139.6640625 C-148.5376631 122.27809412 -151.10222791 100.38412912 -147.4375 80 C-143.17053263 58.60264346 -129.6656038 41.16579971 -112.18359375 28.55078125 C-79.16788447 6.65511712 -38.96788518 -0.15755866 0 0 Z " fill="#2AD352" transform="translate(8634.625,120.6875)"/>
<path d="M0 0 C27.72 0 55.44 0 84 0 C84 147.51 84 295.02 84 447 C56.28 447 28.56 447 0 447 C0 299.49 0 151.98 0 0 Z " fill="#2AD352" transform="translate(7877,0)"/>
</svg>
