<svg width="24" height="24" viewBox="0 0 24 24" fill="none" xmlns="http://www.w3.org/2000/svg">
<path d="M10.2684 21.0001C10.4439 21.3042 10.6964 21.5566 11.0004 21.7321C11.3044 21.9077 11.6493 22.0001 12.0004 22.0001C12.3514 22.0001 12.6963 21.9077 13.0003 21.7321C13.3043 21.5566 13.5568 21.3042 13.7324 21.0001M13.9164 2.31415C13.0138 2.01002 12.0519 1.9251 11.11 2.06642C10.1682 2.20774 9.27353 2.57124 8.50001 3.12685C7.7265 3.68246 7.09635 4.41423 6.66169 5.26164C6.22703 6.10905 6.00034 7.04776 6.00036 8.00015C6.00036 12.4991 4.58936 13.9561 3.26036 15.3271C3.12993 15.4705 3.04397 15.6486 3.01292 15.8399C2.98187 16.0312 3.00707 16.2274 3.08547 16.4047C3.16386 16.5819 3.29207 16.7325 3.45449 16.8383C3.61692 16.944 3.80656 17.0002 4.00036 17.0001H20.0004C20.1942 17.0002 20.3838 16.944 20.5462 16.8383C20.7086 16.7325 20.8369 16.5819 20.9152 16.4047C20.9936 16.2274 21.0188 16.0312 20.9878 15.8399C20.9568 15.6486 20.8708 15.4705 20.7404 15.3271C20.5346 15.1152 20.3393 14.8933 20.1554 14.6621M21.0004 8.00015C21.0004 9.657 19.6572 11.0001 18.0004 11.0001C16.3435 11.0001 15.0004 9.657 15.0004 8.00015C15.0004 6.34329 16.3435 5.00015 18.0004 5.00015C19.6572 5.00015 21.0004 6.34329 21.0004 8.00015Z" stroke="#2C2C2C" stroke-width="0.666667" stroke-linecap="round" stroke-linejoin="round"/>
</svg>
