<svg width="10" height="10" viewBox="0 0 10 10" fill="none" xmlns="http://www.w3.org/2000/svg">
<path d="M7.08325 1.25H8.74992M8.74992 1.25V2.91667M8.74992 1.25L4.04454 5.95537M7.7395 4.6175C8.3328 5.77789 8.48783 7.11329 8.17616 8.37875C8.15623 8.46043 8.11551 8.53556 8.05796 8.59685C8.00041 8.65815 7.92799 8.70351 7.84773 8.72855C7.76746 8.75358 7.68209 8.75743 7.5999 8.73973C7.51771 8.72202 7.4415 8.68336 7.37866 8.6275L5.83325 7.08333M2.91658 4.16667L1.37075 2.62083C1.3153 2.5579 1.27702 2.48173 1.25963 2.39967C1.24223 2.31762 1.24629 2.23247 1.27143 2.15245C1.29657 2.07243 1.34193 2.00025 1.40312 1.94289C1.46431 1.88552 1.53927 1.84492 1.62075 1.825C2.8867 1.51327 4.2226 1.66861 5.38325 2.2625M4.04454 5.95537C4.12268 6.03351 4.16658 6.13949 4.16658 6.25V7.08333C4.16674 7.17676 4.14841 7.26929 4.11266 7.3556C4.0769 7.44192 4.02442 7.5203 3.95825 7.58625L2.85575 8.68917C2.82661 8.71838 2.78946 8.73828 2.74899 8.74635C2.70853 8.75442 2.66659 8.75029 2.62847 8.73449C2.59036 8.71869 2.55779 8.69193 2.53491 8.65761C2.51202 8.62328 2.49984 8.58293 2.49991 8.54167V7.91667C2.49991 7.80616 2.45602 7.70018 2.37788 7.62204C2.29974 7.5439 2.19375 7.5 2.08325 7.5H1.45825C1.41703 7.49999 1.37673 7.48775 1.34247 7.46484C1.3082 7.44192 1.28151 7.40935 1.26576 7.37125C1.25001 7.33315 1.24592 7.29124 1.254 7.25082C1.26209 7.2104 1.28198 7.17328 1.31116 7.14417L2.41366 6.04167C2.47961 5.97549 2.558 5.92301 2.64431 5.88726C2.73062 5.8515 2.82316 5.83318 2.91658 5.83333H3.74991C3.86042 5.83333 3.9664 5.87723 4.04454 5.95537Z" stroke="#EE2636" stroke-width="0.666667" stroke-linecap="round" stroke-linejoin="round"/>
</svg>
