<svg width="24" height="24" viewBox="0 0 24 24" fill="none" xmlns="http://www.w3.org/2000/svg">
<path d="M11.9839 22.7195C6.06176 22.7195 1.24817 17.9059 1.24817 11.9838C1.24817 6.06164 6.06176 1.24805 11.9839 1.24805C17.906 1.24805 22.7196 6.06164 22.7196 11.9838C22.7196 17.9059 17.906 22.7195 11.9839 22.7195ZM11.9839 2.74605C6.89066 2.74605 2.74618 6.89054 2.74618 11.9838C2.74618 17.077 6.89066 21.2215 11.9839 21.2215C17.0771 21.2215 21.2216 17.077 21.2216 11.9838C21.2216 6.89054 17.0771 2.74605 11.9839 2.74605Z" fill="#292D32"/>
<path d="M9.15764 15.5601C8.96789 15.5601 8.77814 15.4902 8.62834 15.3404C8.33873 15.0508 8.33873 14.5714 8.62834 14.2818L14.2808 8.62932C14.5704 8.33971 15.0498 8.33971 15.3394 8.62932C15.629 8.91893 15.629 9.3983 15.3394 9.68791L9.68693 15.3404C9.54712 15.4902 9.34739 15.5601 9.15764 15.5601Z" fill="#292D32"/>
<path d="M14.8101 15.5601C14.6204 15.5601 14.4306 15.4902 14.2808 15.3404L8.62834 9.68791C8.33873 9.3983 8.33873 8.91893 8.62834 8.62932C8.91796 8.33971 9.39732 8.33971 9.68693 8.62932L15.3394 14.2818C15.629 14.5714 15.629 15.0508 15.3394 15.3404C15.1896 15.4902 14.9999 15.5601 14.8101 15.5601Z" fill="#292D32"/>
</svg>
