<svg width="20" height="20" viewBox="0 0 20 20" fill="none" xmlns="http://www.w3.org/2000/svg">
<path fill-rule="evenodd" clip-rule="evenodd" d="M4.13454 1.66656H15.9512V1.67489C16.947 1.65756 17.8515 2.25291 18.2293 3.17442C18.6071 4.09593 18.3809 5.15485 17.6595 5.84156L13.6845 9.81656C13.2421 10.2598 12.9882 10.857 12.9762 11.4832V15.1499C12.9749 15.9102 12.617 16.626 12.0095 17.0832L10.9762 17.8582C10.2455 18.4143 9.26209 18.5064 8.44077 18.0958C7.61946 17.6851 7.10314 16.8431 7.10954 15.9249V11.4832C7.09751 10.857 6.84368 10.2598 6.4012 9.81656L2.4262 5.84156C1.6985 5.15588 1.46818 4.09287 1.84684 3.16748C2.22549 2.2421 3.1349 1.64544 4.13454 1.66656ZM17.0345 3.64156C16.8547 3.20188 16.4262 2.91513 15.9512 2.91656H4.13454C3.6595 2.91513 3.23104 3.20188 3.0512 3.64156C2.86556 4.07911 2.96821 4.58578 3.30954 4.91656L7.3012 8.89156C7.9921 9.57666 8.37934 10.5102 8.3762 11.4832V15.9249C8.37175 16.2321 8.48954 16.5285 8.70365 16.7489C8.91776 16.9692 9.21065 17.0955 9.51787 17.0999C9.76893 17.0988 10.0124 17.0137 10.2095 16.8582L11.2429 16.0832C11.5366 15.8629 11.7095 15.5171 11.7095 15.1499V11.4832C11.7108 10.5078 12.1042 9.57389 12.8012 8.89156L16.7762 4.91656C17.1175 4.58578 17.2202 4.07911 17.0345 3.64156Z" fill="#2AD352"/>
</svg>
