<svg width="361" height="269" viewBox="0 0 361 269" fill="none" xmlns="http://www.w3.org/2000/svg">
<path d="M361 236.383H0V236.563H361V236.383Z" fill="#EBEBEB"/>
<path d="M227.913 241.299H209.531V241.479H227.913V241.299Z" fill="#EBEBEB"/>
<path d="M328.828 245.205H285.27V245.386H328.828V245.205Z" fill="#EBEBEB"/>
<path d="M205.618 241.387H160.616V241.567H205.618V241.387Z" fill="#EBEBEB"/>
<path d="M131.432 246.787H122.018V246.968H131.432V246.787Z" fill="#EBEBEB"/>
<path d="M183.452 246.787H140.58V246.968H183.452V246.787Z" fill="#EBEBEB"/>
<path d="M65.6369 243.74H37.876V243.921H65.6369V243.74Z" fill="#EBEBEB"/>
<path d="M171.114 204.181H31.7033C30.6112 204.18 29.5644 203.744 28.7928 202.971C28.0212 202.199 27.5879 201.151 27.5879 200.059V4.08652C27.5974 3.00065 28.0349 1.96238 28.8055 1.19723C29.5761 0.432087 30.6174 0.00186015 31.7033 0H171.114C172.208 0 173.256 0.434346 174.029 1.20749C174.802 1.98063 175.237 3.02923 175.237 4.12262V200.059C175.237 201.152 174.802 202.201 174.029 202.974C173.256 203.747 172.208 204.181 171.114 204.181ZM31.7033 0.1444C30.659 0.146313 29.6582 0.562485 28.9205 1.30157C28.1827 2.04065 27.7684 3.04225 27.7684 4.08652V200.059C27.7684 201.103 28.1827 202.105 28.9205 202.844C29.6582 203.583 30.659 203.999 31.7033 204.001H171.114C172.159 203.999 173.161 203.583 173.9 202.844C174.638 202.105 175.054 201.104 175.056 200.059V4.08652C175.054 3.04159 174.638 2.04 173.9 1.30113C173.161 0.56225 172.159 0.146309 171.114 0.1444H31.7033Z" fill="#EBEBEB"/>
<path d="M327.29 204.181H187.872C186.779 204.18 185.731 203.745 184.959 202.972C184.186 202.199 183.751 201.152 183.749 200.059V4.08652C183.76 2.99999 184.2 1.96173 184.971 1.19678C185.743 0.431834 186.785 0.00183986 187.872 0H327.29C328.374 0.00375764 329.414 0.434824 330.183 1.19977C330.952 1.96471 331.388 3.0019 331.398 4.08652V200.059C331.398 201.15 330.966 202.196 330.196 202.969C329.426 203.742 328.381 204.178 327.29 204.181ZM187.872 0.1444C186.827 0.146309 185.825 0.56225 185.086 1.30113C184.347 2.04 183.931 3.04159 183.93 4.08652V200.059C183.931 201.104 184.347 202.105 185.086 202.844C185.825 203.583 186.827 203.999 187.872 204.001H327.29C328.335 203.999 329.336 203.583 330.075 202.844C330.814 202.105 331.23 201.104 331.232 200.059V4.08652C331.23 3.04159 330.814 2.04 330.075 1.30113C329.336 0.56225 328.335 0.146309 327.29 0.1444H187.872Z" fill="#EBEBEB"/>
<path d="M141.483 173.764H93.5425L90.6328 140.191H138.574L141.483 173.764Z" fill="#E6E6E6"/>
<path d="M143.967 173.764H96.0259L93.1162 140.191H141.057L143.967 173.764Z" fill="#F0F0F0"/>
<path d="M102.581 166.551L100.979 147.396H134.501L136.104 166.551H102.581Z" fill="white"/>
<path d="M152.262 173.764H146.638V236.383H152.262V173.764Z" fill="#E6E6E6"/>
<path d="M154.039 173.764H150.133V236.383H154.039V173.764Z" fill="#F0F0F0"/>
<path d="M99.5931 180.674H154.039V173.764H99.5931V180.674Z" fill="#F0F0F0"/>
<path d="M101.513 180.674H95.8887V236.383H101.513V180.674Z" fill="#E6E6E6"/>
<path d="M103.289 180.674H99.3828V236.383H103.289V180.674Z" fill="#F0F0F0"/>
<path d="M61.4779 180.674H55.8535V236.383H61.4779V180.674Z" fill="#E6E6E6"/>
<path d="M63.2547 180.674H59.3486V236.383H63.2547V180.674Z" fill="#F0F0F0"/>
<path d="M116.668 180.674H111.044V236.383H116.668V180.674Z" fill="#E6E6E6"/>
<path d="M118.437 180.674H114.531V236.383H118.437V180.674Z" fill="#F0F0F0"/>
<path d="M99.5923 173.764H55.8535V180.673H99.5923V173.764Z" fill="#E6E6E6"/>
<path d="M262.692 17.623H93.5059V111.815H262.692V17.623Z" fill="#E0E0E0"/>
<path d="M271.985 17.623H94.3584V111.815H271.985V17.623Z" fill="#F5F5F5"/>
<path d="M269.082 108.915V20.5273L97.2606 20.5273V108.915L269.082 108.915Z" fill="white"/>
<path d="M166.832 108.915L199.272 20.5273H145.735L113.296 108.915H166.832Z" fill="#F5F5F5"/>
<path d="M218.361 108.915L250.801 20.5273H210.412L177.973 108.915H218.361Z" fill="#F5F5F5"/>
<path d="M316.315 146.422H301.933V236.383H316.315V146.422Z" fill="#E6E6E6"/>
<path d="M312.532 236.383H316.315V229.459H308.568L312.532 236.383Z" fill="#FAFAFA"/>
<path d="M183.712 146.422H169.33V236.383H183.712V146.422Z" fill="#E6E6E6"/>
<path d="M316.315 146.422H180.413V234.513H316.315V146.422Z" fill="#FAFAFA"/>
<path d="M313.745 174.847H182.991V149.967H313.745V174.847ZM183.713 174.125H313.023V150.689H183.713V174.125Z" fill="#E6E6E6"/>
<path d="M290.727 162.046H208.542C204.73 162.046 201.055 158.97 198.434 153.599L198.188 153.086H301.073L300.828 153.599C298.185 158.97 294.575 162.046 290.727 162.046ZM199.373 153.786C201.813 158.573 205.149 161.302 208.542 161.302H290.727C294.135 161.302 297.456 158.573 299.897 153.786H199.373Z" fill="#E6E6E6"/>
<path d="M184.196 236.383H180.413V229.459H188.16L184.196 236.383Z" fill="#FAFAFA"/>
<path d="M313.745 202.882H182.991V178.031H313.745V202.882ZM183.713 202.16H313.023V178.753H183.713V202.16Z" fill="#E6E6E6"/>
<path d="M290.727 190.11H208.542C204.73 190.11 201.055 187.027 198.434 181.662L198.188 181.143H301.073L300.828 181.662C298.185 186.998 294.575 190.11 290.727 190.11ZM199.373 181.865C201.813 186.651 205.149 189.388 208.542 189.388H290.727C294.135 189.388 297.456 186.651 299.897 181.865H199.373Z" fill="#E6E6E6"/>
<path d="M313.745 230.968H182.991V206.088H313.745V230.968ZM183.713 230.246H313.023V206.81H183.713V230.246Z" fill="#E6E6E6"/>
<path d="M290.727 218.167H208.542C204.73 218.167 201.055 215.091 198.434 209.727L198.188 209.207H301.073L300.828 209.727C298.185 215.091 294.575 218.167 290.727 218.167ZM199.373 209.929C201.813 214.716 205.149 217.445 208.542 217.445H290.727C294.135 217.445 297.456 214.716 299.897 209.929H199.373Z" fill="#E6E6E6"/>
<path d="M87.3474 158.32V160.068H86.2355L85.3114 173.764H71.7089L70.792 160.068H69.6729V158.32H87.3474Z" fill="#E6E6E6"/>
<path d="M82.8714 124.335C81.7596 116.176 70.7491 113.851 56.7784 113.548C43.4864 113.267 39.2266 108.566 39.2266 108.566C39.2266 108.566 39.2699 127.606 58.4245 134.508C76.6117 141.049 83.9905 132.508 82.8714 124.335Z" fill="#E6E6E6"/>
<path d="M76.0845 142.827C76.3155 139.476 81.6728 133.311 94.5605 136.112C103.874 138.141 107.34 133.311 107.34 133.311C107.34 133.311 106.473 146.942 92.4667 151.036C79.1602 154.927 75.673 148.732 76.0845 142.827Z" fill="#E6E6E6"/>
<path d="M79.0227 163.461C79.0952 163.462 79.1671 163.447 79.2332 163.417C79.2993 163.387 79.358 163.343 79.4053 163.288C80.3367 162.183 79.5714 159.541 78.5173 155.88C77.1599 151.187 75.4704 145.339 76.9 141.101C77.6924 138.862 78.6182 136.673 79.6725 134.545C81.6941 130.271 83.4413 126.603 81.9829 122.719C81.9601 122.657 81.9253 122.6 81.8806 122.552C81.8358 122.504 81.7818 122.465 81.7219 122.437C81.662 122.41 81.5973 122.395 81.5314 122.393C81.4656 122.391 81.4 122.402 81.3385 122.425C81.2769 122.448 81.2206 122.484 81.1728 122.529C81.125 122.574 81.0866 122.629 81.0599 122.689C81.0332 122.749 81.0188 122.814 81.0173 122.88C81.0159 122.946 81.0275 123.011 81.0515 123.072C82.3583 126.531 80.7771 129.881 78.77 134.126C77.7023 136.288 76.7621 138.511 75.9542 140.783C74.4308 145.317 76.1636 151.331 77.557 156.154C78.3801 159.042 79.2321 161.93 78.6472 162.652C78.6008 162.702 78.5653 162.761 78.5429 162.826C78.5205 162.89 78.5117 162.958 78.5172 163.026C78.5226 163.094 78.5421 163.16 78.5744 163.22C78.6068 163.28 78.6512 163.333 78.705 163.374C78.7972 163.44 78.9099 163.471 79.0227 163.461Z" fill="#E6E6E6"/>
<path d="M180.5 268.989C257.814 268.989 320.489 265.329 320.489 260.816C320.489 256.302 257.814 252.643 180.5 252.643C103.187 252.643 40.5117 256.302 40.5117 260.816C40.5117 265.329 103.187 268.989 180.5 268.989Z" fill="#F5F5F5"/>
<path d="M180.471 220.969H77.9468L72.3369 56.0859H174.861L180.471 220.969Z" fill="#2AD352"/>
<path d="M185.589 215.85H83.0654L77.4482 50.9668H179.972L185.589 215.85Z" fill="#2AD352"/>
<path opacity="0.3" d="M185.589 215.85H83.0654L77.4482 50.9668H179.972L185.589 215.85Z" fill="white"/>
<path d="M151.239 118.816C162.216 107.65 161.749 89.39 150.196 78.0324C138.642 66.6748 120.377 66.5202 109.4 77.687C98.4224 88.8538 98.8894 107.113 110.443 118.471C121.996 129.829 140.261 129.983 151.239 118.816Z" fill="#2AD352"/>
<path d="M154.126 98.2582C154.273 102.187 153.416 106.089 151.635 109.594C149.712 113.371 146.775 116.538 143.153 118.739C139.532 120.94 135.368 122.088 131.13 122.055C126.792 122.032 122.537 120.868 118.791 118.681C115.045 116.494 111.94 113.36 109.788 109.594C107.781 106.142 106.659 102.248 106.524 98.2582C106.391 95.1645 106.888 92.076 107.985 89.1804C109.083 86.2848 110.757 83.6425 112.907 81.414C115.058 79.1856 117.638 77.4176 120.493 76.2174C123.347 75.0171 126.416 74.4098 129.513 74.4322C135.892 74.4774 142.008 76.9781 146.592 81.415C151.175 85.852 153.873 91.884 154.126 98.2582Z" fill="white"/>
<path opacity="0.6" d="M151.62 109.593C149.697 113.37 146.76 116.537 143.138 118.738C139.516 120.939 135.353 122.088 131.115 122.054C126.777 122.031 122.522 120.867 118.776 118.68C115.03 116.493 111.925 113.359 109.772 109.593C115.879 105.43 123.104 103.217 130.494 103.246C138.003 103.263 145.345 105.468 151.62 109.593Z" fill="#2AD352"/>
<path opacity="0.6" d="M137.737 97.6634C141.774 93.5573 141.602 86.843 137.354 82.6667C133.105 78.4905 126.389 78.4336 122.353 82.5398C118.316 86.6459 118.488 93.3602 122.736 97.5364C126.985 101.713 133.701 101.77 137.737 97.6634Z" fill="#2AD352"/>
<path d="M164.991 156.141H99.5928L99.1523 143.145H164.551L164.991 156.141Z" fill="white"/>
<path d="M165.785 179.367H100.379L99.9385 166.371H165.344L165.785 179.367Z" fill="white"/>
<path d="M140.544 168.161L124.783 170.327C124.632 170.345 124.487 170.393 124.356 170.469C124.225 170.545 124.112 170.647 124.022 170.769C123.933 170.891 123.869 171.03 123.836 171.178C123.803 171.325 123.801 171.478 123.83 171.627L125.902 182.19C125.97 182.5 126.151 182.773 126.41 182.956C126.669 183.139 126.988 183.219 127.303 183.179L143.064 181.013C143.214 180.994 143.358 180.944 143.488 180.867C143.619 180.79 143.731 180.687 143.82 180.565C143.909 180.442 143.971 180.303 144.004 180.155C144.037 180.007 144.038 179.855 144.01 179.706L141.945 169.143C141.877 168.834 141.695 168.561 141.436 168.379C141.176 168.197 140.858 168.12 140.544 168.161ZM136.017 178.861L133.129 179.244L132.847 175.836C132.55 175.708 132.288 175.509 132.083 175.258C131.878 175.007 131.737 174.71 131.671 174.392C131.618 174.146 131.617 173.892 131.668 173.646C131.72 173.4 131.822 173.167 131.969 172.963C132.116 172.759 132.304 172.587 132.521 172.461C132.739 172.334 132.98 172.254 133.23 172.226C133.743 172.16 134.262 172.289 134.684 172.587C135.107 172.885 135.402 173.331 135.512 173.836C135.574 174.141 135.555 174.458 135.456 174.753C135.357 175.049 135.182 175.313 134.948 175.519L136.017 178.861Z" fill="#2AD352"/>
<path d="M138.985 167.592C138.707 167.627 138.425 167.557 138.195 167.395C137.965 167.234 137.804 166.992 137.743 166.718L137.541 165.685C137.253 164.277 136.463 163.02 135.318 162.149C134.174 161.278 132.752 160.852 131.318 160.949C130.593 160.99 129.887 161.187 129.245 161.526C128.604 161.864 128.043 162.337 127.601 162.912C127.158 163.486 126.845 164.149 126.681 164.856C126.518 165.563 126.508 166.296 126.653 167.007L126.884 168.198C126.911 168.33 126.91 168.466 126.882 168.598C126.853 168.729 126.797 168.854 126.717 168.962C126.638 169.071 126.537 169.162 126.42 169.229C126.303 169.297 126.174 169.339 126.04 169.353C125.761 169.392 125.477 169.324 125.246 169.161C125.016 168.999 124.856 168.756 124.798 168.48L124.603 167.476C124.405 166.538 124.398 165.57 124.584 164.629C124.769 163.689 125.143 162.795 125.682 162.003C126.222 161.211 126.916 160.535 127.723 160.018C128.53 159.501 129.434 159.152 130.379 158.993C132.429 158.648 134.532 159.107 136.253 160.272C137.974 161.438 139.18 163.221 139.621 165.252L139.852 166.436C139.879 166.57 139.877 166.708 139.847 166.841C139.817 166.974 139.759 167.099 139.677 167.208C139.595 167.317 139.491 167.408 139.372 167.474C139.253 167.54 139.121 167.58 138.985 167.592Z" fill="#2AD352"/>
<path d="M154.992 197.569H112.415L112.134 189.107H154.703L154.992 197.569Z" fill="#2AD352"/>
<path d="M134.45 149.643C134.463 149.952 134.413 150.26 134.303 150.548C134.193 150.837 134.026 151.1 133.811 151.323C133.597 151.545 133.339 151.721 133.054 151.84C132.769 151.96 132.463 152.021 132.154 152.018C131.518 152.013 130.907 151.764 130.449 151.322C129.991 150.88 129.72 150.279 129.692 149.643C129.68 149.334 129.73 149.026 129.84 148.738C129.949 148.449 130.117 148.186 130.331 147.963C130.546 147.741 130.804 147.565 131.089 147.446C131.373 147.326 131.679 147.265 131.988 147.268C132.625 147.271 133.237 147.519 133.695 147.962C134.154 148.404 134.424 149.006 134.45 149.643Z" fill="#263238"/>
<path d="M124.183 149.643C124.197 149.952 124.148 150.26 124.038 150.55C123.929 150.839 123.761 151.103 123.547 151.325C123.332 151.547 123.074 151.723 122.788 151.843C122.503 151.962 122.197 152.022 121.887 152.018C121.252 152.013 120.642 151.764 120.185 151.322C119.728 150.879 119.459 150.278 119.433 149.643C119.42 149.334 119.47 149.026 119.58 148.738C119.69 148.449 119.857 148.186 120.072 147.963C120.286 147.741 120.544 147.565 120.829 147.446C121.114 147.326 121.42 147.265 121.729 147.268C122.365 147.271 122.976 147.52 123.433 147.962C123.89 148.405 124.159 149.007 124.183 149.643Z" fill="#263238"/>
<path d="M113.982 149.643C113.995 149.952 113.945 150.26 113.835 150.548C113.725 150.837 113.558 151.1 113.343 151.323C113.128 151.545 112.871 151.721 112.586 151.84C112.301 151.96 111.995 152.021 111.686 152.018C111.05 152.015 110.439 151.766 109.982 151.324C109.524 150.881 109.256 150.279 109.231 149.643C109.219 149.334 109.269 149.026 109.379 148.738C109.489 148.449 109.656 148.186 109.871 147.963C110.085 147.741 110.343 147.565 110.628 147.446C110.912 147.326 111.218 147.265 111.527 147.268C112.164 147.271 112.774 147.52 113.232 147.962C113.689 148.405 113.958 149.007 113.982 149.643Z" fill="#263238"/>
<path d="M144.681 149.643C144.694 149.952 144.643 150.26 144.534 150.548C144.424 150.837 144.256 151.1 144.042 151.323C143.827 151.545 143.57 151.721 143.285 151.84C143 151.96 142.694 152.021 142.385 152.018C141.748 152.015 141.138 151.766 140.68 151.324C140.223 150.881 139.954 150.279 139.93 149.643C139.919 149.335 139.971 149.029 140.082 148.741C140.194 148.454 140.362 148.193 140.577 147.973C140.793 147.753 141.051 147.579 141.335 147.461C141.62 147.344 141.925 147.285 142.233 147.289C142.865 147.294 143.471 147.541 143.926 147.979C144.381 148.416 144.651 149.012 144.681 149.643Z" fill="#263238"/>
<path d="M154.912 149.643C154.926 149.952 154.876 150.26 154.767 150.55C154.657 150.839 154.49 151.103 154.275 151.325C154.06 151.547 153.802 151.723 153.517 151.843C153.232 151.962 152.925 152.022 152.616 152.018C151.98 152.013 151.37 151.764 150.913 151.322C150.456 150.879 150.187 150.278 150.161 149.643C150.148 149.334 150.198 149.026 150.308 148.738C150.418 148.449 150.586 148.186 150.8 147.963C151.015 147.741 151.272 147.565 151.557 147.446C151.842 147.326 152.148 147.265 152.457 147.268C153.094 147.271 153.704 147.52 154.161 147.962C154.619 148.405 154.888 149.007 154.912 149.643Z" fill="#263238"/>
<path d="M241.083 86.1191C242.043 87.6642 242.845 89.1371 243.668 90.675C244.491 92.2128 245.235 93.7579 245.964 95.3391C247.452 98.5407 248.683 101.856 249.646 105.252C249.776 105.678 249.87 106.133 249.978 106.573L250.137 107.245L250.216 107.577L250.31 108.126C250.473 109.37 250.397 110.635 250.086 111.851C249.588 113.74 248.83 115.55 247.834 117.23C246.052 120.283 243.898 123.104 241.422 125.627L238.383 123.331C239.909 120.526 241.266 117.633 242.448 114.667C242.974 113.36 243.345 111.996 243.552 110.602C243.619 110.177 243.599 109.742 243.495 109.324L243.206 108.443C243.09 108.082 242.982 107.721 242.845 107.353C241.747 104.375 240.476 101.462 239.04 98.6314C237.596 95.7434 236.044 92.8554 234.491 90.0974L241.083 86.1191Z" fill="#FF8B7B"/>
<path d="M239.155 122.328L235.834 124.083L239.646 128.545C239.646 128.545 242.029 126.934 242.137 124.48L239.155 122.328Z" fill="#FF8B7B"/>
<path d="M231.38 126.833L235.459 130.075L239.647 128.544L235.835 124.082L231.38 126.833Z" fill="#FF8B7B"/>
<path d="M217.43 62.4954C217.351 62.8997 217.069 63.1813 216.809 63.1307C216.549 63.0802 216.398 62.7048 216.477 62.3077C216.557 61.9106 216.838 61.5857 217.105 61.6723C217.372 61.7589 217.51 62.0911 217.43 62.4954Z" fill="#263238"/>
<path d="M217.106 63.1895C216.379 64.3204 215.499 65.3456 214.492 66.2363C214.73 66.4828 215.018 66.6749 215.337 66.7995C215.656 66.9242 215.999 66.9783 216.341 66.9583L217.106 63.1895Z" fill="#FF5652"/>
<path d="M215.806 77.3555V72.6191L222.073 73.3411C222.073 73.3411 221.972 77.4132 218.463 78.6117L215.806 77.3555Z" fill="#FF8B7B"/>
<path d="M217.611 69.2109L222.023 70.4817L222.102 73.3769L215.835 72.6188L217.611 69.2109Z" fill="#FF8B7B"/>
<path opacity="0.2" d="M222.023 70.4817L217.611 69.2109L216.752 70.8571C216.799 72.1542 217.204 73.4129 217.923 74.4937C218.642 75.5744 219.646 76.4349 220.824 76.9796C221.582 75.9209 222.025 74.6694 222.102 73.3697L222.023 70.4817Z" fill="black"/>
<path d="M219.351 60.5677C219.398 60.5664 219.443 60.5521 219.481 60.5264C219.52 60.5007 219.55 60.4646 219.569 60.4224C219.588 60.3801 219.594 60.3334 219.588 60.2875C219.581 60.2417 219.562 60.1987 219.532 60.1634C219.278 59.877 218.96 59.6554 218.603 59.5173C218.246 59.3791 217.862 59.3283 217.481 59.3692C217.419 59.3798 217.364 59.4146 217.327 59.466C217.291 59.5175 217.276 59.5813 217.286 59.6435C217.297 59.7062 217.332 59.7623 217.383 59.8C217.434 59.8377 217.498 59.8541 217.561 59.8457C217.862 59.8161 218.166 59.859 218.447 59.9708C218.729 60.0826 218.979 60.26 219.178 60.4883C219.2 60.5124 219.227 60.5319 219.257 60.5455C219.287 60.5591 219.319 60.5667 219.351 60.5677Z" fill="#263238"/>
<path d="M228.578 69.8027C227.856 73.521 227.408 78.6689 230.022 81.1454C230.022 81.1454 229.011 84.9142 222.08 84.9142C214.492 84.9142 218.434 81.6074 218.434 81.6074C221.589 80.6255 221.56 77.0372 220.838 74.1492L228.578 69.8027Z" fill="#FF8B7B"/>
<path d="M231.43 83.6285C232.109 82.6754 232.08 79.6503 231.358 79.116C230.196 78.2568 225.207 78.0546 218.499 79.5997C219.221 82.531 217.669 84.0617 217.669 84.0617L231.43 83.6285Z" fill="#2AD352"/>
<path d="M254 255.04C253.793 255.112 253.575 255.143 253.357 255.131C253.139 255.119 252.925 255.063 252.729 254.968C252.654 254.898 252.603 254.808 252.583 254.708C252.562 254.609 252.573 254.505 252.613 254.412C252.636 254.334 252.676 254.261 252.729 254.2C252.783 254.139 252.849 254.091 252.924 254.058C253.61 253.726 255.184 254.368 255.256 254.397C255.277 254.406 255.296 254.421 255.309 254.44C255.321 254.46 255.328 254.482 255.328 254.506C255.328 254.529 255.322 254.552 255.31 254.572C255.299 254.592 255.283 254.609 255.263 254.621C254.856 254.8 254.433 254.94 254 255.04ZM253.169 254.224C253.122 254.235 253.076 254.252 253.032 254.275C252.987 254.291 252.947 254.318 252.914 254.353C252.881 254.388 252.857 254.431 252.844 254.477C252.779 254.693 252.844 254.766 252.888 254.787C253.162 255.018 254.173 254.787 254.888 254.52C254.344 254.295 253.757 254.194 253.169 254.224Z" fill="#2AD352"/>
<path d="M255.235 254.627H255.177C254.599 254.461 253.372 253.588 253.357 253.017C253.357 252.926 253.387 252.838 253.444 252.767C253.5 252.696 253.579 252.647 253.668 252.627C253.754 252.595 253.845 252.582 253.936 252.59C254.027 252.597 254.116 252.625 254.195 252.671C254.874 253.017 255.307 254.418 255.321 254.483C255.331 254.5 255.337 254.52 255.337 254.541C255.337 254.561 255.331 254.581 255.321 254.598C255.31 254.61 255.296 254.618 255.281 254.623C255.266 254.628 255.25 254.63 255.235 254.627ZM253.791 252.829H253.733C253.588 252.88 253.588 252.952 253.588 252.988C253.588 253.328 254.412 254.013 255.032 254.288C254.881 253.884 254.549 253.082 254.108 252.844C254.011 252.799 253.899 252.794 253.798 252.829H253.791Z" fill="#2AD352"/>
<path d="M216.499 255.892C215.849 255.892 215.221 255.798 215.012 255.509C214.957 255.432 214.928 255.34 214.928 255.245C214.928 255.151 214.957 255.059 215.012 254.982C215.053 254.911 215.108 254.85 215.174 254.802C215.24 254.753 215.315 254.719 215.394 254.7C216.239 254.469 218.015 255.48 218.088 255.523C218.11 255.534 218.128 255.552 218.138 255.575C218.149 255.597 218.151 255.622 218.145 255.646C218.143 255.671 218.132 255.694 218.115 255.712C218.098 255.73 218.076 255.743 218.051 255.747C217.539 255.841 217.02 255.889 216.499 255.892ZM215.698 254.902C215.621 254.89 215.543 254.89 215.467 254.902C215.418 254.913 215.371 254.932 215.331 254.961C215.29 254.99 215.255 255.026 215.228 255.069C215.142 255.22 215.178 255.292 215.228 255.336C215.467 255.668 216.745 255.675 217.69 255.538C217.073 255.2 216.397 254.985 215.698 254.902Z" fill="#2AD352"/>
<path d="M218.044 255.746H217.994C217.38 255.472 216.167 254.375 216.261 253.797C216.261 253.66 216.377 253.494 216.709 253.465C216.827 253.451 216.948 253.462 217.062 253.497C217.176 253.531 217.282 253.589 217.373 253.667C217.836 254.22 218.113 254.904 218.167 255.624C218.167 255.644 218.162 255.665 218.154 255.683C218.145 255.702 218.132 255.719 218.117 255.732C218.094 255.743 218.069 255.748 218.044 255.746ZM216.803 253.689H216.73C216.514 253.689 216.499 253.79 216.499 253.819C216.441 254.165 217.265 255.032 217.893 255.407C217.838 254.828 217.603 254.28 217.221 253.84C217.103 253.739 216.951 253.685 216.795 253.689H216.803Z" fill="#2AD352"/>
<path d="M223.618 255.631H218.543L218.037 243.869H223.113L223.618 255.631Z" fill="#FF8B7B"/>
<path d="M260.895 253.277L255.935 254.353L250.946 243.4L255.914 242.324L260.895 253.277Z" fill="#FF8B7B"/>
<path d="M255.451 253.854L261.033 252.648C261.13 252.628 261.232 252.641 261.321 252.685C261.41 252.73 261.482 252.803 261.523 252.894L263.458 257.096C263.51 257.198 263.537 257.31 263.536 257.424C263.536 257.538 263.509 257.65 263.456 257.752C263.404 257.853 263.329 257.941 263.236 258.008C263.144 258.074 263.037 258.118 262.924 258.135C260.975 258.518 260 258.612 257.553 259.139C256.044 259.471 252.636 260.301 250.549 260.749C248.463 261.197 247.748 259.197 248.564 258.829C252.21 257.161 253.726 255.695 254.715 254.331C254.894 254.087 255.156 253.917 255.451 253.854Z" fill="#263238"/>
<path d="M218.579 255.039H224.124C224.224 255.04 224.322 255.074 224.4 255.137C224.479 255.2 224.534 255.288 224.557 255.386L225.56 259.898C225.59 260.007 225.593 260.122 225.57 260.232C225.547 260.343 225.499 260.447 225.429 260.535C225.359 260.624 225.269 260.694 225.166 260.742C225.063 260.789 224.951 260.812 224.838 260.808C222.838 260.772 219.95 260.656 217.438 260.656C214.492 260.656 211.958 260.815 208.507 260.815C206.42 260.815 205.842 258.707 206.716 258.512C210.687 257.645 213.936 257.552 217.366 255.436C217.726 255.195 218.145 255.058 218.579 255.039Z" fill="#263238"/>
<path d="M239.105 82.3073C243.863 83.3975 247.769 95.5487 247.769 95.5487L238.261 102.819C235.793 100.18 234.051 96.9464 233.207 93.4333C231.524 87.0653 234.239 81.181 239.105 82.3073Z" fill="#2AD352"/>
<path opacity="0.4" d="M239.105 82.3073C243.863 83.3975 247.769 95.5487 247.769 95.5487L238.261 102.819C235.793 100.18 234.051 96.9464 233.207 93.4333C231.524 87.0653 234.239 81.181 239.105 82.3073Z" fill="black"/>
<path d="M214.073 96.7976C212.889 98.0755 211.705 99.2162 210.463 100.408C209.85 100.985 209.229 101.563 208.593 102.119L207.633 102.963L207.395 103.173L206.983 103.505C206.56 103.843 206.091 104.12 205.59 104.328C205.033 104.565 204.434 104.687 203.828 104.689C203.311 104.691 202.797 104.601 202.312 104.422C201.774 104.217 201.282 103.905 200.868 103.505C200.339 102.988 199.951 102.344 199.742 101.635C199.632 101.285 199.562 100.924 199.532 100.559C199.494 100.132 199.494 99.7016 199.532 99.274C199.568 98.9274 199.612 98.6242 199.669 98.3426C199.867 97.3582 200.147 96.3921 200.507 95.4546C200.832 94.5636 201.205 93.691 201.626 92.841C202.088 91.924 202.529 91.2526 202.969 90.4873C204.758 87.5568 206.799 84.7883 209.07 82.2131C211.318 79.6532 213.795 77.3042 216.47 75.1953L219.127 77.9317C217.265 80.4298 215.431 83.1084 213.734 85.7437C212.045 88.3641 210.503 91.0757 209.113 93.8662C208.803 94.5449 208.391 95.3102 208.196 95.8589C207.938 96.4964 207.714 97.1471 207.525 97.8083C207.343 98.4038 207.205 99.012 207.113 99.6278C207.108 99.724 207.108 99.8204 207.113 99.9166C207.113 99.9743 207.113 100.003 207.113 99.8516C207.101 99.6896 207.07 99.5295 207.019 99.3751C206.863 98.8632 206.577 98.4006 206.189 98.0322C205.844 97.7149 205.439 97.4695 204.998 97.3102C204.61 97.1633 204.199 97.0875 203.785 97.0863C203.386 97.0815 202.991 97.1577 202.622 97.3102C202.498 97.3611 202.377 97.4214 202.261 97.4907L202.536 97.238L203.409 96.4438L205.135 94.8265C206.276 93.7507 207.424 92.6027 208.507 91.5342L214.073 96.7976Z" fill="#FF8B7B"/>
<path opacity="0.2" d="M235.026 91.2324C237.611 93.7883 238.456 98.4524 238.636 102.496L238.217 102.821C235.749 100.182 234.008 96.9477 233.163 93.4345C233.07 93.0591 232.983 92.7125 232.918 92.301L235.026 91.2324Z" fill="black"/>
<path d="M209.026 87.3625C207.987 92.8497 207.337 104.12 210.347 126.43H237.538C237.726 122.264 235.105 101.918 239.126 82.2724C236.122 81.6955 233.083 81.312 230.029 81.1245C226.182 80.9038 222.325 80.9038 218.477 81.1245C217.206 81.24 215.95 81.4277 214.867 81.6226C213.427 81.8753 212.097 82.5594 211.054 83.5844C210.011 84.6093 209.304 85.9268 209.026 87.3625Z" fill="#2AD352"/>
<path opacity="0.4" d="M209.026 87.3625C207.987 92.8497 207.337 104.12 210.347 126.43H237.538C237.726 122.264 235.105 101.918 239.126 82.2724C236.122 81.6955 233.083 81.312 230.029 81.1245C226.182 80.9038 222.325 80.9038 218.477 81.1245C217.206 81.24 215.95 81.4277 214.867 81.6226C213.427 81.8753 212.097 82.5594 211.054 83.5844C210.011 84.6093 209.304 85.9268 209.026 87.3625Z" fill="black"/>
<path opacity="0.2" d="M213.185 95.4991L208.275 94.3223C208.124 97.2969 208.109 100.979 208.326 105.535C210.586 102.965 213.474 98.9503 213.185 95.4991Z" fill="black"/>
<path opacity="0.2" d="M218.037 243.869L218.297 249.934H223.38L223.12 243.869H218.037Z" fill="black"/>
<path opacity="0.2" d="M255.914 242.324L250.946 243.4L253.517 249.046L258.484 247.97L255.914 242.324Z" fill="black"/>
<path d="M230.99 64.3738C229.69 69.2401 229.17 72.157 226.167 74.1786C221.654 77.2543 216.023 73.7309 215.878 68.5903C215.719 63.9478 217.878 56.7639 223.098 55.782C224.245 55.5667 225.428 55.6471 226.536 56.0155C227.643 56.384 228.639 57.0284 229.428 57.8879C230.218 58.7475 230.775 59.794 231.049 60.9287C231.322 62.0635 231.302 63.2491 230.99 64.3738Z" fill="#FF8B7B"/>
<path d="M219.597 64.5542C219.351 63.9044 218.232 58.8721 219.286 57.5652C220.34 56.2584 232.362 57.2042 234.138 58.9515C237.091 61.8395 235.04 64.4387 231.813 67.7815C229.387 70.2941 229.293 73.1243 228.066 73.5575C225.9 74.2795 222.593 73.6009 221.929 71.3121C221.265 69.0234 219.597 64.5542 219.597 64.5542Z" fill="#263238"/>
<path d="M232.679 53.2256C228.434 51.4206 220.47 53.4205 216.167 52.3809C216.112 53.9809 216.638 55.5468 217.648 56.789C218.658 58.0312 220.084 58.8659 221.661 59.1388C225.231 59.819 228.858 60.1551 232.491 60.1424C237.213 59.9258 236.289 54.7635 232.679 53.2256Z" fill="#263238"/>
<path d="M233.344 59.1033C234.895 59.2559 236.456 58.9576 237.842 58.2441C238.636 60.1647 234.268 60.6917 233.344 59.1033Z" fill="#263238"/>
<path d="M221.907 64.7554C221.81 66.0075 221.302 67.1925 220.463 68.1271C219.351 69.3473 218.196 68.582 218.001 67.1019C217.828 65.7589 218.189 63.4919 219.546 62.8421C220.904 62.1923 222.001 63.2464 221.907 64.7554Z" fill="#FF8B7B"/>
<path d="M219.986 126.45C219.986 126.45 225.762 165.257 228.917 179.799C232.376 195.719 250.96 248.388 250.96 248.388L260.05 246.417C260.05 246.417 247.054 203.487 244.166 181.228C241.928 164.131 237.531 126.436 237.531 126.436L219.986 126.45Z" fill="#2AD352"/>
<path d="M248.78 245.363C248.744 245.363 250.477 248.656 250.477 248.656L260.7 246.439L259.841 243.363L248.78 245.363Z" fill="#263238"/>
<path opacity="0.3" d="M223.633 140.277C230.297 141.584 229.589 166.435 228.788 179.222C226.867 170.182 224.051 152.797 222.131 140.458C222.596 140.228 223.126 140.164 223.633 140.277Z" fill="black"/>
<path d="M210.348 126.451C210.348 126.451 209.626 164.421 210.203 179.879C210.781 195.987 216.405 248.729 216.405 248.729H225.012C225.012 248.729 225.322 196.925 225.734 181.106C226.152 163.865 228.232 126.422 228.232 126.422L210.348 126.451Z" fill="#2AD352"/>
<path d="M214.752 245.336C214.708 245.336 215.235 248.903 215.235 248.903H225.697L225.986 245.719L214.752 245.336Z" fill="#263238"/>
<path d="M219.669 89.0513C222.102 95.6142 207.799 103.347 207.799 103.347L201.604 95.4049C201.604 95.4049 205.77 87.1596 210.824 83.4486C217.07 78.8711 217.813 84.055 219.669 89.0513Z" fill="#2AD352"/>
<path opacity="0.4" d="M219.669 89.0513C222.102 95.6142 207.799 103.347 207.799 103.347L201.604 95.4049C201.604 95.4049 205.77 87.1596 210.824 83.4486C217.07 78.8711 217.813 84.055 219.669 89.0513Z" fill="black"/>
<path d="M275.709 39.2257C290.1 39.2257 301.766 31.7909 301.766 22.6197C301.766 13.4484 290.1 6.01367 275.709 6.01367C261.318 6.01367 249.652 13.4484 249.652 22.6197C249.652 31.7909 261.318 39.2257 275.709 39.2257Z" fill="#2AD352"/>
<path d="M266.309 30.9807C264.593 30.9751 262.933 30.3648 261.622 29.257C260.311 28.1491 259.432 26.6146 259.14 24.9231C258.853 23.0909 259.266 21.2177 260.297 19.6764C261.329 18.1351 262.903 17.0388 264.706 16.6057C266.186 16.2647 267.736 16.3961 269.137 16.9815C270.538 17.5669 271.721 18.5767 272.518 19.8691L289.247 16.4179C289.89 16.2771 290.562 16.3841 291.13 16.7173C291.697 17.0506 292.118 17.5857 292.308 18.2157C292.396 18.547 292.415 18.8926 292.365 19.2314C292.314 19.5703 292.195 19.8953 292.014 20.1866C291.834 20.4778 291.596 20.7292 291.315 20.9254C291.034 21.1216 290.716 21.2584 290.381 21.3275L289.948 21.4142C289.883 21.4257 289.822 21.4519 289.77 21.4907C289.717 21.5295 289.674 21.5799 289.644 21.638C289.618 21.697 289.604 21.761 289.604 21.8257C289.604 21.8905 289.618 21.9545 289.644 22.0134L289.94 22.7788C290.039 23.0268 290.049 23.3017 289.967 23.5561C289.886 23.8104 289.718 24.0283 289.493 24.1722C289.315 24.2819 289.165 24.4306 289.054 24.607C288.942 24.7834 288.873 24.9829 288.85 25.1902C288.829 25.4283 288.733 25.6535 288.576 25.8337C288.419 26.0139 288.209 26.14 287.976 26.1938L287.637 26.266C287.402 26.3095 287.159 26.2769 286.943 26.1731C286.728 26.0692 286.551 25.8995 286.439 25.6884C286.289 25.4366 286.064 25.2378 285.796 25.1198C285.528 25.0017 285.229 24.9703 284.942 25.0299C284.655 25.0895 284.394 25.2372 284.195 25.4523C283.996 25.6674 283.869 25.9392 283.832 26.2299C283.812 26.4664 283.717 26.6904 283.562 26.8695C283.406 27.0486 283.197 27.1735 282.966 27.2263L282.626 27.2985C282.391 27.3408 282.149 27.3077 281.934 27.204C281.718 27.1003 281.541 26.9312 281.428 26.7209C281.32 26.5418 281.174 26.3884 281.001 26.2712C280.827 26.154 280.631 26.0759 280.424 26.0422C280.147 26.0088 279.891 25.8752 279.705 25.6665C279.519 25.4578 279.415 25.1883 279.414 24.9087V24.0856C279.411 24.0212 279.394 23.9582 279.364 23.9009C279.335 23.8436 279.293 23.7934 279.243 23.7536C279.192 23.7138 279.133 23.6855 279.07 23.6705C279.008 23.6555 278.943 23.6543 278.879 23.6668L273.544 24.7643C273.326 26.2425 272.658 27.6177 271.631 28.7029C270.604 29.788 269.268 30.5304 267.804 30.8291C267.312 30.9296 266.811 30.9804 266.309 30.9807ZM264.865 17.2627C263.228 17.6452 261.796 18.634 260.858 20.0299C259.92 21.4259 259.546 23.1253 259.811 24.7859C260.095 26.3309 260.923 27.7233 262.144 28.7111C263.365 29.6989 264.9 30.217 266.47 30.1717C268.04 30.1263 269.543 29.5205 270.705 28.4638C271.867 27.4071 272.613 25.9693 272.807 24.4105V24.1506L278.692 22.9593C278.86 22.9184 279.036 22.9157 279.206 22.9513C279.376 22.9868 279.536 23.0598 279.674 23.1649C279.813 23.27 279.926 23.4045 280.005 23.5588C280.085 23.713 280.13 23.8831 280.136 24.0567V24.8798C280.137 24.9778 280.172 25.0722 280.236 25.1472C280.299 25.2222 280.386 25.2731 280.482 25.2913C280.798 25.3365 281.099 25.453 281.363 25.6319C281.627 25.8108 281.847 26.0474 282.006 26.3238C282.044 26.4017 282.105 26.4658 282.182 26.5072C282.258 26.5486 282.345 26.5652 282.432 26.5548L282.764 26.4826C282.848 26.461 282.923 26.4127 282.977 26.3451C283.032 26.2775 283.063 26.194 283.067 26.1072C283.112 25.6577 283.3 25.2344 283.602 24.8983C283.903 24.5623 284.304 24.3309 284.746 24.2377C285.188 24.1444 285.649 24.1942 286.061 24.3797C286.472 24.5652 286.815 24.8769 287.038 25.2697C287.075 25.347 287.135 25.4108 287.21 25.4523C287.285 25.4937 287.371 25.5106 287.457 25.5007L287.803 25.4285C287.886 25.4055 287.959 25.3567 288.013 25.2892C288.066 25.2217 288.096 25.139 288.099 25.0531C288.135 24.7361 288.243 24.4314 288.414 24.1624C288.585 23.8934 288.816 23.6671 289.088 23.5008C289.168 23.4434 289.226 23.3611 289.253 23.2669C289.281 23.1727 289.276 23.0721 289.24 22.9809L288.944 22.2156C288.883 22.0578 288.857 21.8886 288.868 21.7197C288.879 21.5508 288.926 21.3864 289.008 21.2379C289.089 21.0894 289.201 20.9603 289.337 20.8599C289.474 20.7594 289.63 20.6898 289.796 20.6561L290.236 20.5622C290.475 20.5114 290.7 20.413 290.9 20.273C291.099 20.1329 291.268 19.9541 291.397 19.7472C291.526 19.5402 291.612 19.3095 291.649 19.0687C291.687 18.8279 291.675 18.582 291.615 18.3457C291.474 17.8913 291.167 17.5071 290.754 17.27C290.342 17.033 289.855 16.9607 289.392 17.0677L272.194 20.6416L272.064 20.4178C271.373 19.1877 270.3 18.216 269.008 17.6494C267.716 17.0828 266.274 16.9521 264.901 17.2771L264.865 17.2627ZM266.309 28.2948C265.412 28.3048 264.532 28.054 263.775 27.5728C262.88 26.9851 262.216 26.1049 261.897 25.0825C261.578 24.0601 261.623 22.9588 262.026 21.9661C262.428 20.9735 263.162 20.1511 264.103 19.6391C265.043 19.1271 266.132 18.9572 267.184 19.1584C268.236 19.3597 269.186 19.9195 269.871 20.7425C270.557 21.5655 270.935 22.6007 270.943 23.6717C270.95 24.7427 270.586 25.7831 269.912 26.6156C269.239 27.4481 268.297 28.0212 267.248 28.2371C266.941 28.2927 266.629 28.3169 266.316 28.3093L266.309 28.2948ZM266.309 19.768C266.04 19.7696 265.772 19.7961 265.508 19.8474C265.005 19.9546 264.528 20.1597 264.104 20.4512C263.68 20.7427 263.318 21.1148 263.038 21.5462C262.759 21.9776 262.566 22.4599 262.473 22.9656C262.379 23.4714 262.386 23.9905 262.493 24.4935C262.601 24.9965 262.806 25.4735 263.097 25.8972C263.389 26.3209 263.761 26.683 264.192 26.9629C264.624 27.2428 265.106 27.435 265.612 27.5285C266.117 27.622 266.637 27.615 267.14 27.5079C267.895 27.3507 268.586 26.9734 269.127 26.4238C269.668 25.8741 270.035 25.1765 270.18 24.419C270.325 23.6615 270.243 22.878 269.943 22.1672C269.644 21.4565 269.14 20.8503 268.497 20.425C267.858 19.9999 267.106 19.7761 266.338 19.7825L266.309 19.768Z" fill="white"/>
<path opacity="0.6" d="M254.504 48.9655C259.233 48.9655 263.067 46.5217 263.067 43.5071C263.067 40.4926 259.233 38.0488 254.504 38.0488C249.775 38.0488 245.941 40.4926 245.941 43.5071C245.941 46.5217 249.775 48.9655 254.504 48.9655Z" fill="#2AD352"/>
<path opacity="0.3" d="M240.88 51.203C242.822 51.203 244.397 50.2009 244.397 48.9648C244.397 47.7286 242.822 46.7266 240.88 46.7266C238.938 46.7266 237.364 47.7286 237.364 48.9648C237.364 50.2009 238.938 51.203 240.88 51.203Z" fill="#2AD352"/>
</svg>
