<svg width="24" height="24" viewBox="0 0 24 24" fill="none" xmlns="http://www.w3.org/2000/svg">
<path d="M12.035 17.012C12.035 16.2163 11.7189 15.4533 11.1563 14.8907C10.5937 14.3281 9.83065 14.012 9.035 14.012L8.724 14.01C8.58197 14.0092 8.44336 13.9663 8.32561 13.8869C8.20786 13.8075 8.11623 13.695 8.06225 13.5637C8.00827 13.4323 7.99435 13.2879 8.02224 13.1486C8.05013 13.0094 8.11859 12.8815 8.219 12.781L9.414 11.586C9.78899 11.2109 10.2976 11.0001 10.828 11H12C12.5304 11 13.0391 10.7893 13.4142 10.4142C13.7893 10.0391 14 9.53043 14 9C14 8.46957 13.7893 7.96086 13.4142 7.58579C13.0391 7.21071 12.5304 7 12 7H9.243C8.8489 6.99995 8.45865 7.07756 8.09455 7.22838C7.73045 7.3792 7.39963 7.60029 7.121 7.879L4.414 10.586C3.50877 11.4916 3.00017 12.7196 3 14C3 16.1217 3.84285 18.1566 5.34315 19.6569C6.84344 21.1571 8.87827 22 11 22H13C15.1217 22 17.1566 21.1571 18.6569 19.6569C20.1571 18.1566 21 16.1217 21 14V7C21 6.46957 20.7893 5.96086 20.4142 5.58579C20.0391 5.21071 19.5304 5 19 5C18.4696 5 17.9609 5.21071 17.5858 5.58579C17.2107 5.96086 17 6.46957 17 7V9C17 9.53043 17.2107 10.0391 17.5858 10.4142C17.9609 10.7893 18.4696 11 19 11C19.5304 11 20.0391 10.7893 20.4142 10.4142C20.7893 10.0391 21 9.53043 21 9M13.888 9.662C14.1891 9.8634 14.5392 9.97925 14.901 9.99718C15.2628 10.0151 15.6227 9.93445 15.9422 9.76381C16.2617 9.59316 16.5289 9.33895 16.7152 9.0283C16.9015 8.71765 16.9999 8.36223 17 8V5C17 4.46957 16.7893 3.96086 16.4142 3.58579C16.0391 3.21071 15.5304 3 15 3C14.4696 3 13.9609 3.21071 13.5858 3.58579C13.2107 3.96086 13 4.46957 13 5M9 5C9 4.46957 8.78929 3.96086 8.41421 3.58579C8.03914 3.21071 7.53043 3 7 3C6.46957 3 5.96086 3.21071 5.58579 3.58579C5.21071 3.96086 5 4.46957 5 5V10M9 7V4C9 3.46957 9.21071 2.96086 9.58579 2.58579C9.96086 2.21071 10.4696 2 11 2C11.5304 2 12.0391 2.21071 12.4142 2.58579C12.7893 2.96086 13 3.46957 13 4V7.268" stroke="black" stroke-linecap="round" stroke-linejoin="round"/>
</svg>
