<svg width="24" height="24" viewBox="0 0 24 24" fill="none" xmlns="http://www.w3.org/2000/svg">
<path d="M6.81907 19.9092H1.36452C1.29219 19.9092 1.22282 19.9379 1.17168 19.9891C1.12053 20.0402 1.0918 20.1096 1.0918 20.1819C1.0918 20.9776 1.40787 21.7406 1.97048 22.3032C2.53309 22.8658 3.29615 23.1819 4.0918 23.1819C4.88745 23.1819 5.65051 22.8658 6.21312 22.3032C6.77573 21.7406 7.0918 20.9776 7.0918 20.1819C7.0918 20.1096 7.06306 20.0402 7.01192 19.9891C6.96077 19.9379 6.8914 19.9092 6.81907 19.9092ZM18.5463 19.9092H13.0918C13.0195 19.9092 12.9501 19.9379 12.8989 19.9891C12.8478 20.0402 12.8191 20.1096 12.8191 20.1819C12.8191 20.9776 13.1351 21.7406 13.6977 22.3032C14.2604 22.8658 15.0234 23.1819 15.8191 23.1819C16.6147 23.1819 17.3778 22.8658 17.9404 22.3032C18.503 21.7406 18.8191 20.9776 18.8191 20.1819C18.8191 20.1096 18.7903 20.0402 18.7392 19.9891C18.688 19.9379 18.6187 19.9092 18.5463 19.9092Z" fill="#57565C"/>
<path d="M5.45508 19.9092H2.72781C2.65547 19.9092 2.5861 19.9379 2.53496 19.9891C2.48381 20.0402 2.45508 20.1096 2.45508 20.1819C2.45508 20.6159 2.62748 21.0321 2.93436 21.339C3.24124 21.6459 3.65745 21.8183 4.09144 21.8183C4.52543 21.8183 4.94165 21.6459 5.24853 21.339C5.5554 21.0321 5.72781 20.6159 5.72781 20.1819C5.72781 20.1096 5.69907 20.0402 5.64793 19.9891C5.59678 19.9379 5.52741 19.9092 5.45508 19.9092ZM17.1824 19.9092H14.4551C14.3827 19.9092 14.3134 19.9379 14.2622 19.9891C14.2111 20.0402 14.1824 20.1096 14.1824 20.1819C14.1824 20.6159 14.3548 21.0321 14.6616 21.339C14.9685 21.6459 15.3847 21.8183 15.8187 21.8183C16.2527 21.8183 16.6689 21.6459 16.9758 21.339C17.2827 21.0321 17.4551 20.6159 17.4551 20.1819C17.4551 20.1096 17.4263 20.0402 17.3752 19.9891C17.3241 19.9379 17.2547 19.9092 17.1824 19.9092Z" fill="#3E3D42"/>
<path d="M20.6346 8.4835C20.6053 8.45774 20.5707 8.43866 20.5333 8.42759C20.4958 8.41652 20.4564 8.41373 20.4178 8.41941C20.0809 8.46655 19.7391 8.46655 19.4022 8.41941C19.3635 8.41368 19.3241 8.41644 19.2867 8.42751C19.2492 8.43858 19.2146 8.45769 19.1853 8.4835C19.1559 8.50914 19.1324 8.54078 19.1162 8.57631C19.1001 8.61183 19.0918 8.6504 19.0918 8.68941V18.5458C19.0918 18.6181 19.1205 18.6875 19.1717 18.7386C19.2228 18.7898 19.2922 18.8185 19.3645 18.8185H20.4554C20.5278 18.8185 20.5971 18.7898 20.6483 18.7386C20.6994 18.6875 20.7282 18.6181 20.7282 18.5458V8.68941C20.7282 8.65044 20.7198 8.61193 20.7037 8.57645C20.6875 8.54098 20.664 8.50938 20.6346 8.48378V8.4835Z" fill="#70B6FC"/>
<path d="M13.3642 4.09131H5.72781C5.57718 4.09131 5.45508 4.21341 5.45508 4.36404V11.4549C5.45508 11.6056 5.57718 11.7277 5.72781 11.7277H13.3642C13.5148 11.7277 13.6369 11.6056 13.6369 11.4549V4.36404C13.6369 4.21341 13.5148 4.09131 13.3642 4.09131Z" fill="#FCCC97"/>
<path d="M8.45508 4.09131H5.72781C5.65547 4.09131 5.5861 4.12004 5.53496 4.17119C5.48381 4.22233 5.45508 4.2917 5.45508 4.36404V6.27313H8.45508C8.52741 6.27313 8.59678 6.24439 8.64793 6.19325C8.69907 6.1421 8.72781 6.07273 8.72781 6.0004V4.36404C8.72781 4.2917 8.69907 4.22233 8.64793 4.17119C8.59678 4.12004 8.52741 4.09131 8.45508 4.09131ZM13.3642 4.09131H10.6369C10.5646 4.09131 10.4952 4.12004 10.444 4.17119C10.3929 4.22233 10.3642 4.2917 10.3642 4.36404V6.0004C10.3642 6.07273 10.3929 6.1421 10.444 6.19325C10.4952 6.24439 10.5646 6.27313 10.6369 6.27313H13.6369V4.36404C13.6369 4.2917 13.6082 4.22233 13.557 4.17119C13.5059 4.12004 13.4365 4.09131 13.3642 4.09131Z" fill="#FFB655"/>
<path d="M8.18164 4.09131V7.63676C8.18164 7.68741 8.19574 7.73706 8.22237 7.78014C8.249 7.82323 8.2871 7.85805 8.3324 7.8807C8.3777 7.90335 8.42842 7.91294 8.47886 7.90839C8.5293 7.90384 8.57749 7.88533 8.618 7.85494L9.54528 7.15949L10.4726 7.85494C10.5131 7.88533 10.5612 7.90384 10.6117 7.90839C10.6621 7.91294 10.7129 7.90335 10.7582 7.8807C10.8035 7.85805 10.8416 7.82323 10.8682 7.78014C10.8948 7.73706 10.9089 7.68741 10.9089 7.63676V4.09131H8.18164Z" fill="#F49227"/>
<path d="M8.72727 9.8184H6.27273C6.2004 9.8184 6.13103 9.78967 6.07988 9.73852C6.02873 9.68738 6 9.61801 6 9.54568C6 9.47334 6.02873 9.40398 6.07988 9.35283C6.13103 9.30168 6.2004 9.27295 6.27273 9.27295H8.72727C8.7996 9.27295 8.86897 9.30168 8.92012 9.35283C8.97127 9.40398 9 9.47334 9 9.54568C9 9.61801 8.97127 9.68738 8.92012 9.73852C8.86897 9.78967 8.7996 9.8184 8.72727 9.8184ZM7.36364 10.6366H6.27273C6.2004 10.6366 6.13103 10.6079 6.07988 10.5567C6.02873 10.5056 6 10.4362 6 10.3639C6 10.2915 6.02873 10.2222 6.07988 10.171C6.13103 10.1199 6.2004 10.0911 6.27273 10.0911H7.36364C7.43597 10.0911 7.50534 10.1199 7.55648 10.171C7.60763 10.2222 7.63636 10.2915 7.63636 10.3639C7.63636 10.4362 7.60763 10.5056 7.55648 10.5567C7.50534 10.6079 7.43597 10.6366 7.36364 10.6366Z" fill="#FFB655"/>
<path d="M9.54457 11.1821H2.18093C2.03031 11.1821 1.9082 11.3042 1.9082 11.4549V18.5458C1.9082 18.6964 2.03031 18.8185 2.18093 18.8185H9.54457C9.69519 18.8185 9.81729 18.6964 9.81729 18.5458V11.4549C9.81729 11.3042 9.69519 11.1821 9.54457 11.1821Z" fill="#FCCC97"/>
<path d="M4.63548 11.1821H2.18093C2.1086 11.1821 2.03923 11.2109 1.98808 11.262C1.93694 11.3132 1.9082 11.3825 1.9082 11.4549V13.3639H4.63548C4.70781 13.3639 4.77718 13.3352 4.82832 13.2841C4.87947 13.2329 4.9082 13.1636 4.9082 13.0912V11.4549C4.9082 11.3825 4.87947 11.3132 4.82832 11.262C4.77718 11.2109 4.70781 11.1821 4.63548 11.1821Z" fill="#FFB655"/>
<path d="M9.54492 11.1821H6.81765C6.66703 11.1821 6.54492 11.3042 6.54492 11.4549V13.0912C6.54492 13.2418 6.66703 13.3639 6.81765 13.3639H9.54492C9.69555 13.3639 9.81765 13.2418 9.81765 13.0912V11.4549C9.81765 11.3042 9.69555 11.1821 9.54492 11.1821Z" fill="#FFB655"/>
<path d="M5.18235 16.9094H2.72781C2.65547 16.9094 2.5861 16.8807 2.53496 16.8295C2.48381 16.7784 2.45508 16.709 2.45508 16.6367C2.45508 16.5643 2.48381 16.495 2.53496 16.4438C2.5861 16.3927 2.65547 16.3639 2.72781 16.3639H5.18235C5.25468 16.3639 5.32405 16.3927 5.3752 16.4438C5.42634 16.495 5.45508 16.5643 5.45508 16.6367C5.45508 16.709 5.42634 16.7784 5.3752 16.8295C5.32405 16.8807 5.25468 16.9094 5.18235 16.9094ZM16.9096 11.1821H9.54599V18.5458C9.54599 18.6181 9.57472 18.6875 9.62587 18.7386C9.67701 18.7898 9.74638 18.8185 9.81871 18.8185H16.9096C16.982 18.8185 17.0513 18.7898 17.1025 18.7386C17.1536 18.6875 17.1824 18.6181 17.1824 18.5458V11.4549C17.1824 11.3825 17.1536 11.3132 17.1025 11.262C17.0513 11.2109 16.982 11.1821 16.9096 11.1821Z" fill="#FFB655"/>
<path d="M9.54492 11.1821H12.5449V13.3639H9.54492V11.1821ZM16.9086 11.1821H14.454C14.3817 11.1821 14.3123 11.2109 14.2612 11.262C14.21 11.3132 14.1813 11.3825 14.1813 11.4549V13.0912C14.1813 13.1636 14.21 13.2329 14.2612 13.2841C14.3123 13.3352 14.3817 13.3639 14.454 13.3639H17.1813V11.4549C17.1813 11.3825 17.1526 11.3132 17.1014 11.262C17.0503 11.2109 16.9809 11.1821 16.9086 11.1821Z" fill="#F49227"/>
<path d="M14.7273 11.1821H12V14.7276C12 14.7782 12.0141 14.8279 12.0407 14.871C12.0674 14.914 12.1055 14.9489 12.1508 14.9715C12.1961 14.9942 12.2468 15.0038 12.2972 14.9992C12.3477 14.9947 12.3958 14.9762 12.4364 14.9458L13.3636 14.2503L14.2909 14.9458C14.3314 14.9762 14.3796 14.9947 14.4301 14.9992C14.4805 15.0038 14.5312 14.9942 14.5765 14.9715C14.6218 14.9489 14.6599 14.914 14.6865 14.871C14.7132 14.8279 14.7273 14.7782 14.7273 14.7276V11.1821Z" fill="#E07912"/>
<path d="M12.8191 16.9092H10.3645C10.2922 16.9092 10.2228 16.8805 10.1717 16.8293C10.1205 16.7782 10.0918 16.7088 10.0918 16.6365C10.0918 16.5642 10.1205 16.4948 10.1717 16.4436C10.2228 16.3925 10.2922 16.3638 10.3645 16.3638H12.8191C12.8914 16.3638 12.9608 16.3925 13.0119 16.4436C13.0631 16.4948 13.0918 16.5642 13.0918 16.6365C13.0918 16.7088 13.0631 16.7782 13.0119 16.8293C12.9608 16.8805 12.8914 16.9092 12.8191 16.9092ZM11.4554 17.7274H10.3645C10.2922 17.7274 10.2228 17.6987 10.1717 17.6475C10.1205 17.5964 10.0918 17.527 10.0918 17.4547C10.0918 17.3823 10.1205 17.313 10.1717 17.2618C10.2228 17.2107 10.2922 17.182 10.3645 17.182H11.4554C11.5278 17.182 11.5971 17.2107 11.6483 17.2618C11.6994 17.313 11.7282 17.3823 11.7282 17.4547C11.7282 17.527 11.6994 17.5964 11.6483 17.6475C11.5971 17.6987 11.5278 17.7274 11.4554 17.7274Z" fill="#F49227"/>
<path d="M3.81871 17.7276H2.72781C2.65547 17.7276 2.5861 17.6988 2.53496 17.6477C2.48381 17.5966 2.45508 17.5272 2.45508 17.4549C2.45508 17.3825 2.48381 17.3132 2.53496 17.262C2.5861 17.2109 2.65547 17.1821 2.72781 17.1821H3.81871C3.89105 17.1821 3.96042 17.2109 4.01156 17.262C4.06271 17.3132 4.09144 17.3825 4.09144 17.4549C4.09144 17.5272 4.06271 17.5966 4.01156 17.6477C3.96042 17.6988 3.89105 17.7276 3.81871 17.7276Z" fill="#FFB655"/>
<path d="M20.7273 18.2729H0.272727C0.200395 18.2729 0.131026 18.3017 0.07988 18.3528C0.0287337 18.404 0 18.4733 0 18.5457L0 20.182C0 20.2544 0.0287337 20.3237 0.07988 20.3749C0.131026 20.426 0.200395 20.4548 0.272727 20.4548H19.9091C20.1261 20.4548 20.3342 20.3686 20.4876 20.2151C20.6411 20.0617 20.7273 19.8536 20.7273 19.6366V18.2729Z" fill="#B3D8F4"/>
<path d="M19.9093 9.00018C22.1686 9.00018 24.0002 7.16862 24.0002 4.90927C24.0002 2.64992 22.1686 0.818359 19.9093 0.818359C17.6499 0.818359 15.8184 2.64992 15.8184 4.90927C15.8184 7.16862 17.6499 9.00018 19.9093 9.00018Z" fill="#B3D8F4"/>
<path d="M19.9094 2.4549C19.8371 2.4549 19.7677 2.42617 19.7166 2.37502C19.6655 2.32387 19.6367 2.25451 19.6367 2.18217V1.90945C19.6367 1.83711 19.6655 1.76775 19.7166 1.7166C19.7677 1.66545 19.8371 1.63672 19.9094 1.63672C19.9818 1.63672 20.0511 1.66545 20.1023 1.7166C20.1534 1.76775 20.1822 1.83711 20.1822 1.90945V2.18217C20.1822 2.25451 20.1534 2.32387 20.1023 2.37502C20.0511 2.42617 19.9818 2.4549 19.9094 2.4549ZM17.981 3.25372C17.9452 3.25377 17.9097 3.24674 17.8766 3.23302C17.8435 3.21931 17.8135 3.19918 17.7882 3.17381L17.5954 2.98099C17.5457 2.92955 17.5182 2.86066 17.5188 2.78915C17.5194 2.71765 17.5481 2.64924 17.5987 2.59868C17.6492 2.54811 17.7176 2.51943 17.7892 2.51881C17.8607 2.51819 17.9296 2.54568 17.981 2.59536L18.1738 2.78817C18.2119 2.82631 18.2379 2.8749 18.2484 2.9278C18.2589 2.9807 18.2535 3.03552 18.2329 3.08535C18.2123 3.13518 18.1773 3.17777 18.1325 3.20774C18.0876 3.23771 18.0349 3.25371 17.981 3.25372ZM17.1822 5.18217H16.9094C16.8371 5.18217 16.7677 5.15344 16.7166 5.10229C16.6655 5.05115 16.6367 4.98178 16.6367 4.90945C16.6367 4.83711 16.6655 4.76774 16.7166 4.7166C16.7677 4.66545 16.8371 4.63672 16.9094 4.63672H17.1822C17.2545 4.63672 17.3239 4.66545 17.375 4.7166C17.4262 4.76774 17.4549 4.83711 17.4549 4.90945C17.4549 4.98178 17.4262 5.05115 17.375 5.10229C17.3239 5.15344 17.2545 5.18217 17.1822 5.18217ZM17.7882 7.30345C17.7342 7.30343 17.6815 7.28743 17.6367 7.25746C17.5918 7.2275 17.5569 7.18491 17.5363 7.13508C17.5156 7.08525 17.5102 7.03042 17.5207 6.97753C17.5313 6.92463 17.5572 6.87604 17.5954 6.8379L17.7882 6.64508C17.8396 6.5954 17.9085 6.56791 17.98 6.56854C18.0515 6.56916 18.1199 6.59784 18.1705 6.6484C18.2211 6.69897 18.2497 6.76737 18.2504 6.83888C18.251 6.91039 18.2235 6.97928 18.1738 7.03072L17.981 7.22354C17.9557 7.2489 17.9256 7.26902 17.8926 7.28273C17.8595 7.29644 17.824 7.30348 17.7882 7.30345ZM19.9094 8.18217C19.8371 8.18217 19.7677 8.15344 19.7166 8.10229C19.6655 8.05115 19.6367 7.98178 19.6367 7.90945V7.63672C19.6367 7.56439 19.6655 7.49502 19.7166 7.44387C19.7677 7.39272 19.8371 7.36399 19.9094 7.36399C19.9818 7.36399 20.0511 7.39272 20.1023 7.44387C20.1534 7.49502 20.1822 7.56439 20.1822 7.63672V7.90945C20.1822 7.98178 20.1534 8.05115 20.1023 8.10229C20.0511 8.15344 19.9818 8.18217 19.9094 8.18217ZM22.0307 7.30345C21.9949 7.30348 21.9594 7.29644 21.9263 7.28273C21.8932 7.26902 21.8632 7.2489 21.8379 7.22354L21.6451 7.03072C21.5954 6.97928 21.5679 6.91039 21.5685 6.83888C21.5692 6.76737 21.5978 6.69897 21.6484 6.6484C21.699 6.59784 21.7674 6.56916 21.8389 6.56854C21.9104 6.56791 21.9793 6.5954 22.0307 6.64508L22.2235 6.8379C22.2617 6.87604 22.2876 6.92463 22.2982 6.97753C22.3087 7.03042 22.3033 7.08525 22.2826 7.13508C22.262 7.18491 22.227 7.2275 22.1822 7.25746C22.1374 7.28743 22.0847 7.30343 22.0307 7.30345ZM22.9094 5.18217H22.6367C22.5644 5.18217 22.495 5.15344 22.4439 5.10229C22.3927 5.05115 22.364 4.98178 22.364 4.90945C22.364 4.83711 22.3927 4.76774 22.4439 4.7166C22.495 4.66545 22.5644 4.63672 22.6367 4.63672H22.9094C22.9818 4.63672 23.0511 4.66545 23.1023 4.7166C23.1534 4.76774 23.1822 4.83711 23.1822 4.90945C23.1822 4.98178 23.1534 5.05115 23.1023 5.10229C23.0511 5.15344 22.9818 5.18217 22.9094 5.18217ZM21.8379 3.25372C21.784 3.25371 21.7313 3.23771 21.6864 3.20774C21.6416 3.17777 21.6066 3.13518 21.586 3.08535C21.5654 3.03552 21.56 2.9807 21.5705 2.9278C21.581 2.8749 21.607 2.82631 21.6451 2.78817L21.8379 2.59536C21.8893 2.54568 21.9582 2.51819 22.0297 2.51881C22.1012 2.51943 22.1696 2.54811 22.2202 2.59868C22.2708 2.64924 22.2995 2.71765 22.3001 2.78915C22.3007 2.86066 22.2732 2.92955 22.2235 2.98099L22.0307 3.17381C22.0054 3.19918 21.9754 3.21931 21.9423 3.23302C21.9092 3.24674 21.8737 3.25377 21.8379 3.25372ZM20.294 4.79763C20.2401 4.79762 20.1873 4.78162 20.1425 4.75165C20.0977 4.72168 20.0627 4.67909 20.0421 4.62926C20.0214 4.57943 20.016 4.52461 20.0266 4.47171C20.0371 4.41881 20.063 4.37022 20.1012 4.33208L21.0803 3.35299C21.1317 3.30331 21.2006 3.27582 21.2721 3.27644C21.3436 3.27707 21.412 3.30575 21.4626 3.35631C21.5131 3.40688 21.5418 3.47528 21.5424 3.54679C21.5431 3.6183 21.5156 3.68719 21.4659 3.73863L20.4868 4.71772C20.4615 4.74308 20.4315 4.7632 20.3984 4.77691C20.3653 4.79062 20.3298 4.79766 20.294 4.79763ZM19.0913 6.00036C19.0373 6.00034 18.9846 5.98434 18.9398 5.95437C18.8949 5.92441 18.86 5.88182 18.8394 5.83199C18.8187 5.78216 18.8133 5.72733 18.8238 5.67444C18.8344 5.62154 18.8603 5.57295 18.8984 5.53481L19.3321 5.10117C19.3835 5.05149 19.4524 5.024 19.5239 5.02463C19.5954 5.02525 19.6638 5.05393 19.7144 5.1045C19.765 5.15506 19.7936 5.22346 19.7943 5.29497C19.7949 5.36648 19.7674 5.43537 19.7177 5.48681L19.2841 5.92045C19.2588 5.94581 19.2287 5.96593 19.1956 5.97964C19.1626 5.99335 19.1271 6.00039 19.0913 6.00036Z" fill="#70B6FC"/>
<path d="M4.36328 11.1821V14.7276C4.36328 14.7782 4.37739 14.8279 4.40401 14.871C4.43064 14.914 4.46874 14.9489 4.51404 14.9715C4.55934 14.9942 4.61006 15.0038 4.6605 14.9992C4.71095 14.9947 4.75913 14.9762 4.79965 14.9458L5.72692 14.2503L6.65419 14.9458C6.69471 14.9762 6.74289 14.9947 6.79333 14.9992C6.84378 15.0038 6.89449 14.9942 6.93979 14.9715C6.9851 14.9489 7.02319 14.914 7.04982 14.871C7.07645 14.8279 7.09055 14.7782 7.09055 14.7276V11.1821H4.36328Z" fill="#F49227"/>
<path d="M19.91 5.72767C20.3618 5.72767 20.7282 5.36136 20.7282 4.90949C20.7282 4.45762 20.3618 4.09131 19.91 4.09131C19.4581 4.09131 19.0918 4.45762 19.0918 4.90949C19.0918 5.36136 19.4581 5.72767 19.91 5.72767Z" fill="#53A6EA"/>
</svg>
