<svg width="55" height="55" viewBox="0 0 55 55" fill="none" xmlns="http://www.w3.org/2000/svg">
<path d="M27.5008 53.5236C41.002 53.5236 51.9469 48.4695 51.9469 42.2349C51.9469 36.0004 41.002 30.9463 27.5008 30.9463C13.9996 30.9463 3.05469 36.0004 3.05469 42.2349C3.05469 48.4695 13.9996 53.5236 27.5008 53.5236Z" fill="#9CD069"/>
<path d="M24.8731 38.2915C23.1537 38.8088 21.9863 39.8183 21.9863 40.9788C21.9863 42.6664 24.4551 44.0345 27.5004 44.0345C30.5457 44.0345 33.0145 42.6665 33.0145 40.9788C33.0145 39.8183 31.8471 38.8088 30.1277 38.2915H24.8731Z" fill="#7CAA46"/>
<path d="M43.3512 16.9246C43.3512 25.6787 27.5008 40.9785 27.5008 40.9785C27.5008 40.9785 11.6504 25.6787 11.6504 16.9246C11.6504 8.17061 18.7468 1.07422 27.5008 1.07422C36.2548 1.07422 43.3512 8.17072 43.3512 16.9246Z" fill="#33A6FB"/>
<path d="M27.4407 7.74854L30.1703 13.2794L36.274 14.1663L31.8574 18.4715L32.9 24.5505L27.4408 21.6804L21.9814 24.5505L23.0241 18.4715L18.6074 14.1663L24.7111 13.2794L27.4407 7.74854ZM47.5136 35.3831C46.3483 35.6415 45.5248 36.2726 45.5248 37.0106C45.5248 37.9784 46.9406 38.7632 48.6873 38.7632C50.4339 38.7632 51.85 37.9785 51.85 37.0106C51.85 36.2726 51.0264 35.6415 49.8612 35.3831H47.5136Z" fill="#FFDD4D"/>
<path d="M53.8766 28.7234C53.8766 31.5898 48.6864 36.5999 48.6864 36.5999C48.6864 36.5999 43.4961 31.5898 43.4961 28.7234C43.4961 25.857 45.8198 23.5332 48.6864 23.5332C51.5529 23.5332 53.8766 25.8568 53.8766 28.7234Z" fill="#F26161"/>
<path d="M48.6871 30.6373C49.8442 30.6373 50.7823 29.6992 50.7823 28.542C50.7823 27.3849 49.8442 26.4468 48.6871 26.4468C47.5299 26.4468 46.5918 27.3849 46.5918 28.542C46.5918 29.6992 47.5299 30.6373 48.6871 30.6373Z" fill="#F0F8FF"/>
<path d="M39.4966 50.5303C38.3314 50.7886 37.5078 51.4197 37.5078 52.1577C37.5078 53.1256 38.9237 53.9103 40.6705 53.9103C42.4173 53.9103 43.833 53.1257 43.833 52.1577C43.833 51.4197 43.0095 50.7886 41.8442 50.5303H39.4967H39.4966Z" fill="#FFDD4D"/>
<path d="M45.861 43.8704C45.861 46.7369 40.6707 51.7469 40.6707 51.7469C40.6707 51.7469 35.4805 46.7369 35.4805 43.8704C35.4805 41.0038 37.8042 38.6802 40.6707 38.6802C43.5371 38.6802 45.861 41.0039 45.861 43.8704Z" fill="#F26161"/>
<path d="M40.6714 45.7848C41.8286 45.7848 42.7667 44.8467 42.7667 43.6895C42.7667 42.5323 41.8286 41.5942 40.6714 41.5942C39.5143 41.5942 38.5762 42.5323 38.5762 43.6895C38.5762 44.8467 39.5143 45.7848 40.6714 45.7848Z" fill="#F0F8FF"/>
<path d="M5.1392 35.3828C3.97399 35.6412 3.15039 36.2723 3.15039 37.0103C3.15039 37.9781 4.56632 38.7628 6.31311 38.7628C8.05989 38.7628 9.47561 37.9782 9.47561 37.0103C9.47561 36.2723 8.65211 35.6412 7.4868 35.3828H5.1392Z" fill="#FFDD4D"/>
<path d="M1.12305 28.7234C1.12305 31.5898 6.31324 36.5999 6.31324 36.5999C6.31324 36.5999 11.5035 31.5898 11.5035 28.7234C11.5035 25.857 9.1798 23.5332 6.31324 23.5332C3.44669 23.5332 1.12305 25.8568 1.12305 28.7234Z" fill="#F26161"/>
<path d="M6.31401 30.6373C7.4712 30.6373 8.40928 29.6992 8.40928 28.542C8.40928 27.3849 7.4712 26.4468 6.31401 26.4468C5.15683 26.4468 4.21875 27.3849 4.21875 28.542C4.21875 29.6992 5.15683 30.6373 6.31401 30.6373Z" fill="#F0F8FF"/>
<path d="M13.1549 50.5303C11.9896 50.7886 11.166 51.4197 11.166 52.1577C11.166 53.1256 12.5821 53.9103 14.3287 53.9103C16.0754 53.9103 17.4913 53.1257 17.4913 52.1577C17.4913 51.4197 16.6677 50.7886 15.5024 50.5303H13.1549Z" fill="#FFDD4D"/>
<path d="M9.13867 43.8704C9.13867 46.7369 14.329 51.7469 14.329 51.7469C14.329 51.7469 19.5192 46.7369 19.5192 43.8704C19.5192 41.0038 17.1954 38.6802 14.329 38.6802C11.4625 38.6802 9.13867 41.0039 9.13867 43.8704Z" fill="#F26161"/>
<path d="M14.3296 45.7848C15.4868 45.7848 16.4249 44.8467 16.4249 43.6895C16.4249 42.5323 15.4868 41.5942 14.3296 41.5942C13.1725 41.5942 12.2344 42.5323 12.2344 43.6895C12.2344 44.8467 13.1725 45.7848 14.3296 45.7848Z" fill="#F0F8FF"/>
</svg>
