<svg width="18" height="22" viewBox="0 0 18 22" fill="none" xmlns="http://www.w3.org/2000/svg">
<path d="M8.74089 19.2301C8.81135 19.2952 8.90373 19.3313 8.99964 19.3313C9.09555 19.3313 9.18793 19.2952 9.25839 19.2301C11.6951 16.8901 16.6425 11.4669 16.6073 8.10763C16.6073 6.08996 15.8057 4.15493 14.379 2.72822C12.9523 1.30152 11.0173 0.5 8.99964 0.5C6.98197 0.5 5.04694 1.30152 3.62024 2.72822C2.19353 4.15493 1.39202 6.08996 1.39202 8.10763C1.35339 11.4613 6.30639 16.8965 8.74089 19.2301ZM5.75852 8.10763C5.93102 3.81125 12.069 3.81275 12.2408 8.10763C12.2408 8.96723 11.8993 9.79162 11.2915 10.3994C10.6836 11.0073 9.85924 11.3488 8.99964 11.3488C8.14004 11.3488 7.31565 11.0073 6.70782 10.3994C6.09999 9.79162 5.75852 8.96723 5.75852 8.10763ZM17.286 18.9564C17.2575 22.3479 0.741391 22.3479 0.712891 18.9564C0.712891 17.741 2.85489 17.0094 5.27852 16.6606C5.44877 16.8669 5.69289 17.1309 5.87477 17.3356C2.86989 17.6956 1.46327 18.476 1.46327 18.9564C1.46327 19.6914 4.40064 20.7571 8.99964 20.7571C13.5986 20.7571 16.536 19.6917 16.536 18.9564C16.536 18.4764 15.1294 17.696 12.1245 17.3356L12.387 17.0431C12.4995 16.9156 12.612 16.7881 12.7208 16.6606C15.1444 17.0094 17.286 17.7406 17.286 18.9564Z" fill="url(#paint0_linear_195_2435)"/>
<defs>
<linearGradient id="paint0_linear_195_2435" x1="0.712891" y1="11" x2="17.2864" y2="11" gradientUnits="userSpaceOnUse">
<stop stop-color="#00C0FF"/>
<stop offset="1" stop-color="#5558FF"/>
</linearGradient>
</defs>
</svg>
