<svg width="270" height="288" viewBox="0 0 270 288" fill="none" xmlns="http://www.w3.org/2000/svg">
<path d="M239.681 159.491L248.369 159.308L252.651 159.237C254.077 159.204 255.489 159.237 256.914 159.198L256.621 159.491L256.589 152.208L256.914 152.534L248.298 152.488C245.421 152.488 242.551 152.416 239.681 152.384L239.857 152.208C239.857 153.399 239.798 154.597 239.772 155.807L239.681 159.491ZM239.681 159.491L239.584 155.885C239.584 154.668 239.512 153.445 239.499 152.208V152.006H239.681C242.551 152.006 245.421 151.909 248.298 151.902L256.914 151.863H257.24V152.189L257.2 159.471V159.816H256.914C255.456 159.816 254.005 159.816 252.554 159.783L248.22 159.712L239.681 159.491Z" fill="#EBEBEB"/>
<path d="M249.295 168.672L257.983 168.489L262.265 168.418C263.69 168.385 265.109 168.418 266.527 168.379L266.235 168.672V161.389L266.56 161.715L257.944 161.669C255.067 161.669 252.197 161.597 249.327 161.565L249.503 161.389C249.503 162.58 249.444 163.778 249.418 164.988L249.295 168.672ZM249.295 168.672L249.203 165.066C249.171 163.849 249.125 162.626 249.112 161.389V161.213H249.295C252.165 161.181 255.034 161.116 257.911 161.109L266.527 161.07H266.853V161.396L266.814 168.678V168.971H266.527C265.076 168.971 263.618 168.971 262.167 168.938L257.833 168.867L249.295 168.672Z" fill="#EBEBEB"/>
<path d="M230.031 168.666H247.264V161.384H230.031V168.666Z" fill="#EBEBEB"/>
<path d="M3.40032 218.939L12.0949 218.757L16.377 218.685C17.7958 218.685 19.2145 218.685 20.6332 218.646L20.3469 218.939L20.3078 211.657L20.6332 211.982L12.0168 211.937C9.14679 211.937 6.27681 211.865 3.40032 211.832L3.57604 211.657C3.57604 212.848 3.52397 214.045 3.49143 215.256L3.40032 218.939ZM3.40032 218.939L3.30921 215.334C3.27667 214.117 3.23763 212.893 3.22461 211.657V211.481H3.40032C6.27681 211.449 9.14679 211.383 12.0168 211.377L20.6332 211.338H20.9586V211.663V218.946V219.238H20.6657C19.2145 219.238 17.7567 219.238 16.312 219.206L11.9647 219.121L3.40032 218.939Z" fill="#EBEBEB"/>
<path d="M13.0191 228.115H30.252V220.833H13.0191V228.115Z" fill="#EBEBEB"/>
<path d="M48.0517 82.9319L56.7462 82.7497L61.0284 82.6781C62.4471 82.6456 63.8658 82.6781 65.2846 82.6456L64.9982 82.9319L64.9592 75.6496L65.2846 75.975L56.6681 75.936C53.7982 75.936 50.9217 75.8644 48.0517 75.8253L48.2274 75.6496C48.2274 76.8406 48.1753 78.0445 48.1428 79.255L48.0517 82.9319ZM48.0517 82.9319L47.9606 79.3331C47.9606 78.1161 47.889 76.8861 47.876 75.6496V75.4739H48.0517C50.9217 75.4414 53.7982 75.3698 56.6681 75.3698L65.2846 75.3242H65.61V75.6496L65.5774 82.9319V83.2248H65.2911C63.8398 83.2248 62.3821 83.2248 60.9373 83.1857L56.603 83.1142L48.0517 82.9319Z" fill="#EBEBEB"/>
<path d="M12.9283 19.9863L30.1611 19.9863V12.704L12.9283 12.704V19.9863Z" fill="#EBEBEB"/>
<path d="M3.32187 29.1702L12.0099 29.0075L16.2921 28.9359C17.7173 28.9359 19.1295 28.9359 20.5548 28.9359L20.2619 29.2223V21.94L20.5873 22.2654L11.9643 22.1742C9.08786 22.1742 6.21788 22.1027 3.3479 22.0636L3.52361 21.8879C3.52361 23.0788 3.46504 24.2763 3.43901 25.4933L3.32187 29.1702ZM3.32187 29.1702L3.22425 25.5714C3.22425 24.3544 3.15266 23.1244 3.13965 21.8879V21.7122H3.32187C6.19185 21.7122 9.06182 21.6081 11.9383 21.6015L20.5548 21.5625H20.8801V21.8879L20.8411 29.1702V29.4631H20.5548C19.097 29.4631 17.6457 29.4631 16.1945 29.424L11.8602 29.3524L3.32187 29.1702Z" fill="#EBEBEB"/>
<path d="M239.681 19.9866L248.369 19.8044L252.651 19.7328C254.077 19.7328 255.489 19.7328 256.914 19.7328L256.621 20.0192L256.589 12.7368L256.914 13.0622L248.298 13.0232C245.421 13.0232 242.551 12.9516 239.681 12.9126L239.857 12.7368C239.857 13.9278 239.798 15.1252 239.772 16.3422L239.681 19.9866ZM239.681 19.9866L239.584 16.3878C239.584 15.1708 239.512 13.9408 239.499 12.7043V12.5286H239.681C242.551 12.5286 245.421 12.4245 248.298 12.418L256.914 12.3789H257.24V12.7368L257.2 20.0192V20.312H256.914C255.456 20.312 254.005 20.312 252.554 20.273L248.2 20.1688L239.681 19.9866Z" fill="#EBEBEB"/>
<path d="M212.44 111.053H229.673V103.77H212.44V111.053Z" fill="#EBEBEB"/>
<path d="M29.0344 57.9015C29.3576 57.7036 29.7292 57.5989 30.1082 57.5989C30.4872 57.5989 30.8588 57.7036 31.182 57.9015L31.7351 58.2204C31.9239 58.318 32.1126 58.4156 32.3078 58.5068C32.6514 58.6642 32.945 58.9134 33.1562 59.2268C33.3675 59.5402 33.4882 59.9058 33.5053 60.2834L33.5834 62.9256L42.1998 62.6588L42.1152 60.0166C42.1066 59.637 42.2028 59.2623 42.3935 58.9339C42.5841 58.6055 42.8616 58.3361 43.1955 58.1553C43.5715 57.9584 43.9365 57.7411 44.2889 57.5045C44.5983 57.2862 44.9622 57.1579 45.3401 57.1337C45.718 57.1096 46.0953 57.1907 46.43 57.3679L48.7533 58.6109L52.8272 51.0162L50.5039 49.7667C50.1707 49.5872 49.8939 49.3188 49.7043 48.9914C49.5147 48.6639 49.4198 48.2902 49.4301 47.9119C49.444 47.4777 49.431 47.043 49.391 46.6103C49.3492 46.2284 49.4162 45.8425 49.5843 45.497C49.7524 45.1515 50.0148 44.8607 50.3412 44.658L52.5864 43.3239L48.0309 36.0025L45.8052 37.3756C45.4832 37.5737 45.1126 37.6785 44.7347 37.6785C44.3567 37.6785 43.9861 37.5737 43.6641 37.3756C43.4884 37.265 43.2997 37.1609 43.1174 37.0633C42.9352 36.9656 42.74 36.8615 42.5447 36.7769C42.2002 36.6189 41.906 36.3688 41.6947 36.0541C41.4834 35.7394 41.3632 35.3725 41.3473 34.9938L41.2497 32.332L32.6332 32.5989L32.7178 35.202C32.7295 35.5822 32.6345 35.958 32.4435 36.287C32.2526 36.6159 31.9734 36.8848 31.6375 37.0633C31.2616 37.2603 30.8966 37.4776 30.5442 37.7141C30.2354 37.9338 29.8714 38.063 29.4931 38.0871C29.1149 38.1113 28.7374 38.0294 28.4031 37.8507L26.0798 36.6077L22.0059 44.261L24.3292 45.5105C24.6621 45.6896 24.9384 45.9582 25.127 46.2859C25.3156 46.6136 25.4089 46.9874 25.3965 47.3652C25.3882 47.7996 25.4034 48.2341 25.442 48.6668C25.4831 49.0487 25.4158 49.4343 25.2477 49.7796C25.0797 50.125 24.8177 50.4159 24.4919 50.6192L22.2467 52.0119L26.8022 59.3332L29.0344 57.9015ZM31.1885 44.3C31.8462 43.068 32.8545 42.0586 34.0858 41.3997C35.3172 40.7407 36.7163 40.4616 38.1063 40.5979C39.4962 40.7341 40.8146 41.2794 41.8946 42.1649C42.9746 43.0504 43.7677 44.2363 44.1737 45.5726C44.5797 46.9089 44.5803 48.3356 44.1754 49.6723C43.7705 51.0089 42.9784 52.1954 41.8991 53.0818C40.8198 53.9682 39.502 54.5147 38.1121 54.6521C36.7223 54.7894 35.3229 54.5116 34.091 53.8536C32.4407 52.9702 31.2082 51.4682 30.664 49.6771C30.1199 47.886 30.3085 45.9522 31.1885 44.3Z" fill="#EBEBEB"/>
<path d="M254.708 146.499C254.843 146.27 255.04 146.082 255.276 145.958C255.511 145.834 255.777 145.778 256.043 145.797H256.934C257.194 145.783 257.453 145.84 257.682 145.963C257.912 146.086 258.103 146.269 258.236 146.493L259.16 148.1L264.366 145.081L263.442 143.48C263.31 143.249 263.244 142.986 263.254 142.721C263.263 142.455 263.346 142.197 263.494 141.976C263.659 141.72 263.809 141.46 263.943 141.196C264.064 140.954 264.25 140.752 264.48 140.612C264.71 140.471 264.975 140.399 265.245 140.402H267.093V134.362H265.245C264.976 134.367 264.711 134.295 264.481 134.156C264.25 134.016 264.064 133.815 263.943 133.575C263.809 133.306 263.659 133.045 263.494 132.794C263.346 132.573 263.263 132.315 263.254 132.05C263.244 131.784 263.31 131.521 263.442 131.291L264.366 129.683L259.16 126.67L258.229 128.277C258.097 128.502 257.906 128.687 257.677 128.811C257.447 128.935 257.188 128.993 256.928 128.98C256.778 128.98 256.628 128.98 256.479 128.98C256.329 128.98 256.186 128.98 256.036 128.98C255.771 128.997 255.506 128.94 255.271 128.816C255.035 128.692 254.839 128.506 254.702 128.277L253.778 126.67L248.572 129.683L249.496 131.284C249.628 131.515 249.693 131.777 249.684 132.043C249.675 132.309 249.592 132.567 249.444 132.787C249.283 133.043 249.133 133.304 248.995 133.568C248.874 133.81 248.689 134.012 248.458 134.153C248.228 134.293 247.963 134.366 247.693 134.362H245.845V140.402H247.693C247.963 140.399 248.227 140.471 248.458 140.612C248.688 140.752 248.874 140.954 248.995 141.196C249.129 141.464 249.279 141.725 249.444 141.976C249.592 142.197 249.675 142.455 249.684 142.721C249.693 142.986 249.628 143.249 249.496 143.48L248.572 145.081L253.778 148.1L254.708 146.499ZM251.539 137.388C251.538 136.41 251.827 135.453 252.37 134.639C252.912 133.825 253.684 133.19 254.588 132.814C255.491 132.439 256.486 132.34 257.446 132.53C258.406 132.72 259.288 133.191 259.98 133.882C260.673 134.574 261.144 135.455 261.336 136.415C261.527 137.374 261.429 138.369 261.055 139.273C260.681 140.177 260.047 140.95 259.234 141.494C258.42 142.038 257.464 142.328 256.485 142.328C255.176 142.324 253.922 141.803 252.996 140.877C252.071 139.952 251.549 138.697 251.546 137.388H251.539Z" fill="#EBEBEB"/>
<path d="M4.4027 69.7921C4.63289 69.9265 4.82077 70.1228 4.94501 70.3586C5.06926 70.5945 5.12487 70.8604 5.10555 71.1263C5.10555 71.2694 5.10555 71.4191 5.10555 71.5688C5.10555 71.7185 5.10555 71.8682 5.10555 72.0178C5.11936 72.2777 5.06177 72.5364 4.93901 72.7658C4.81626 72.9953 4.63304 73.1867 4.40921 73.3194L2.80176 74.2435L5.82142 79.4498L7.40934 78.5713C7.64031 78.4404 7.90302 78.3759 8.16835 78.3851C8.43369 78.3943 8.6913 78.4768 8.91266 78.6234C9.16647 78.7861 9.42679 78.9422 9.69361 79.0789C9.93062 79.196 10.1304 79.3767 10.2706 79.6008C10.4108 79.8249 10.4859 80.0836 10.4876 80.3479V82.1962H16.5204V80.3479C16.5207 80.0841 16.5945 79.8256 16.7336 79.6014C16.8727 79.3772 17.0716 79.1963 17.3078 79.0789C17.5769 78.9426 17.8377 78.7904 18.0888 78.6234C18.3101 78.4768 18.5678 78.3943 18.8331 78.3851C19.0984 78.3759 19.3611 78.4404 19.5921 78.5713L21.1996 79.4954L24.2127 74.2891L22.6053 73.3585C22.3817 73.225 22.1983 73.0336 22.0746 72.8045C21.9509 72.5753 21.8914 72.317 21.9024 72.0569C21.9024 71.9072 21.9024 71.764 21.9024 71.6144C21.9024 71.4647 21.9024 71.315 21.9024 71.1718C21.8853 70.9063 21.9419 70.6412 22.066 70.4058C22.19 70.1704 22.3766 69.9738 22.6053 69.8377L24.2127 68.9136L21.1996 63.7073L19.5986 64.6314C19.3681 64.7638 19.1052 64.829 18.8395 64.8198C18.5739 64.8106 18.3161 64.7273 18.0953 64.5793C17.8437 64.4188 17.5833 64.2691 17.3143 64.1303C17.0728 64.0102 16.8702 63.8243 16.7297 63.594C16.5892 63.3637 16.5167 63.0984 16.5204 62.8287V60.9805H10.5006V62.8287C10.5035 63.0983 10.4306 63.3632 10.2903 63.5934C10.1499 63.8235 9.94764 64.0095 9.70662 64.1303C9.43767 64.2644 9.17691 64.4144 8.92568 64.5793C8.70361 64.7272 8.44479 64.8104 8.17815 64.8196C7.91152 64.8288 7.64758 64.7636 7.41585 64.6314L5.82142 63.7073L2.80176 68.9136L4.4027 69.7921ZM13.5137 66.6228C14.4922 66.6215 15.4491 66.9105 16.2634 67.4532C17.0776 67.9959 17.7125 68.7679 18.0879 69.6715C18.4632 70.5752 18.5621 71.5699 18.372 72.5297C18.1819 73.4896 17.7113 74.3715 17.0199 75.0638C16.3284 75.7562 15.4472 76.2279 14.4876 76.4193C13.528 76.6106 12.5331 76.5131 11.629 76.1389C10.7249 75.7648 9.95202 75.1308 9.40826 74.3173C8.8645 73.5038 8.57425 72.5473 8.57425 71.5688C8.57597 70.2587 9.09672 69.0026 10.0225 68.0757C10.9483 67.1487 12.2036 66.6263 13.5137 66.6228Z" fill="#EBEBEB"/>
<path d="M58.1447 288C84.2387 288 105.392 284.973 105.392 281.238C105.392 277.504 84.2387 274.477 58.1447 274.477C32.0508 274.477 10.8975 277.504 10.8975 281.238C10.8975 284.973 32.0508 288 58.1447 288Z" fill="#EBEBEB"/>
<path d="M230.083 208.774C225.268 198.875 216.84 193.806 207.306 196.597C197.772 199.389 196.333 212.652 203.401 215.997C210.469 219.343 217.582 209.581 221.33 207.57C225.079 205.559 230.083 208.774 230.083 208.774Z" fill="#2AD352"/>
<path d="M234.75 235.13C234.75 233.939 234.678 232.742 234.633 231.551C234.548 229.169 234.47 226.787 234.385 224.392C234.223 220.038 233.735 215.756 231.945 211.741C230.351 208.098 227.686 205.027 224.305 202.935C223.052 202.176 221.701 201.592 220.289 201.198C219.012 199.891 217.382 198.987 215.597 198.595C213.399 198.148 211.139 198.091 208.92 198.425C208.836 198.425 208.842 198.562 208.92 198.549C211.038 198.281 213.187 198.434 215.246 198.998C216.125 199.245 216.977 199.578 217.79 199.994C218.302 200.269 218.794 200.58 219.261 200.925C217.344 200.528 215.365 200.548 213.456 200.983C212.769 201.144 212.096 201.362 211.445 201.634C210.924 201.521 210.39 201.475 209.857 201.497C209.163 201.523 208.474 201.621 207.801 201.79C206.426 202.177 205.112 202.754 203.896 203.502C203.824 203.541 203.896 203.645 203.961 203.606C205.16 202.952 206.443 202.468 207.775 202.168C208.417 202.023 209.07 201.928 209.727 201.881C210.091 201.862 210.456 201.862 210.82 201.881C208.113 203.131 205.936 205.301 204.677 208.005C204.644 208.077 204.755 208.142 204.788 208.064C205.536 206.5 206.627 205.124 207.978 204.038C209.33 202.952 210.908 202.184 212.597 201.79C212.805 201.738 213.02 201.712 213.248 201.666C213.176 201.972 213.189 202.317 213.15 202.623C213.085 203.105 213.007 203.586 212.909 204.061C212.71 205.044 212.452 206.013 212.135 206.964C211.814 207.923 211.429 208.86 210.983 209.769C210.559 210.735 210.019 211.646 209.376 212.483C209.368 212.489 209.362 212.497 209.359 212.506C209.355 212.516 209.353 212.525 209.354 212.535C209.355 212.545 209.357 212.555 209.362 212.563C209.367 212.572 209.374 212.579 209.382 212.585C209.39 212.59 209.399 212.594 209.409 212.596C209.419 212.597 209.429 212.596 209.438 212.593C209.448 212.59 209.456 212.585 209.464 212.578C209.471 212.572 209.476 212.563 209.48 212.554C210.046 211.663 210.71 210.836 211.23 209.912C211.736 209.026 212.172 208.101 212.532 207.146C212.898 206.183 213.181 205.19 213.378 204.178C213.489 203.645 213.567 203.105 213.632 202.565C213.694 202.241 213.713 201.911 213.69 201.582C214.807 201.414 215.94 201.392 217.061 201.517C216.645 203.879 216.189 206.339 214.868 208.389C214.823 208.461 214.94 208.526 214.979 208.448C215.598 207.36 216.142 206.232 216.606 205.07C217.044 203.943 217.32 202.76 217.426 201.556C219.387 201.818 221.28 202.452 223.003 203.424C226.247 205.313 228.837 208.146 230.429 211.545C232.105 215.209 233.04 219.168 233.182 223.195C233.494 228.251 233.559 233.347 234.067 238.39C234.099 238.722 234.62 238.833 234.717 238.456C234.829 237.35 234.84 236.237 234.75 235.13Z" fill="#263238"/>
<path d="M223.615 202.149C223.297 201.763 222.929 201.422 222.521 201.134C222.124 200.808 221.721 200.483 221.298 200.21C220.464 199.629 219.541 199.19 218.564 198.908C218.486 198.908 218.454 199.019 218.564 199.032C219.545 199.275 220.464 199.718 221.265 200.333C221.669 200.633 222.053 200.945 222.43 201.277C222.765 201.628 223.136 201.942 223.536 202.214C223.576 202.305 223.667 202.221 223.615 202.149Z" fill="#263238"/>
<path d="M208.243 205.735C207.447 206.663 206.708 207.639 206.031 208.657C205.375 209.683 204.826 210.774 204.391 211.911C204.391 211.943 204.43 211.963 204.449 211.911C205.559 209.755 206.866 207.708 208.354 205.794C208.386 205.761 208.295 205.676 208.243 205.735Z" fill="#263238"/>
<path d="M218.603 204.757C218.502 205.375 218.321 205.976 218.063 206.547C217.797 207.098 217.49 207.629 217.146 208.135C217.146 208.167 217.145 208.2 217.198 208.174C218.031 207.219 218.563 206.039 218.727 204.783C218.74 204.718 218.616 204.672 218.603 204.757Z" fill="#263238"/>
<path d="M234.079 209.02C234.079 209.02 240.899 200.443 254.058 203.482C266.573 206.371 272.345 229.318 259.707 232.058C247.069 234.798 249.295 213.575 244.68 209.97C241.303 207.321 236.441 207.894 234.079 209.02Z" fill="#2AD352"/>
<path d="M264.231 216.016C263.372 215.264 262.466 214.569 261.517 213.934C260.623 213.324 259.651 212.838 258.627 212.489C258.113 211.711 257.538 210.973 256.909 210.283C255.747 209.037 254.407 207.969 252.933 207.114H253.323C254.019 207.078 254.717 207.078 255.412 207.114C256.818 207.203 258.196 207.544 259.48 208.122C259.551 208.122 259.604 208.038 259.532 208.012C258.232 207.45 256.872 207.039 255.478 206.788C254.799 206.668 254.11 206.609 253.421 206.613C253.051 206.615 252.682 206.636 252.315 206.678H252.1C250.893 206.07 249.62 205.603 248.306 205.285L248.677 205.181C249.322 205.042 249.973 204.935 250.629 204.862C251.941 204.712 253.266 204.732 254.573 204.921C254.586 204.916 254.597 204.908 254.605 204.897C254.613 204.886 254.618 204.872 254.618 204.859C254.618 204.845 254.613 204.832 254.605 204.821C254.597 204.809 254.586 204.801 254.573 204.797C253.252 204.641 251.92 204.588 250.59 204.641C249.474 204.671 248.364 204.815 247.278 205.07C246.487 204.924 245.686 204.832 244.883 204.797C240.288 204.602 235.284 206.313 232.459 210.088C229.635 213.862 229.082 218.899 228.554 223.455C227.783 229.805 227.615 236.213 228.053 242.595C228.053 242.966 228.613 242.901 228.62 242.543C228.795 237.135 228.984 231.72 229.505 226.331C229.745 223.832 230.006 221.327 230.422 218.854C230.727 216.725 231.339 214.651 232.238 212.697C233.215 210.701 234.762 209.039 236.683 207.921C238.609 206.811 240.759 206.144 242.976 205.968C244.961 205.802 246.959 205.989 248.879 206.521C248.81 206.906 248.799 207.299 248.846 207.686C248.891 208.175 248.99 208.657 249.139 209.125C249.279 209.575 249.462 210.011 249.686 210.426C249.933 210.875 250.239 211.279 250.512 211.728C250.551 211.793 250.662 211.728 250.61 211.656C250.069 210.881 249.719 209.989 249.588 209.053C249.51 208.61 249.458 208.162 249.432 207.712C249.432 207.374 249.432 207.029 249.432 206.691C251.52 207.334 253.469 208.362 255.178 209.723C255.497 209.984 255.829 210.25 256.109 210.53C255.675 210.935 255.299 211.397 254.989 211.903C254.539 212.562 254.147 213.259 253.818 213.986C253.214 215.445 252.805 216.976 252.601 218.542C252.601 218.62 252.718 218.646 252.725 218.542C252.97 217.02 253.479 215.554 254.228 214.207C254.574 213.532 254.963 212.88 255.393 212.255C255.614 211.943 255.842 211.604 256.083 211.324C256.213 211.162 256.356 210.992 256.473 210.817C258.022 212.333 259.287 214.114 260.209 216.075C259.58 216.76 259.064 217.539 258.679 218.385C258.208 219.223 257.797 220.093 257.449 220.988C256.813 222.742 256.287 224.532 255.875 226.351C255.875 226.429 255.985 226.455 255.998 226.351C256.401 224.517 257.028 222.74 257.866 221.06C258.263 220.24 258.679 219.427 259.115 218.626C259.57 217.882 259.982 217.112 260.352 216.322C261.228 218.244 261.738 220.312 261.855 222.42C261.855 222.498 261.985 222.492 261.979 222.42C261.737 219.113 260.725 215.909 259.024 213.062C259.831 213.407 260.638 213.713 261.413 214.155C262.402 214.688 263.321 215.344 264.146 216.108C264.205 216.166 264.289 216.069 264.231 216.016Z" fill="#263238"/>
<path d="M254.573 216.497C254.182 217.798 253.681 219.061 253.323 220.402C252.968 221.651 252.778 222.942 252.757 224.241C252.757 224.28 252.815 224.28 252.822 224.241C253.179 221.614 253.812 219.031 254.709 216.536C254.712 216.527 254.713 216.518 254.711 216.508C254.71 216.499 254.708 216.49 254.703 216.482C254.698 216.474 254.692 216.467 254.685 216.461C254.678 216.455 254.669 216.451 254.66 216.448C254.651 216.445 254.642 216.445 254.633 216.446C254.623 216.447 254.615 216.45 254.606 216.454C254.598 216.459 254.591 216.465 254.585 216.472C254.579 216.48 254.575 216.488 254.573 216.497Z" fill="#263238"/>
<path d="M262.916 213.275C262.399 212.777 261.812 212.358 261.172 212.032C260.522 211.736 259.847 211.496 259.155 211.316C259.077 211.316 259.05 211.421 259.155 211.44C259.84 211.614 260.497 211.884 261.107 212.241C261.729 212.563 262.327 212.931 262.897 213.34C262.903 213.339 262.91 213.336 262.915 213.331C262.92 213.326 262.923 213.32 262.925 213.313C262.927 213.307 262.928 213.3 262.926 213.293C262.924 213.286 262.921 213.28 262.916 213.275Z" fill="#263238"/>
<path d="M240.562 197.561C240.562 197.561 241.818 182.163 253.265 177.172C262.825 173.007 268.298 183.745 261.543 190.324C256.076 195.648 247.31 193.246 240.562 197.561Z" fill="#2AD352"/>
<path d="M259.428 180.158C257.684 180.863 255.982 181.67 254.332 182.572C252.963 183.357 251.643 184.227 250.382 185.175C250.57 184.785 250.733 184.381 250.928 183.997C251.228 183.405 251.547 182.82 251.898 182.26C252.602 181.093 253.45 180.019 254.423 179.064C254.482 179.012 254.384 178.921 254.332 178.98C253.363 179.935 252.474 180.969 251.677 182.071C251.283 182.63 250.92 183.21 250.59 183.809C250.252 184.363 249.992 184.961 249.816 185.585L249.692 185.676C247.693 187.269 245.861 189.062 244.225 191.026C244.258 190.876 244.284 190.727 244.329 190.583C244.544 189.835 244.772 189.087 245.019 188.345C245.514 186.766 246.21 185.257 247.089 183.854C247.134 183.789 247.024 183.724 246.978 183.796C246.08 185.199 245.28 186.662 244.583 188.176C244.263 188.914 243.998 189.676 243.789 190.453C243.624 190.959 243.5 191.477 243.418 192.002C242.917 192.653 242.429 193.271 241.967 193.955C237.054 200.951 234.587 209.411 233.995 217.884C233.821 220.407 233.778 222.938 233.865 225.466C233.876 228.017 234.094 230.564 234.515 233.08C234.548 233.243 234.795 233.191 234.795 233.034C234.737 230.809 234.509 228.596 234.463 226.37C234.421 224.138 234.493 221.905 234.678 219.68C235.037 215.236 235.875 210.844 237.177 206.58C238.507 202.21 240.467 198.058 242.995 194.254C243.477 194.156 243.958 194.026 244.433 193.902C244.909 193.779 245.579 193.61 246.145 193.453C247.244 193.169 248.312 192.777 249.334 192.282C249.341 192.278 249.347 192.272 249.351 192.266C249.356 192.259 249.359 192.252 249.361 192.244C249.363 192.236 249.363 192.228 249.362 192.22C249.361 192.212 249.358 192.204 249.353 192.197C249.349 192.191 249.344 192.185 249.337 192.18C249.33 192.175 249.323 192.172 249.315 192.17C249.307 192.168 249.299 192.168 249.291 192.169C249.283 192.171 249.276 192.174 249.269 192.178C248.254 192.728 247.154 193.104 246.015 193.291C245.117 193.473 244.186 193.584 243.288 193.792C244.121 192.581 245.006 191.41 245.95 190.291C248.131 190.488 250.33 190.326 252.458 189.809C253.59 189.535 254.703 189.187 255.79 188.768C256.942 188.325 258.022 187.759 259.154 187.284C259.169 187.277 259.18 187.265 259.186 187.249C259.191 187.234 259.191 187.217 259.184 187.203C259.177 187.188 259.164 187.177 259.149 187.171C259.134 187.166 259.117 187.166 259.102 187.173C257.053 188.29 254.816 189.023 252.503 189.334C250.461 189.662 248.396 189.832 246.327 189.842C247.141 188.911 247.98 188 248.878 187.147C251.885 184.284 255.458 181.655 259.415 180.281C259.538 180.255 259.499 180.132 259.428 180.158Z" fill="#263238"/>
<path d="M250.109 180.209C249.591 180.857 249.121 181.543 248.703 182.259C248.277 183.014 247.938 183.816 247.694 184.648C247.694 184.648 247.694 184.693 247.74 184.648C248.124 183.893 248.443 183.105 248.833 182.357C249.211 181.615 249.67 180.916 250.2 180.274C250.252 180.229 250.154 180.144 250.109 180.209Z" fill="#263238"/>
<path d="M260.756 185.332C260.012 185.746 259.224 186.076 258.406 186.315C257.623 186.577 256.826 186.794 256.018 186.966C255.979 186.966 255.986 187.037 256.018 187.031C256.862 186.943 257.693 186.761 258.498 186.491C259.29 186.189 260.063 185.842 260.814 185.45C260.893 185.404 260.827 185.293 260.756 185.332Z" fill="#263238"/>
<path d="M231.658 194.801C231.586 195.452 229.927 189.204 220.243 183.653C211.457 178.609 200.96 165.489 209.583 157.198C216.54 150.508 234.873 165.092 231.658 194.801Z" fill="#2AD352"/>
<path d="M238.323 230.666C238.181 224.162 237.668 217.672 236.787 211.227C236.021 205.295 234.65 199.457 232.693 193.805C231.977 191.768 231.151 189.771 230.259 187.799C230.308 187.031 230.295 186.26 230.22 185.495C230.175 184.506 230.084 183.543 229.992 182.54C229.901 181.538 229.804 180.588 229.687 179.592C229.569 178.597 229.361 177.64 229.322 176.657C229.325 176.647 229.326 176.637 229.325 176.627C229.323 176.617 229.319 176.607 229.313 176.599C229.307 176.59 229.299 176.584 229.29 176.579C229.281 176.574 229.271 176.572 229.26 176.572C229.25 176.572 229.24 176.574 229.231 176.579C229.222 176.584 229.214 176.59 229.208 176.599C229.202 176.607 229.198 176.617 229.196 176.627C229.194 176.637 229.195 176.647 229.198 176.657C229.391 177.686 229.507 178.728 229.543 179.774C229.621 180.725 229.674 181.675 229.7 182.625C229.732 183.582 229.7 184.532 229.7 185.488C229.7 185.827 229.7 186.191 229.667 186.562C228.762 184.61 227.786 182.742 226.725 180.9C227.376 176.885 226.53 172.687 225.71 168.763C225.71 168.685 225.574 168.724 225.593 168.802C225.999 170.852 226.217 172.934 226.244 175.024C226.283 176.67 226.205 178.317 226.198 179.963C225.964 179.573 225.736 179.176 225.495 178.785C224.239 176.735 222.892 174.724 221.474 172.778C221.59 171.827 221.559 170.864 221.382 169.921C221.223 168.863 220.988 167.817 220.68 166.791C220.367 165.769 220.029 164.761 219.606 163.772C219.183 162.782 218.63 161.787 218.226 160.771C218.187 160.68 218.063 160.771 218.109 160.817C218.626 161.781 219.032 162.801 219.319 163.856C219.643 164.844 219.908 165.85 220.113 166.869C220.322 167.885 220.484 168.906 220.628 169.941C220.725 170.592 220.784 171.327 220.901 172.011C218.829 169.227 216.565 166.591 214.126 164.123C214.068 164.064 213.983 164.156 214.035 164.214C217.726 168.363 221.023 172.847 223.882 177.607L224.187 178.141C223.654 177.809 223.042 177.542 222.541 177.262L219.723 175.714L216.977 174.217C216.508 173.956 216.046 173.683 215.564 173.436C214.993 173.181 214.445 172.878 213.924 172.531C213.911 172.522 213.895 172.518 213.879 172.52C213.864 172.523 213.849 172.531 213.84 172.544C213.83 172.557 213.826 172.573 213.829 172.589C213.831 172.605 213.84 172.619 213.853 172.629C214.783 173.143 215.61 173.93 216.508 174.477C217.406 175.024 218.33 175.609 219.274 176.137C220.992 177.093 222.86 177.783 224.558 178.779C225.73 180.835 226.814 182.942 227.812 185.098C226.784 184.447 225.736 183.796 224.669 183.211C223.986 182.827 223.296 182.449 222.599 182.085C221.908 181.764 221.253 181.369 220.647 180.907C220.635 180.901 220.62 180.899 220.607 180.902C220.593 180.904 220.581 180.911 220.571 180.921C220.562 180.931 220.556 180.944 220.554 180.958C220.553 180.972 220.556 180.986 220.562 180.998C221.69 182.017 222.94 182.892 224.285 183.601C225.528 184.33 226.784 185.033 228.079 185.664C229.112 187.937 230.044 190.248 230.877 192.595C234.951 204.133 236.448 216.381 237.164 228.545C237.379 232.169 237.489 235.794 237.535 239.426C237.581 243.057 237.385 246.676 237.392 250.3C237.392 250.405 237.568 250.431 237.587 250.3C238.023 247.086 238.095 243.793 238.238 240.578C238.381 237.363 238.394 233.966 238.323 230.666Z" fill="#263238"/>
<path d="M220.732 178.433C218.965 177.655 217.248 176.768 215.59 175.778C213.909 174.828 212.278 173.792 210.703 172.674C210.703 172.674 210.651 172.674 210.67 172.719C212.158 173.91 213.726 174.997 215.363 175.973C217.078 176.931 218.852 177.781 220.673 178.518C220.751 178.576 220.81 178.466 220.732 178.433Z" fill="#263238"/>
<path d="M223.537 165.392C223.394 164.832 223.218 164.279 223.029 163.733C223.035 163.723 223.038 163.711 223.038 163.7C223.038 163.689 223.035 163.677 223.029 163.667C222.906 163.355 222.776 163.017 222.652 162.737L222.606 162.62C222.606 162.561 222.554 162.503 222.535 162.444C222.515 162.385 222.496 162.444 222.502 162.444C222.509 162.444 222.561 162.659 222.593 162.763C222.608 162.822 222.625 162.881 222.645 162.939C223.287 165.091 223.768 167.288 224.084 169.512C224.084 169.583 224.201 169.583 224.194 169.512C224.105 168.121 223.885 166.742 223.537 165.392Z" fill="#263238"/>
<path d="M248.553 233.008L247.863 241.195L245.748 266.165H223.094L220.979 241.195L220.289 233.008H248.553Z" fill="#37474F"/>
<path d="M248.553 233.008L247.863 241.195H220.979L220.289 233.008H248.553Z" fill="#263238"/>
<path d="M250.772 229.723H218.063V237.578H250.772V229.723Z" fill="#37474F"/>
<path d="M3.14062 266.165L36.0966 266.009L69.0525 265.95L134.964 265.84L200.876 265.944L233.832 266.003L266.788 266.165L233.832 266.321L200.876 266.38L134.964 266.491L69.0525 266.38L36.0966 266.321L3.14062 266.165Z" fill="#263238"/>
<path d="M189.962 17.0117H79.979C78.5005 17.0211 77.0385 17.3222 75.6767 17.8978C74.315 18.4734 73.0802 19.3122 72.0433 20.366C71.0064 21.4199 70.1877 22.668 69.6342 24.039C69.0807 25.4099 68.8033 26.8766 68.8179 28.355V254.829C68.7919 257.809 69.9503 260.677 72.0383 262.803C74.1264 264.929 76.9732 266.139 79.9529 266.166H189.936C191.414 266.156 192.876 265.855 194.238 265.279C195.6 264.704 196.834 263.866 197.872 262.813C198.91 261.76 199.73 260.513 200.286 259.143C200.841 257.774 201.121 256.308 201.11 254.829V28.355C201.123 26.8782 200.845 25.4133 200.292 24.044C199.738 22.6746 198.921 21.4277 197.886 20.3744C196.85 19.3211 195.618 18.482 194.258 17.905C192.899 17.328 191.439 17.0245 189.962 17.0117ZM194.147 247.827C194.147 253.788 189.682 258.61 184.177 258.61H85.758C80.2393 258.61 75.7749 253.788 75.7749 247.827V36.9324C75.7749 24.7886 80.2393 24.1964 85.758 24.1964H105.47C106.616 24.1964 107.553 25.498 107.553 27.112V27.8083C107.553 31.6089 109.622 31.6089 112.186 31.6089H157.742C160.299 31.6089 162.356 31.6089 162.356 27.8148V27.112C162.356 25.498 163.273 24.1964 164.438 24.1964H184.157C189.663 24.1964 194.127 25.8104 194.127 36.9324L194.147 247.827Z" fill="#263238"/>
<path d="M141.179 26.8777H128.743C128.642 26.8777 128.542 26.8578 128.449 26.8192C128.355 26.7806 128.271 26.724 128.2 26.6527C128.128 26.5814 128.072 26.4968 128.033 26.4036C127.994 26.3104 127.975 26.2106 127.975 26.1097C127.975 25.9061 128.056 25.7107 128.2 25.5667C128.344 25.4227 128.539 25.3418 128.743 25.3418H141.179C141.383 25.3418 141.578 25.4227 141.722 25.5667C141.866 25.7107 141.947 25.9061 141.947 26.1097C141.947 26.2106 141.927 26.3104 141.889 26.4036C141.85 26.4968 141.793 26.5814 141.722 26.6527C141.651 26.724 141.566 26.7806 141.473 26.8192C141.38 26.8578 141.28 26.8777 141.179 26.8777Z" fill="white"/>
<path d="M194.185 36.9332V247.828C194.185 253.789 189.721 258.611 184.215 258.611H85.7575C80.2388 258.611 75.7744 253.789 75.7744 247.828V36.9332C75.7744 24.7895 80.2388 24.1973 85.7575 24.1973H105.47C106.615 24.1973 107.552 25.4988 107.552 27.1128V27.8091C107.552 31.6097 109.622 31.6097 112.186 31.6097H157.741C160.305 31.6097 162.355 31.6097 162.355 27.8156V27.1128C162.355 25.4988 163.279 24.1973 164.444 24.1973H184.163C189.688 24.1973 194.185 25.8112 194.185 36.9332Z" fill="white"/>
<path d="M87.7561 44.9831L84.2549 41.7097L87.7561 38.4297L88.2963 39.0089L85.4198 41.7097L88.2963 44.4104L87.7561 44.9831Z" fill="#C7C7C7"/>
<path d="M184.984 39.6645C184.984 39.8009 184.944 39.9343 184.868 40.0477C184.792 40.1612 184.684 40.2496 184.558 40.3018C184.432 40.354 184.294 40.3677 184.16 40.3411C184.026 40.3144 183.903 40.2487 183.807 40.1523C183.71 40.0558 183.644 39.9329 183.618 39.7991C183.591 39.6652 183.605 39.5265 183.657 39.4005C183.709 39.2744 183.798 39.1667 183.911 39.0909C184.025 39.0151 184.158 38.9746 184.294 38.9746C184.385 38.9738 184.475 38.991 184.559 39.0254C184.643 39.0597 184.72 39.1105 184.784 39.1748C184.848 39.239 184.899 39.3154 184.933 39.3995C184.968 39.4835 184.985 39.5736 184.984 39.6645Z" fill="#C7C7C7"/>
<path d="M184.984 42.1117C184.984 42.2482 184.944 42.3816 184.868 42.495C184.792 42.6084 184.684 42.6969 184.558 42.7491C184.432 42.8013 184.294 42.8149 184.16 42.7883C184.026 42.7617 183.903 42.696 183.807 42.5995C183.71 42.5031 183.644 42.3801 183.618 42.2463C183.591 42.1125 183.605 41.9738 183.657 41.8478C183.709 41.7217 183.798 41.614 183.911 41.5382C184.025 41.4624 184.158 41.4219 184.294 41.4219C184.385 41.421 184.475 41.4383 184.559 41.4726C184.643 41.507 184.72 41.5578 184.784 41.622C184.848 41.6862 184.899 41.7626 184.933 41.8467C184.968 41.9308 184.985 42.0209 184.984 42.1117Z" fill="#C7C7C7"/>
<path d="M184.984 44.559C184.984 44.6954 184.944 44.8288 184.868 44.9423C184.792 45.0557 184.684 45.1441 184.558 45.1963C184.432 45.2485 184.294 45.2622 184.16 45.2356C184.026 45.209 183.903 45.1433 183.807 45.0468C183.71 44.9503 183.644 44.8274 183.618 44.6936C183.591 44.5598 183.605 44.4211 183.657 44.295C183.709 44.169 183.798 44.0612 183.911 43.9854C184.025 43.9096 184.158 43.8692 184.294 43.8692C184.385 43.8683 184.475 43.8856 184.559 43.9199C184.643 43.9543 184.72 44.0051 184.784 44.0693C184.848 44.1335 184.899 44.2099 184.933 44.294C184.968 44.3781 184.985 44.4682 184.984 44.559Z" fill="#C7C7C7"/>
<path d="M102.066 28.9346L101.878 29.1233L101.767 29.2274C101.279 28.7426 100.62 28.4704 99.9318 28.4704C99.2441 28.4704 98.5843 28.7426 98.0966 29.2274L97.9924 29.1168L97.8037 28.928L98.0445 28.7133C98.2191 28.578 98.4065 28.4603 98.6042 28.3619C98.8381 28.2438 99.0881 28.1605 99.3461 28.1146C99.4665 28.0903 99.5882 28.073 99.7105 28.0625H100.036H100.283C100.516 28.0904 100.746 28.145 100.967 28.2252C101.124 28.2848 101.276 28.3566 101.422 28.44C101.576 28.5284 101.722 28.6308 101.858 28.7458L102.06 28.928L102.066 28.9346Z" fill="#C7C7C7"/>
<path d="M98.7024 29.8267L98.3965 29.5274C98.8049 29.122 99.3569 28.8945 99.9323 28.8945C100.508 28.8945 101.06 29.122 101.468 29.5274L101.162 29.8267C100.836 29.5017 100.393 29.3192 99.9323 29.3192C99.4714 29.3192 99.0292 29.5017 98.7024 29.8267Z" fill="#C7C7C7"/>
<path d="M100.863 30.1327L100.564 30.4256C100.478 30.3414 100.376 30.275 100.264 30.2303C100.153 30.1857 100.033 30.1635 99.913 30.1653C99.7921 30.1629 99.6719 30.1854 99.56 30.2313C99.4481 30.2771 99.3467 30.3455 99.2623 30.4321C99.1646 30.328 99.0605 30.2303 98.9629 30.1327C99.0846 30.0027 99.2318 29.899 99.3952 29.8281C99.5587 29.7573 99.7349 29.7207 99.913 29.7207C100.091 29.7207 100.267 29.7573 100.431 29.8281C100.594 29.899 100.741 30.0027 100.863 30.1327Z" fill="#C7C7C7"/>
<path d="M100.205 30.6985C100.205 30.771 100.176 30.8406 100.125 30.8918C100.074 30.9431 100.004 30.9719 99.9319 30.9719C99.8964 30.9719 99.8611 30.9648 99.8283 30.951C99.7955 30.9371 99.7658 30.9169 99.7409 30.8914C99.7161 30.866 99.6965 30.8358 99.6835 30.8026C99.6705 30.7695 99.6643 30.7341 99.6651 30.6985C99.6651 30.6278 99.6932 30.5599 99.7433 30.5099C99.7933 30.4598 99.8612 30.4317 99.9319 30.4317C99.9675 30.4309 100.003 30.4371 100.036 30.4501C100.069 30.4632 100.099 30.4827 100.125 30.5075C100.15 30.5324 100.171 30.5621 100.184 30.5949C100.198 30.6277 100.205 30.6629 100.205 30.6985Z" fill="#C7C7C7"/>
<path d="M83.4932 29.5062C83.4932 29.3502 83.5395 29.1977 83.6264 29.068C83.7132 28.9384 83.8365 28.8375 83.9808 28.7781C84.1251 28.7187 84.2837 28.7034 84.4367 28.7344C84.5896 28.7653 84.7299 28.8409 84.8398 28.9517C84.9496 29.0625 85.0241 29.2034 85.0537 29.3566C85.0834 29.5098 85.0669 29.6683 85.0063 29.8121C84.9457 29.9558 84.8437 30.0784 84.7134 30.1641C84.583 30.2498 84.4301 30.2949 84.2741 30.2936C84.171 30.2936 84.0689 30.2732 83.9738 30.2336C83.8786 30.1939 83.7922 30.1358 83.7196 30.0626C83.647 29.9894 83.5896 29.9025 83.5508 29.807C83.5119 29.7115 83.4923 29.6093 83.4932 29.5062Z" fill="#C7C7C7"/>
<path d="M85.9601 29.5069C85.9626 29.3517 86.011 29.2008 86.0991 29.073C86.1871 28.9452 86.311 28.8463 86.4551 28.7887C86.5992 28.7311 86.7571 28.7173 86.909 28.7492C87.0609 28.781 87.1999 28.857 87.3088 28.9676C87.4176 29.0783 87.4913 29.2186 87.5207 29.371C87.55 29.5234 87.5337 29.681 87.4737 29.8242C87.4137 29.9673 87.3128 30.0895 87.1836 30.1755C87.0544 30.2614 86.9027 30.3073 86.7475 30.3073C86.643 30.3073 86.5395 30.2866 86.4431 30.2462C86.3467 30.2058 86.2594 30.1466 86.1861 30.0721C86.1128 29.9976 86.055 29.9093 86.0162 29.8122C85.9774 29.7152 85.9583 29.6114 85.9601 29.5069Z" fill="#C7C7C7"/>
<path d="M88.4327 29.5069C88.4353 29.3517 88.4836 29.2008 88.5717 29.073C88.6598 28.9452 88.7837 28.8463 88.9277 28.7887C89.0718 28.7311 89.2297 28.7173 89.3816 28.7492C89.5335 28.781 89.6726 28.857 89.7814 28.9676C89.8903 29.0783 89.964 29.2186 89.9933 29.371C90.0227 29.5234 90.0063 29.681 89.9464 29.8242C89.8864 29.9673 89.7855 30.0895 89.6563 30.1755C89.5271 30.2614 89.3754 30.3073 89.2202 30.3073C89.1157 30.3073 89.0122 30.2866 88.9158 30.2462C88.8194 30.2058 88.732 30.1466 88.6587 30.0721C88.5854 29.9976 88.5277 29.9093 88.4889 29.8122C88.4501 29.7152 88.431 29.6114 88.4327 29.5069Z" fill="#C7C7C7"/>
<path d="M90.9055 29.5068C90.9081 29.3514 90.9566 29.2002 91.045 29.0723C91.1333 28.9444 91.2576 28.8455 91.4021 28.7881C91.5465 28.7307 91.7048 28.7173 91.8568 28.7497C92.0089 28.782 92.1479 28.8587 92.2565 28.97C92.3651 29.0813 92.4383 29.2222 92.4669 29.375C92.4955 29.5278 92.4782 29.6856 92.4172 29.8287C92.3563 29.9717 92.2544 30.0934 92.1243 30.1786C91.9943 30.2638 91.8419 30.3086 91.6865 30.3073C91.5822 30.3073 91.4791 30.2865 91.383 30.246C91.287 30.2056 91.2 30.1463 91.1272 30.0717C91.0545 29.9971 90.9973 29.9087 90.9593 29.8117C90.9212 29.7147 90.9029 29.611 90.9055 29.5068Z" fill="#C7C7C7"/>
<path d="M93.3792 29.5068C93.3817 29.3514 93.4302 29.2002 93.5186 29.0723C93.607 28.9444 93.7312 28.8455 93.8757 28.7881C94.0202 28.7307 94.1784 28.7173 94.3304 28.7497C94.4825 28.782 94.6216 28.8587 94.7301 28.97C94.8387 29.0813 94.9119 29.2222 94.9405 29.375C94.9691 29.5278 94.9518 29.6856 94.8909 29.8287C94.8299 29.9717 94.728 30.0934 94.5979 30.1786C94.4679 30.2638 94.3156 30.3086 94.1601 30.3073C94.0559 30.3073 93.9527 30.2865 93.8567 30.246C93.7606 30.2056 93.6736 30.1463 93.6009 30.0717C93.5281 29.9971 93.471 29.9087 93.4329 29.8117C93.3948 29.7147 93.3765 29.611 93.3792 29.5068Z" fill="#C7C7C7"/>
<path d="M185.276 31.2254H178.879V28.2578H185.276V31.2254ZM179.217 30.8935H184.944V28.5897H179.217V30.8935Z" fill="#C7C7C7"/>
<path d="M183.533 28.7656H179.413V30.718H183.533V28.7656Z" fill="#C7C7C7"/>
<path d="M185.844 28.9473H185.277V30.5287H185.844V28.9473Z" fill="#C7C7C7"/>
<path d="M93.7634 245.718H92.8588V249.851H91.1798V247.742H88.1992V249.851H86.5202V245.718H85.6221L89.6895 241.508L93.7634 245.718Z" fill="#EBEBEB"/>
<path d="M184.314 241.508H174.5V242.907H184.314V241.508Z" fill="#EBEBEB"/>
<path d="M184.314 244.977H174.5V246.376H184.314V244.977Z" fill="#EBEBEB"/>
<path d="M184.314 248.445H174.5V249.845H184.314V248.445Z" fill="#EBEBEB"/>
<path d="M137.756 245.12L134.964 248.1L132.172 245.12L132.666 244.664L134.964 247.111L137.261 244.664L137.756 245.12Z" fill="#EBEBEB"/>
<path d="M134.964 251.178C133.961 251.178 132.981 250.881 132.148 250.324C131.314 249.767 130.664 248.975 130.28 248.049C129.897 247.122 129.796 246.103 129.992 245.12C130.188 244.136 130.67 243.233 131.379 242.524C132.088 241.815 132.992 241.332 133.975 241.136C134.959 240.941 135.978 241.041 136.904 241.425C137.831 241.809 138.622 242.458 139.179 243.292C139.736 244.126 140.034 245.106 140.034 246.109C140.03 247.452 139.495 248.74 138.545 249.69C137.595 250.64 136.308 251.175 134.964 251.178ZM134.964 241.709C134.094 241.709 133.244 241.967 132.52 242.451C131.797 242.934 131.233 243.621 130.9 244.425C130.567 245.229 130.48 246.114 130.649 246.967C130.819 247.82 131.238 248.604 131.853 249.219C132.469 249.835 133.253 250.254 134.106 250.424C134.959 250.593 135.844 250.506 136.648 250.173C137.452 249.84 138.139 249.276 138.622 248.553C139.105 247.829 139.364 246.979 139.364 246.109C139.364 244.942 138.9 243.823 138.075 242.998C137.25 242.173 136.131 241.709 134.964 241.709Z" fill="#EBEBEB"/>
<path d="M127.396 227.893C127.396 228.228 127.297 228.555 127.111 228.833C126.925 229.112 126.66 229.328 126.351 229.456C126.042 229.585 125.702 229.618 125.374 229.553C125.045 229.487 124.744 229.326 124.507 229.09C124.271 228.853 124.11 228.552 124.044 228.223C123.979 227.895 124.012 227.555 124.141 227.246C124.269 226.937 124.485 226.672 124.764 226.486C125.042 226.3 125.369 226.201 125.704 226.201C125.926 226.2 126.147 226.244 126.352 226.328C126.558 226.413 126.745 226.538 126.902 226.695C127.059 226.852 127.184 227.039 127.269 227.245C127.353 227.45 127.397 227.671 127.396 227.893Z" fill="#DBDBDB"/>
<path d="M137.71 227.894C137.71 228.401 137.56 228.897 137.278 229.319C136.996 229.74 136.596 230.069 136.127 230.263C135.659 230.457 135.143 230.508 134.646 230.409C134.149 230.31 133.692 230.066 133.333 229.707C132.974 229.349 132.73 228.892 132.631 228.394C132.532 227.897 132.583 227.381 132.777 226.913C132.971 226.444 133.3 226.044 133.722 225.762C134.143 225.48 134.639 225.33 135.146 225.33C135.826 225.33 136.478 225.6 136.959 226.081C137.44 226.562 137.71 227.214 137.71 227.894Z" fill="#2AD352"/>
<path d="M146.282 227.893C146.282 228.228 146.182 228.555 145.996 228.833C145.81 229.112 145.546 229.328 145.237 229.456C144.928 229.585 144.588 229.618 144.259 229.553C143.931 229.487 143.63 229.326 143.393 229.09C143.156 228.853 142.995 228.552 142.93 228.223C142.865 227.895 142.898 227.555 143.026 227.246C143.154 226.937 143.371 226.672 143.649 226.486C143.928 226.3 144.255 226.201 144.59 226.201C144.812 226.2 145.032 226.244 145.238 226.328C145.444 226.413 145.631 226.538 145.788 226.695C145.945 226.852 146.07 227.039 146.155 227.245C146.239 227.45 146.282 227.671 146.282 227.893Z" fill="#DBDBDB"/>
<path d="M157.436 180.75H111.764V195.276H157.436V180.75Z" fill="#2AD352"/>
<path d="M124.552 190.049V186.144C124.551 186.096 124.56 186.048 124.578 186.003C124.596 185.959 124.623 185.918 124.657 185.884C124.691 185.85 124.732 185.823 124.776 185.805C124.821 185.787 124.869 185.778 124.917 185.779C124.965 185.778 125.013 185.787 125.058 185.805C125.103 185.823 125.144 185.85 125.179 185.884C125.213 185.918 125.241 185.958 125.259 186.003C125.278 186.047 125.288 186.095 125.288 186.144V189.704H127.097C127.195 189.704 127.29 189.743 127.359 189.812C127.429 189.882 127.468 189.976 127.468 190.075C127.468 190.173 127.429 190.267 127.359 190.337C127.29 190.406 127.195 190.446 127.097 190.446H124.917C124.866 190.446 124.816 190.435 124.769 190.415C124.723 190.395 124.681 190.365 124.647 190.328C124.612 190.29 124.586 190.246 124.57 190.198C124.554 190.15 124.548 190.099 124.552 190.049Z" fill="white"/>
<path d="M131.71 186.327C132.144 186.781 132.386 187.385 132.386 188.013C132.386 188.641 132.144 189.244 131.71 189.698C131.509 189.921 131.265 190.1 130.991 190.223C130.718 190.347 130.422 190.412 130.122 190.414C129.815 190.414 129.512 190.35 129.231 190.226C128.95 190.103 128.697 189.923 128.489 189.698C128.062 189.241 127.825 188.638 127.825 188.013C127.825 187.387 128.062 186.785 128.489 186.327C128.696 186.101 128.948 185.92 129.23 185.797C129.511 185.674 129.815 185.61 130.122 185.611C130.422 185.613 130.719 185.677 130.992 185.8C131.266 185.924 131.51 186.103 131.71 186.327ZM131.625 188.013C131.625 187.581 131.463 187.165 131.17 186.848C131.038 186.7 130.876 186.582 130.696 186.5C130.515 186.419 130.32 186.375 130.122 186.373C129.919 186.372 129.718 186.414 129.531 186.496C129.345 186.577 129.179 186.697 129.042 186.848C128.747 187.164 128.584 187.58 128.586 188.013C128.582 188.443 128.745 188.859 129.042 189.171C129.178 189.322 129.345 189.443 129.531 189.526C129.717 189.609 129.918 189.652 130.122 189.653C130.32 189.649 130.516 189.604 130.696 189.522C130.877 189.439 131.038 189.319 131.17 189.171C131.454 188.853 131.607 188.439 131.599 188.013H131.625Z" fill="white"/>
<path d="M133.468 188.018C133.478 187.561 133.616 187.116 133.865 186.733C134.114 186.349 134.464 186.043 134.877 185.847C135.291 185.651 135.75 185.574 136.204 185.624C136.659 185.674 137.09 185.85 137.451 186.131C137.53 186.193 137.581 186.284 137.594 186.384C137.606 186.484 137.578 186.585 137.516 186.665C137.454 186.744 137.362 186.796 137.262 186.808C137.162 186.82 137.061 186.792 136.982 186.73C136.682 186.498 136.314 186.372 135.934 186.372C135.711 186.368 135.49 186.41 135.283 186.494C135.076 186.578 134.888 186.702 134.73 186.86C134.572 187.007 134.446 187.186 134.36 187.384C134.274 187.582 134.229 187.796 134.229 188.012C134.229 188.228 134.274 188.442 134.36 188.64C134.446 188.838 134.572 189.016 134.73 189.164C134.888 189.322 135.076 189.446 135.283 189.53C135.49 189.614 135.711 189.655 135.934 189.652C136.255 189.65 136.57 189.562 136.845 189.398V188.487H135.889C135.789 188.484 135.693 188.442 135.623 188.37C135.553 188.299 135.513 188.203 135.511 188.103C135.513 188.004 135.553 187.91 135.624 187.84C135.695 187.771 135.79 187.732 135.889 187.732H137.19C137.24 187.73 137.29 187.739 137.337 187.756C137.384 187.774 137.427 187.801 137.463 187.836C137.5 187.87 137.529 187.912 137.549 187.957C137.569 188.003 137.58 188.053 137.581 188.103V189.58C137.584 189.617 137.584 189.654 137.581 189.691C137.557 189.758 137.511 189.816 137.451 189.854C137.092 190.135 136.662 190.311 136.209 190.362C135.755 190.413 135.297 190.337 134.885 190.142C134.472 189.948 134.122 189.643 133.873 189.261C133.624 188.879 133.486 188.435 133.474 187.979L133.468 188.018Z" fill="white"/>
<path d="M139.155 186.113C139.154 186.064 139.163 186.017 139.181 185.972C139.199 185.927 139.226 185.887 139.26 185.853C139.294 185.819 139.335 185.792 139.379 185.774C139.424 185.756 139.472 185.747 139.52 185.748C139.568 185.747 139.617 185.756 139.662 185.774C139.708 185.792 139.749 185.818 139.784 185.852C139.819 185.886 139.847 185.926 139.867 185.971C139.886 186.016 139.896 186.064 139.897 186.113V190.017C139.894 190.115 139.853 190.208 139.782 190.276C139.712 190.344 139.618 190.382 139.52 190.382C139.472 190.383 139.424 190.374 139.379 190.356C139.335 190.338 139.294 190.311 139.26 190.277C139.226 190.243 139.199 190.202 139.181 190.158C139.163 190.113 139.154 190.065 139.155 190.017V186.113Z" fill="white"/>
<path d="M141.875 190.049C141.875 190.146 141.837 190.238 141.769 190.307C141.7 190.375 141.608 190.413 141.511 190.413C141.414 190.413 141.322 190.375 141.253 190.307C141.185 190.238 141.147 190.146 141.147 190.049V186.144C141.145 186.085 141.158 186.026 141.184 185.973C141.21 185.92 141.249 185.874 141.296 185.838C141.375 185.785 141.471 185.763 141.565 185.778C141.66 185.792 141.745 185.842 141.804 185.917L143.958 188.897V186.17C143.958 186.123 143.967 186.077 143.985 186.033C144.003 185.99 144.03 185.95 144.063 185.917C144.096 185.884 144.136 185.858 144.179 185.84C144.222 185.822 144.269 185.812 144.316 185.812C144.411 185.812 144.503 185.85 144.571 185.917C144.639 185.984 144.679 186.075 144.68 186.17V190.075C144.679 190.171 144.64 190.263 144.572 190.331C144.504 190.399 144.412 190.438 144.316 190.44C144.263 190.439 144.211 190.426 144.164 190.402C144.116 190.379 144.075 190.345 144.043 190.303L144.01 190.264L141.875 187.303V190.049Z" fill="white"/>
<path d="M146.028 68.3066V73.0639H142.664V68.3066C142.664 63.7511 139.221 60.1002 134.991 60.1002C130.761 60.1002 127.318 63.7771 127.318 68.3066V80.2161H123.901V68.3066C123.901 61.7987 128.854 56.5469 134.965 56.5469C141.076 56.5469 146.028 61.8248 146.028 68.3066Z" fill="#C7C7C7"/>
<path d="M123.927 73.0762L127.291 73.2128V80.2153H123.927V73.0762Z" fill="#A6A6A6"/>
<path d="M150.317 76.2266H119.612V104.08H150.317V76.2266Z" fill="#2AD352"/>
<path opacity="0.1" d="M150.317 76.2266H134.965V104.08H150.317V76.2266Z" fill="black"/>
<path d="M136.265 91.1748L137.567 97.2661H132.113L133.415 91.1748C132.91 90.8614 132.521 90.392 132.307 89.8377C132.093 89.2834 132.065 88.6744 132.228 88.103C132.391 87.5315 132.735 87.0287 133.21 86.6708C133.684 86.3128 134.262 86.1191 134.856 86.1191C135.451 86.1191 136.029 86.3128 136.503 86.6708C136.977 87.0287 137.322 87.5315 137.485 88.103C137.648 88.6744 137.62 89.2834 137.406 89.8377C137.192 90.392 136.803 90.8614 136.298 91.1748H136.265Z" fill="#263238"/>
<path d="M174.506 134.818H95.4287V148.355H174.506V134.818Z" fill="white"/>
<path d="M174.825 148.679H95.1035V134.492H174.825V148.679ZM95.7543 148.029H174.174V135.143H95.7543V148.029Z" fill="#EBEBEB"/>
<path d="M103.635 138.553H102.984V144.338H103.635V138.553Z" fill="#37474F"/>
<path d="M106.205 141.117H100.42V141.768H106.205V141.117Z" fill="#37474F"/>
<path d="M105.13 139.164L101.037 143.254L101.497 143.714L105.59 139.625L105.13 139.164Z" fill="#37474F"/>
<path d="M101.492 139.167L101.032 139.627L105.123 143.718L105.583 143.258L101.492 139.167Z" fill="#37474F"/>
<path d="M113.45 138.553H112.799V144.338H113.45V138.553Z" fill="#37474F"/>
<path d="M116.02 141.117H110.234V141.768H116.02V141.117Z" fill="#37474F"/>
<path d="M114.941 139.17L110.849 143.26L111.309 143.72L115.401 139.631L114.941 139.17Z" fill="#37474F"/>
<path d="M111.308 139.165L110.848 139.625L114.939 143.716L115.399 143.256L111.308 139.165Z" fill="#37474F"/>
<path d="M123.263 138.553H122.612V144.338H123.263V138.553Z" fill="#37474F"/>
<path d="M125.833 141.117H120.048V141.768H125.833V141.117Z" fill="#37474F"/>
<path d="M124.754 139.17L120.661 143.26L121.121 143.72L125.214 139.631L124.754 139.17Z" fill="#37474F"/>
<path d="M121.124 139.163L120.664 139.623L124.755 143.714L125.215 143.254L121.124 139.163Z" fill="#37474F"/>
<path d="M133.083 138.553H132.433V144.338H133.083V138.553Z" fill="#37474F"/>
<path d="M135.648 141.117H129.862V141.768H135.648V141.117Z" fill="#37474F"/>
<path d="M134.572 139.17L130.479 143.26L130.94 143.72L135.032 139.631L134.572 139.17Z" fill="#37474F"/>
<path d="M130.945 139.169L130.484 139.629L134.575 143.72L135.036 143.26L130.945 139.169Z" fill="#37474F"/>
<path d="M142.897 138.553H142.246V144.338H142.897V138.553Z" fill="#37474F"/>
<path d="M145.461 141.117H139.676V141.768H145.461V141.117Z" fill="#37474F"/>
<path d="M144.383 139.172L140.291 143.262L140.751 143.722L144.843 139.633L144.383 139.172Z" fill="#37474F"/>
<path d="M140.754 139.161L140.294 139.621L144.385 143.712L144.845 143.252L140.754 139.161Z" fill="#37474F"/>
<path d="M152.711 138.553H152.061V144.338H152.711V138.553Z" fill="#37474F"/>
<path d="M155.283 141.117H149.497V141.768H155.283V141.117Z" fill="#37474F"/>
<path d="M154.2 139.168L150.107 143.258L150.567 143.718L154.66 139.629L154.2 139.168Z" fill="#37474F"/>
<path d="M150.57 139.159L150.109 139.619L154.2 143.71L154.661 143.25L150.57 139.159Z" fill="#37474F"/>
<path d="M167.751 143.675C167.045 143.632 166.356 143.435 165.735 143.098C165.113 142.761 164.572 142.291 164.152 141.722L164.009 141.527L164.152 141.338C164.546 140.75 165.078 140.268 165.703 139.935C166.327 139.602 167.024 139.428 167.731 139.428C168.439 139.428 169.136 139.602 169.76 139.935C170.384 140.268 170.917 140.75 171.311 141.338L171.447 141.527L171.311 141.722C170.895 142.287 170.361 142.754 169.746 143.091C169.131 143.428 168.45 143.627 167.751 143.675ZM164.835 141.553C165.171 142.015 165.611 142.392 166.12 142.651C166.629 142.911 167.192 143.046 167.764 143.046C168.335 143.046 168.898 142.911 169.407 142.651C169.916 142.392 170.357 142.015 170.692 141.553C170.357 141.091 169.916 140.714 169.407 140.455C168.898 140.195 168.335 140.06 167.764 140.06C167.192 140.06 166.629 140.195 166.12 140.455C165.611 140.714 165.171 141.091 164.835 141.553Z" fill="#EBEBEB"/>
<path d="M167.745 143.018C168.553 143.018 169.209 142.363 169.209 141.554C169.209 140.745 168.553 140.09 167.745 140.09C166.936 140.09 166.28 140.745 166.28 141.554C166.28 142.363 166.936 143.018 167.745 143.018Z" fill="#EBEBEB"/>
<path d="M170.155 138.616L164.955 143.816L165.415 144.277L170.615 139.077L170.155 138.616Z" fill="#EBEBEB"/>
<path d="M113.703 120.721H112.662V122.549C112.662 122.674 112.612 122.793 112.525 122.881C112.437 122.969 112.317 123.018 112.193 123.018C112.069 123.018 111.95 122.969 111.862 122.881C111.774 122.793 111.725 122.674 111.725 122.549V117.571C111.725 117.51 111.737 117.449 111.76 117.392C111.784 117.336 111.819 117.285 111.862 117.242C111.906 117.199 111.958 117.165 112.014 117.142C112.071 117.119 112.132 117.108 112.193 117.109H113.703C113.949 117.094 114.196 117.13 114.428 117.214C114.66 117.298 114.872 117.428 115.052 117.598C115.231 117.767 115.375 117.971 115.472 118.197C115.57 118.424 115.621 118.668 115.621 118.915C115.621 119.161 115.57 119.405 115.472 119.632C115.375 119.858 115.231 120.063 115.052 120.232C114.872 120.401 114.66 120.532 114.428 120.616C114.196 120.7 113.949 120.735 113.703 120.721ZM112.662 119.783H113.703C113.823 119.794 113.945 119.779 114.059 119.74C114.174 119.701 114.279 119.639 114.368 119.557C114.457 119.476 114.528 119.376 114.577 119.266C114.625 119.155 114.65 119.036 114.65 118.915C114.65 118.794 114.625 118.674 114.577 118.564C114.528 118.453 114.457 118.354 114.368 118.272C114.279 118.19 114.174 118.128 114.059 118.089C113.945 118.05 113.823 118.035 113.703 118.046H112.662V119.783Z" fill="#2AD352"/>
<path d="M119.071 121.62H117.021L116.605 122.72C116.568 122.806 116.508 122.879 116.43 122.931C116.353 122.983 116.262 123.011 116.169 123.013C116.115 123.023 116.06 123.023 116.006 123.013C115.889 122.969 115.794 122.881 115.742 122.768C115.69 122.654 115.684 122.525 115.726 122.408L117.594 117.436C117.631 117.348 117.694 117.273 117.774 117.221C117.854 117.169 117.948 117.142 118.043 117.143C118.138 117.14 118.231 117.167 118.311 117.219C118.39 117.272 118.451 117.347 118.486 117.436L120.353 122.408C120.395 122.525 120.39 122.654 120.337 122.768C120.285 122.881 120.19 122.969 120.073 123.013C120.02 123.024 119.964 123.024 119.911 123.013C119.818 123.013 119.728 122.985 119.651 122.933C119.574 122.88 119.515 122.806 119.481 122.72L119.071 121.62ZM118.726 120.696L118.043 118.88L117.392 120.696H118.726Z" fill="#2AD352"/>
<path d="M121.18 121.548C121.217 121.498 121.264 121.457 121.317 121.426C121.371 121.396 121.431 121.378 121.492 121.372C121.554 121.367 121.616 121.374 121.674 121.394C121.733 121.415 121.786 121.447 121.831 121.489C122.285 121.875 122.851 122.104 123.445 122.14C123.82 122.148 124.189 122.039 124.499 121.828C124.605 121.764 124.693 121.676 124.757 121.57C124.82 121.465 124.857 121.346 124.864 121.223C124.866 121.128 124.838 121.035 124.786 120.956C124.72 120.854 124.634 120.767 124.532 120.702C124.174 120.499 123.781 120.364 123.373 120.305C122.997 120.241 122.629 120.129 122.28 119.973C121.963 119.836 121.691 119.61 121.499 119.322C121.368 119.116 121.301 118.877 121.304 118.632C121.309 118.39 121.371 118.152 121.484 117.938C121.597 117.723 121.758 117.538 121.955 117.396C122.383 117.1 122.892 116.945 123.413 116.953C124.078 116.982 124.719 117.209 125.254 117.604C125.301 117.636 125.342 117.676 125.373 117.723C125.405 117.771 125.427 117.824 125.438 117.879C125.448 117.935 125.448 117.992 125.437 118.048C125.425 118.103 125.403 118.156 125.371 118.203C125.342 118.252 125.302 118.294 125.255 118.328C125.209 118.361 125.156 118.384 125.1 118.396C125.044 118.409 124.986 118.409 124.93 118.398C124.874 118.387 124.82 118.365 124.773 118.333C124.385 118.019 123.91 117.83 123.413 117.793C123.076 117.787 122.746 117.887 122.469 118.079C122.375 118.135 122.297 118.212 122.242 118.306C122.186 118.399 122.154 118.504 122.15 118.613C122.144 118.695 122.164 118.777 122.209 118.847C122.269 118.935 122.347 119.01 122.436 119.069C122.761 119.259 123.119 119.385 123.491 119.439C123.891 119.511 124.282 119.629 124.656 119.791C124.998 119.941 125.291 120.185 125.502 120.494C125.632 120.71 125.702 120.957 125.703 121.21C125.694 121.469 125.623 121.722 125.496 121.948C125.369 122.175 125.191 122.368 124.974 122.511C124.521 122.834 123.976 123.003 123.419 122.993C122.625 122.957 121.866 122.659 121.258 122.147C121.172 122.075 121.116 121.974 121.101 121.863C121.087 121.752 121.115 121.639 121.18 121.548Z" fill="#2AD352"/>
<path d="M126.732 121.548C126.768 121.503 126.812 121.466 126.863 121.439C126.913 121.412 126.968 121.395 127.025 121.39C127.082 121.384 127.14 121.39 127.195 121.408C127.249 121.425 127.3 121.452 127.344 121.489C127.797 121.875 128.363 122.104 128.958 122.14C129.333 122.149 129.702 122.04 130.012 121.828C130.117 121.764 130.206 121.676 130.269 121.57C130.333 121.465 130.369 121.346 130.376 121.223C130.378 121.128 130.351 121.035 130.298 120.956C130.234 120.853 130.148 120.766 130.044 120.702C129.689 120.498 129.298 120.364 128.892 120.305C128.517 120.242 128.152 120.13 127.806 119.973C127.487 119.834 127.214 119.609 127.018 119.322C126.89 119.115 126.822 118.876 126.823 118.632C126.828 118.39 126.89 118.152 127.003 117.938C127.116 117.723 127.277 117.538 127.474 117.396C127.902 117.1 128.411 116.945 128.932 116.953C129.597 116.982 130.238 117.209 130.773 117.604C130.82 117.636 130.861 117.676 130.892 117.723C130.924 117.771 130.946 117.824 130.957 117.879C130.967 117.935 130.967 117.992 130.956 118.048C130.945 118.103 130.922 118.156 130.89 118.203C130.861 118.252 130.821 118.294 130.774 118.328C130.728 118.361 130.675 118.384 130.619 118.396C130.563 118.409 130.505 118.409 130.449 118.398C130.393 118.387 130.339 118.365 130.292 118.333C129.904 118.019 129.429 117.83 128.932 117.793C128.595 117.787 128.265 117.887 127.988 118.079C127.894 118.135 127.816 118.212 127.761 118.306C127.705 118.399 127.673 118.504 127.669 118.613C127.663 118.695 127.683 118.777 127.728 118.847C127.788 118.935 127.866 119.01 127.955 119.069C128.28 119.258 128.638 119.384 129.01 119.439C129.41 119.511 129.801 119.629 130.175 119.791C130.516 119.94 130.807 120.184 131.014 120.494C131.149 120.708 131.22 120.956 131.216 121.21C131.208 121.468 131.138 121.721 131.012 121.948C130.887 122.174 130.709 122.367 130.493 122.511C130.038 122.835 129.49 123.004 128.932 122.993C128.138 122.957 127.378 122.659 126.771 122.147C126.692 122.069 126.644 121.965 126.637 121.855C126.629 121.744 126.663 121.635 126.732 121.548Z" fill="#2AD352"/>
<path d="M140.119 117.806L138.049 122.719C138.04 122.749 138.025 122.775 138.003 122.797C138.003 122.797 138.003 122.83 137.964 122.849L137.906 122.888C137.906 122.888 137.867 122.934 137.828 122.94H137.756H137.554H137.496C137.466 122.933 137.441 122.914 137.424 122.888L137.366 122.849C137.366 122.849 137.366 122.817 137.333 122.797C137.329 122.771 137.329 122.745 137.333 122.719L136.227 120.116L135.12 122.719C135.12 122.719 135.12 122.778 135.088 122.797L135.036 122.849C135.016 122.859 134.998 122.872 134.984 122.888L134.919 122.94C134.897 122.936 134.875 122.936 134.854 122.94H134.645H134.58C134.551 122.929 134.524 122.911 134.502 122.888C134.502 122.888 134.47 122.888 134.444 122.849L134.405 122.797C134.405 122.797 134.405 122.745 134.359 122.719L132.283 117.799C132.246 117.688 132.252 117.567 132.3 117.46C132.349 117.353 132.436 117.269 132.545 117.224C132.653 117.18 132.775 117.178 132.884 117.219C132.994 117.261 133.084 117.343 133.136 117.448L134.789 121.353L135.882 118.749C135.918 118.664 135.979 118.591 136.056 118.54C136.134 118.489 136.225 118.462 136.318 118.463C136.411 118.464 136.502 118.492 136.58 118.542C136.659 118.593 136.721 118.665 136.76 118.749L137.847 121.353L139.494 117.448C139.542 117.334 139.634 117.245 139.749 117.198C139.863 117.152 139.992 117.153 140.105 117.201C140.18 117.283 140.223 117.39 140.225 117.501C140.227 117.612 140.19 117.72 140.119 117.806Z" fill="#2AD352"/>
<path d="M146.028 117.839C146.576 118.416 146.882 119.182 146.882 119.977C146.882 120.773 146.576 121.538 146.028 122.115C145.772 122.395 145.46 122.62 145.113 122.774C144.766 122.929 144.391 123.01 144.011 123.013C143.623 123.011 143.24 122.93 142.884 122.776C142.528 122.622 142.208 122.397 141.941 122.115C141.406 121.532 141.109 120.769 141.109 119.977C141.109 119.186 141.406 118.423 141.941 117.839C142.207 117.557 142.527 117.331 142.883 117.176C143.239 117.022 143.623 116.942 144.011 116.941C144.391 116.943 144.767 117.024 145.114 117.178C145.461 117.333 145.773 117.558 146.028 117.839ZM145.918 119.974C145.918 119.429 145.713 118.904 145.345 118.503C145.177 118.316 144.971 118.165 144.742 118.062C144.512 117.959 144.263 117.905 144.011 117.905C143.754 117.903 143.499 117.955 143.264 118.058C143.028 118.161 142.817 118.313 142.644 118.503C142.273 118.903 142.069 119.429 142.071 119.974C142.066 120.52 142.271 121.046 142.644 121.445C142.817 121.635 143.029 121.787 143.264 121.891C143.499 121.995 143.753 122.05 144.011 122.05C144.263 122.047 144.512 121.991 144.741 121.887C144.971 121.783 145.176 121.632 145.345 121.445C145.706 121.041 145.901 120.516 145.892 119.974H145.918Z" fill="#2AD352"/>
<path d="M152.425 122.316C152.445 122.374 152.453 122.435 152.45 122.496C152.446 122.557 152.43 122.617 152.402 122.671C152.375 122.726 152.337 122.775 152.29 122.814C152.244 122.854 152.19 122.884 152.132 122.902C152.069 122.912 152.005 122.912 151.943 122.902C151.828 122.905 151.715 122.873 151.618 122.811C151.503 122.739 151.409 122.638 151.344 122.518C151.21 122.197 151.15 121.85 151.169 121.503C151.168 121.374 151.132 121.248 151.064 121.138C151.002 121.038 150.914 120.955 150.811 120.898C150.667 120.805 150.508 120.737 150.342 120.696H149.346V122.525C149.346 122.586 149.333 122.647 149.308 122.703C149.284 122.76 149.249 122.811 149.205 122.854C149.16 122.897 149.108 122.931 149.051 122.954C148.994 122.976 148.933 122.988 148.871 122.987C148.749 122.987 148.631 122.938 148.545 122.851C148.458 122.765 148.409 122.647 148.409 122.525V117.546C148.408 117.485 148.42 117.425 148.443 117.368C148.466 117.312 148.5 117.26 148.543 117.217C148.586 117.174 148.637 117.14 148.693 117.117C148.75 117.095 148.81 117.083 148.871 117.084H150.381C150.753 117.083 151.117 117.196 151.422 117.41C151.727 117.623 151.958 117.925 152.084 118.275C152.21 118.625 152.225 119.006 152.127 119.365C152.028 119.724 151.821 120.043 151.533 120.279C151.645 120.369 151.744 120.474 151.826 120.592C152.009 120.86 152.107 121.178 152.106 121.503C152.093 121.671 152.104 121.839 152.138 122.004C152.209 122.027 152.272 122.068 152.323 122.122C152.373 122.177 152.408 122.244 152.425 122.316ZM151.234 118.919C151.235 118.804 151.213 118.691 151.169 118.585C151.126 118.478 151.061 118.382 150.98 118.301C150.899 118.22 150.803 118.155 150.696 118.112C150.59 118.068 150.476 118.046 150.362 118.047H149.327V119.785H150.362C150.592 119.785 150.813 119.694 150.976 119.532C151.139 119.37 151.232 119.149 151.234 118.919Z" fill="#2AD352"/>
<path d="M153.798 122.55V117.571C153.797 117.511 153.808 117.45 153.831 117.394C153.854 117.337 153.888 117.286 153.931 117.243C153.974 117.2 154.026 117.166 154.082 117.143C154.139 117.12 154.199 117.109 154.26 117.109H155.256C156.014 117.145 156.73 117.472 157.255 118.021C157.779 118.571 158.072 119.301 158.072 120.061C158.072 120.82 157.779 121.551 157.255 122.1C156.73 122.65 156.014 122.976 155.256 123.012H154.26C154.137 123.012 154.02 122.963 153.933 122.877C153.847 122.79 153.798 122.673 153.798 122.55ZM154.735 122.075H155.256C155.77 122.046 156.254 121.821 156.608 121.446C156.961 121.072 157.159 120.576 157.159 120.061C157.159 119.546 156.961 119.05 156.608 118.675C156.254 118.301 155.77 118.076 155.256 118.047H154.735V122.075Z" fill="#2AD352"/>
<path d="M254.749 45.4575C254.749 45.4575 249.783 85.1947 241.622 94.1365C231.86 104.862 224.702 103.293 220.797 108.825C216.84 103.287 209.734 104.862 199.972 94.13C191.811 85.1882 186.858 45.451 186.858 45.451C208.334 35.0384 220.83 23.3242 220.83 23.3242C221.155 23.6952 233.585 35.1881 254.749 45.4575Z" fill="#37474F"/>
<path d="M220.771 23.3372V108.825C216.814 103.287 209.707 104.862 199.945 94.13C191.785 85.1882 186.832 45.451 186.832 45.451C208.308 35.0384 220.803 23.3242 220.803 23.3242L220.771 23.3372Z" fill="#455A64"/>
<path d="M249.503 48.66C249.503 48.66 245.312 82.2277 238.439 89.7834C230.155 98.8554 224.122 97.5213 220.809 102.194C217.471 97.5213 211.464 98.8554 203.18 89.7834C196.294 82.2277 192.116 48.66 192.116 48.66C210.273 39.8419 220.816 29.9629 220.816 29.9629C220.816 29.9629 231.313 39.8419 249.503 48.66Z" fill="#455A64"/>
<path d="M192.07 48.6594C192.07 48.6594 196.261 82.2206 203.134 89.7827C211.405 98.8482 217.406 97.5271 220.751 102.187V29.9492C220.451 30.3072 209.947 39.9779 192.07 48.6594Z" fill="#37474F"/>
<path d="M230.185 75.4907C235.382 70.2933 235.382 61.8668 230.185 56.6695C224.988 51.4721 216.561 51.4721 211.364 56.6695C206.166 61.8668 206.166 70.2934 211.364 75.4907C216.561 80.688 224.988 80.688 230.185 75.4907Z" fill="#2AD352"/>
<path d="M219.254 74.725L213.325 68.5621L215.525 66.447L218.792 69.8441L225.833 59.041L228.391 60.707L219.254 74.725Z" fill="white"/>
<path d="M24.5711 140.994H70.2305V131.538H24.5711V140.994Z" fill="#C7C7C7"/>
<path d="M57.9756 140.916L59.2511 153.001L75.0393 266.134H79.5492L67.0931 153.001L66.0844 140.916H57.9756Z" fill="#C7C7C7"/>
<path d="M15.2383 266.134H19.7548L35.5429 153.001L36.8184 140.916H28.7096L27.7009 153.001L15.2383 266.134Z" fill="#C7C7C7"/>
<path d="M22.8591 229.176H73.2236V226.338H22.8591V229.176Z" fill="#C7C7C7"/>
<path d="M67.0931 152.578H59.2511L57.9756 140.916H66.0844L67.0931 152.578Z" fill="#A6A6A6"/>
<path d="M27.7012 152.578H35.5432L36.8187 140.916H28.7099L27.7012 152.578Z" fill="#A6A6A6"/>
<path d="M30.6632 86.0932C32.6156 87.0955 32.954 90.5511 39.0323 90.3624C39.8979 90.3624 40.6072 89.9915 41.4012 90.2843C42.5661 90.7073 43.4837 91.638 44.5185 92.3148C45.3507 92.8742 46.2983 93.239 47.2908 93.3821C49.1952 93.6072 51.1185 93.1632 52.7314 92.1261C53.7271 91.5143 54.5601 90.6683 55.5233 90.0045C56.4865 89.3407 62.298 87.935 63.2807 84.668C63.9315 82.592 63.8078 80.2296 61.3283 77.197C60.7572 76.6561 60.3684 75.9511 60.2155 75.1795C60.2171 74.5033 60.3706 73.8361 60.6645 73.2272C61.0055 72.536 61.1303 71.7581 61.0225 70.995C60.7458 70.2652 60.2997 69.6117 59.7209 69.0881C58.8098 67.9883 58.979 66.4004 59.7209 64.448C60.0151 63.6196 60.1153 62.7346 60.0137 61.8614C59.9122 60.9881 59.6116 60.1498 59.1352 59.4109C58.5379 58.5644 57.8335 57.7988 57.0396 57.1332C55.9268 56.0789 55.7381 55.1027 55.237 53.6124C54.2933 50.7489 52.816 49.4669 51.0784 48.5818C49.51 47.7943 49.5621 48.0937 47.8831 48.3475C46.1819 47.3094 44.1793 46.8782 42.2017 47.124C40.3664 47.3583 38.8501 48.5883 37.4639 49.7662C36.2274 50.8205 35.0951 51.9529 35.03 53.7295C34.9909 54.7513 35.2382 55.7665 35.1927 56.7882C35.1276 58.0898 34.4052 58.9163 33.5397 59.7363C32.2491 60.8339 31.3588 62.3284 31.0081 63.986C30.7803 65.3721 32.147 67.5262 30.546 69.5762C29.1403 71.3854 26.6413 73.481 25.9905 75.7457C24.0056 82.8198 28.8215 85.1301 30.6632 86.0932Z" fill="#263238"/>
<path d="M54.2019 89.9059C56.9938 89.4829 61.2825 90.01 62.7663 86.8993C63.3535 86.4207 63.8185 85.8094 64.1229 85.1158C64.4272 84.4221 64.5623 83.666 64.5169 82.9099C64.3252 81.2949 63.5774 79.797 62.4018 78.6733C61.7198 78.0312 61.1247 77.3027 60.6317 76.5062C60.4742 75.8856 60.3589 75.255 60.2868 74.6189C60.4018 73.8047 60.6205 73.0087 60.9376 72.25C60.3258 73.5516 59.7596 74.9573 60.3258 76.389C60.409 76.5932 60.5068 76.7912 60.6187 76.9812C60.8221 77.7342 61.1012 78.4646 61.4517 79.1614C62.3693 80.9836 63.2088 82.6301 63.0852 84.7582C63.0636 85.469 62.8929 86.1675 62.5841 86.8081C61.3763 87.8674 59.8678 88.5227 58.2693 88.6824C58.2303 88.6824 58.2303 88.754 58.2693 88.7475C59.7148 88.6013 61.1014 88.0981 62.3042 87.2832C60.6838 89.6065 56.9157 89.2877 54.1889 89.8278C54.1173 89.8278 54.1433 89.9124 54.2019 89.9059ZM62.981 86.3721V86.3135C63.4643 84.5891 63.3402 82.751 62.6296 81.1072C62.1871 80.0204 61.5233 79.0442 61.0872 77.9509C61.0157 77.7622 60.9441 77.5735 60.879 77.3782C61.5298 78.2308 62.3498 78.9401 62.9615 79.7731C64.2631 81.5823 64.6796 83.7364 63.4366 85.6953C63.3021 85.9321 63.1498 86.1583 62.981 86.3721Z" fill="#263238"/>
<path d="M56.6743 56.7091C57.7161 57.6143 58.7089 58.5745 59.6484 59.5856C60.3039 60.2491 60.6969 61.1276 60.7547 62.0586C60.779 62.9965 60.4829 63.9147 59.9152 64.6617C59.707 64.9741 59.4922 65.3125 59.3035 65.6184C59.2589 66.2242 59.3547 66.8322 59.5833 67.395C60.0389 68.4688 61.0476 69.1326 61.5357 70.2194C62.2906 71.9766 61.4511 73.4213 60.7092 74.9897C61.2493 73.6881 62.0108 72.4321 61.5812 70.9744C61.2428 69.7834 60.3708 69.1391 59.7135 68.1695C59.3134 67.5536 59.0884 66.8404 59.0627 66.1065C58.477 67.2909 58.2752 68.5404 59.31 69.7834C59.3555 69.842 59.31 69.9201 59.2319 69.868C57.9303 68.5664 58.2687 66.933 59.0692 65.5338C59.1185 64.7073 59.3009 63.8942 59.6093 63.1258C59.6093 63.0478 59.759 63.1258 59.746 63.1844C59.6289 63.7962 59.4727 64.4079 59.3881 65.0131L59.5247 64.8114C60.566 63.3211 60.976 61.5574 59.7785 59.9956C58.8805 58.8046 57.657 57.8675 56.6548 56.7416C56.6092 56.7286 56.6483 56.683 56.6743 56.7091Z" fill="#263238"/>
<path d="M64.504 179.592C64.504 179.592 52.8484 205.48 52.8354 205.5C50.5836 210.439 48.6898 214.806 47.9284 217.162C47.9233 217.174 47.9233 217.188 47.9284 217.201C47.6878 217.731 47.5742 218.311 47.5965 218.893C47.5965 218.893 47.5965 218.925 47.5965 218.932C48.6117 220.604 87.5549 239.757 89.1428 239.985C90.7308 240.213 91.4531 235.703 90.5355 233.75C89.6179 231.798 77.9818 217.793 77.9818 217.793L89.4097 191.801L64.504 179.592Z" fill="#EB9481"/>
<path d="M55.2295 200.162C55.2295 200.162 52.8476 205.46 52.8346 205.479C50.5828 210.419 48.689 214.785 47.9276 217.141C47.9225 217.154 47.9225 217.168 47.9276 217.18C47.7486 217.729 47.6372 218.297 47.5957 218.872C47.5957 218.872 47.5957 218.905 47.5957 218.911C48.6109 220.584 87.5541 239.737 89.142 239.964C90.73 240.192 91.4523 235.682 90.5347 233.73C89.6171 231.777 77.981 217.772 77.981 217.772L80.4866 212.41L55.2295 200.162Z" fill="#EBEBEB"/>
<path d="M89.1296 239.932C87.5417 239.724 48.5854 220.59 47.5637 218.918C47.1667 218.267 49.6202 212.449 52.77 205.479L52.8676 205.258L78.1443 217.323L77.923 217.746C77.923 217.746 89.5656 231.745 90.4897 233.697C91.4138 235.65 90.711 240.147 89.1296 239.932Z" fill="#263238"/>
<path d="M90.4117 238.827C90.9779 239.439 89.6763 241.71 89.1101 241.651C88.5439 241.593 46.1581 220.54 45.5073 220.019C44.8565 219.499 46.3989 217.045 47.3035 217.325C48.2081 217.605 90.4117 238.827 90.4117 238.827Z" fill="#2AD352"/>
<path d="M80.025 218.859C77.6756 217.109 74.3241 215.95 71.4411 216.822C71.3304 216.822 71.3825 217.018 71.4801 217.031C74.3413 217.446 77.1494 218.168 79.8558 219.185C79.8968 219.195 79.9401 219.191 79.9786 219.173C80.0172 219.156 80.0487 219.126 80.0682 219.089C80.0877 219.051 80.0941 219.008 80.0862 218.967C80.0784 218.925 80.0568 218.887 80.025 218.859Z" fill="white"/>
<path d="M81.3394 220.903C78.9901 219.146 75.6385 217.994 72.7555 218.866C72.6449 218.899 72.697 219.055 72.7946 219.075C75.6556 219.487 78.4637 220.207 81.1702 221.222C81.2115 221.237 81.2569 221.237 81.298 221.221C81.3391 221.205 81.3731 221.175 81.3937 221.136C81.4143 221.098 81.4202 221.052 81.4102 221.01C81.4002 220.967 81.3751 220.929 81.3394 220.903Z" fill="white"/>
<path d="M82.6538 222.941C80.3045 221.191 76.9464 220.032 74.0699 220.904C73.9593 220.944 74.0048 221.1 74.0699 221.113C76.9334 221.527 79.7437 222.249 82.4521 223.267C82.4952 223.294 82.5472 223.302 82.5967 223.291C82.6461 223.279 82.6889 223.248 82.7156 223.205C82.7424 223.162 82.7509 223.11 82.7393 223.06C82.7277 223.011 82.6969 222.968 82.6538 222.941Z" fill="white"/>
<path d="M57.1887 212.782C55.0542 209.984 50.6809 213.29 52.835 216.095C54.9891 218.9 59.3233 215.587 57.1887 212.782Z" fill="white"/>
<path d="M71.3752 157.086C71.1148 164.616 56.6023 197.136 56.6023 197.136L82.0546 208.85C82.0546 208.85 102.6 172.686 100.693 156.026C99.0662 141.89 63.5006 115.748 57.7932 108.381C56.9472 107.288 57.2335 102.889 57.2335 102.889H34.1436V108.401C42.9617 127.118 69.3382 149.57 71.2906 156.162C71.3676 156.464 71.3961 156.776 71.3752 157.086Z" fill="#37474F"/>
<path d="M81.9122 203.416C77.7211 201.406 78.9511 201.92 74.7535 199.961C72.6905 199.004 62.343 194.156 60.2605 193.616C60.2492 193.61 60.2364 193.61 60.2248 193.614C60.2132 193.618 60.2038 193.627 60.1986 193.638C60.1934 193.65 60.1929 193.662 60.1972 193.674C60.2015 193.686 60.2102 193.695 60.2214 193.7C62.0046 194.911 72.4627 199.512 74.5387 200.429C78.7884 202.304 77.5909 201.731 81.8601 203.54C81.9317 203.579 81.9903 203.449 81.9122 203.416Z" fill="#263238"/>
<path d="M39.9494 112.34C46.9189 122.962 54.7111 133.022 63.2541 142.426C65.3496 144.71 67.5037 146.929 69.6578 149.155C71.4801 151.036 73.3413 153.125 73.7904 155.799C74.298 158.78 73.1396 161.748 72.2089 164.526C71.1872 167.585 70.159 170.637 69.0721 173.676C67.9007 176.93 63.1109 188.768 62.3235 190.363C61.9265 191.157 68.6621 174.093 69.7555 170.943C70.8488 167.793 71.9551 164.663 72.8858 161.474C73.4249 159.85 73.6458 158.138 73.5365 156.431C73.3251 154.784 72.668 153.227 71.6362 151.927C69.762 149.428 67.328 147.307 65.1999 145.029C60.7876 140.304 56.5813 135.397 52.5812 130.308C48.0288 124.559 43.7799 118.577 39.8517 112.385C39.8487 112.379 39.847 112.372 39.8467 112.365C39.8464 112.358 39.8475 112.351 39.8499 112.344C39.8523 112.337 39.856 112.331 39.8608 112.326C39.8656 112.321 39.8714 112.317 39.8778 112.314C39.8842 112.311 39.8911 112.309 39.8982 112.309C39.9052 112.308 39.9123 112.309 39.9189 112.312C39.9256 112.314 39.9317 112.318 39.9369 112.323C39.9421 112.328 39.9464 112.333 39.9494 112.34Z" fill="#263238"/>
<path d="M26.2824 236.033C26.2824 236.033 25.1501 264.414 25.1436 264.434C25.2737 269.861 25.482 274.618 25.7943 277.065C25.7917 277.081 25.7917 277.096 25.7943 277.111C25.8244 277.697 25.9916 278.267 26.2824 278.777V278.81C27.9224 279.864 71.33 280.111 72.8464 279.61C74.3627 279.109 73.0546 274.742 71.3821 273.388C69.7096 272.035 53.1144 264.512 53.1144 264.512L53.98 236.15L26.2824 236.033Z" fill="#EB9481"/>
<path d="M25.3518 258.819C25.3518 258.819 25.1305 264.416 25.124 264.435C25.2542 269.863 25.4624 274.62 25.7748 277.067C25.7721 277.082 25.7721 277.098 25.7748 277.113C25.8788 277.686 26.0492 278.245 26.2824 278.779V278.811C27.9224 279.866 71.33 280.113 72.8463 279.612C74.3627 279.111 73.0546 274.744 71.3821 273.39C69.7095 272.037 53.1144 264.513 53.1144 264.513L53.2902 258.773L25.3518 258.819Z" fill="#EBEBEB"/>
<path d="M72.8148 279.56C71.2984 280.061 27.9104 279.859 26.2443 278.805C25.5936 278.414 25.2747 272.089 25.0859 264.429V264.188L53.0698 264.006V264.481C53.0698 264.481 69.6519 271.991 71.344 273.345C73.036 274.698 74.3376 279.065 72.8148 279.56Z" fill="#263238"/>
<path d="M73.4846 278.01C74.259 278.316 74.0833 280.926 73.5171 281.127C72.9509 281.329 25.6321 280.906 24.8251 280.724C24.0181 280.542 24.3305 277.652 25.2676 277.509C26.2048 277.366 73.4846 278.01 73.4846 278.01Z" fill="#2AD352"/>
<path d="M55.4255 264.592C52.549 264.039 49.0217 264.469 46.8155 266.506C46.7309 266.584 46.8155 266.707 46.9327 266.675C49.6835 265.802 52.5197 265.226 55.3929 264.957C55.4412 264.961 55.4893 264.946 55.5265 264.915C55.5638 264.884 55.5871 264.839 55.5914 264.791C55.5957 264.742 55.5807 264.694 55.5495 264.657C55.5184 264.62 55.4738 264.597 55.4255 264.592Z" fill="white"/>
<path d="M57.521 265.846C54.6445 265.293 51.1238 265.723 48.9111 267.76C48.8265 267.838 48.9111 267.961 49.0347 267.929C51.7853 267.055 54.6216 266.479 57.495 266.211C57.5433 266.214 57.591 266.198 57.6276 266.166C57.6643 266.135 57.6868 266.09 57.6902 266.041C57.6937 265.993 57.6778 265.945 57.6461 265.909C57.6143 265.872 57.5693 265.85 57.521 265.846Z" fill="white"/>
<path d="M59.5709 267.111C56.6944 266.558 53.1671 266.981 50.9609 269.024C50.8698 269.102 50.9609 269.226 51.0781 269.193C53.8286 268.32 56.6649 267.744 59.5383 267.475C59.5867 267.48 59.6347 267.465 59.672 267.433C59.7092 267.402 59.7325 267.358 59.7368 267.309C59.7411 267.261 59.7261 267.213 59.695 267.176C59.6638 267.139 59.6192 267.115 59.5709 267.111Z" fill="white"/>
<path d="M32.2248 269.089C29.0814 267.501 26.6085 272.382 29.7518 273.97C32.8951 275.558 35.3941 270.683 32.2248 269.089Z" fill="white"/>
<path d="M53.8757 255.389L25.5013 255.624C25.5013 255.624 30.226 139.738 27.0632 135.95C19.5401 126.95 20.7375 114.949 25.8072 102.896H51.663C51.663 102.896 50.42 121.197 50.5437 121.73C58.4963 156.417 53.8757 255.389 53.8757 255.389Z" fill="#37474F"/>
<path d="M52.3148 249.577C46.1258 249.096 29.8236 249.623 27.7671 249.935C27.7575 249.94 27.7495 249.947 27.7439 249.957C27.7383 249.966 27.7354 249.976 27.7354 249.987C27.7354 249.998 27.7383 250.008 27.7439 250.018C27.7495 250.027 27.7575 250.034 27.7671 250.039C29.8041 250.449 48.4947 249.863 52.3083 249.714C52.3231 249.71 52.3364 249.702 52.346 249.69C52.3557 249.678 52.3613 249.663 52.362 249.648C52.3628 249.633 52.3586 249.617 52.3501 249.605C52.3416 249.592 52.3292 249.582 52.3148 249.577Z" fill="#263238"/>
<path d="M52.2756 110.01C52.0153 113.264 52.1455 118.873 50.2517 118.958C48.3579 119.043 48.6898 112.209 48.6377 110.634C48.5857 109.209 48.0976 109.404 48.0455 111.083C47.9023 115.639 48.0455 119.667 50.4404 119.479C52.8353 119.29 52.8418 112.229 52.7833 110.615C52.7507 109.782 52.3537 108.975 52.2756 110.01Z" fill="#263238"/>
<path d="M50.3625 119.172C50.2447 120.322 50.2687 121.483 50.4341 122.627C50.4666 122.718 50.8311 122.627 50.8701 122.569C51.0914 122.094 50.9157 119.855 50.9743 119.25C50.9846 119.169 50.9623 119.087 50.9123 119.022C50.8875 118.99 50.8567 118.963 50.8215 118.943C50.7864 118.923 50.7476 118.91 50.7074 118.905C50.6263 118.894 50.5444 118.917 50.4797 118.967C50.415 119.017 50.3729 119.091 50.3625 119.172Z" fill="#263238"/>
<path d="M51.1748 123.208C51.9818 126.071 52.8083 131.551 52.6131 132.97C52.6131 133.1 52.4048 133.145 52.3788 133.009C52.1185 131.473 50.9731 124.086 50.856 123.312C50.7388 122.537 50.9471 122.407 51.1748 123.208Z" fill="#263238"/>
<path d="M46.1964 125.465C46.574 125.095 46.9786 124.753 47.4068 124.443C47.8298 124.111 48.2529 123.792 48.7084 123.474C49.6065 122.823 50.5306 122.263 51.4743 121.703C52.4179 121.144 53.342 120.656 54.3052 120.168C55.2684 119.679 56.3747 119.276 57.3769 118.775C57.4355 118.742 57.4875 118.827 57.429 118.86C56.4788 119.387 55.5938 120.044 54.6696 120.623C53.7455 121.202 52.8214 121.801 51.8908 122.38C50.9601 122.959 50.0816 123.526 49.1705 124.085C48.6976 124.38 48.216 124.667 47.7257 124.944C47.2869 125.227 46.8304 125.482 46.3591 125.706C46.2029 125.764 46.1118 125.563 46.1964 125.465Z" fill="#263238"/>
<path d="M29.7775 195.094C30.1875 185.807 30.8383 175.434 30.9945 166.16C31.0683 161.513 31.103 156.865 31.0986 152.214C31.0986 147.6 31.0986 141.437 30.8904 136.829C30.7667 134.486 26.6407 132.677 25.8012 125.857C25.2196 121.973 25.5289 118.007 26.7058 114.26C26.9986 113.349 27.3441 112.456 27.7406 111.585C27.7406 111.526 27.8512 111.585 27.8252 111.637C26.1737 115.467 25.4877 119.643 25.8272 123.8C25.9472 125.896 26.3861 127.961 27.1288 129.924C28.2352 132.677 30.962 134.909 31.1051 136.374C31.3199 138.554 31.3524 140.441 31.3785 142.634C31.4045 144.827 31.4305 147.19 31.4436 149.467C31.4696 154.118 31.4566 158.767 31.4045 163.414C31.3004 172.668 31.0574 181.918 30.6756 191.163C30.2851 200.411 27.8902 246.715 27.7341 247.782C27.7341 247.899 27.5258 247.873 27.5323 247.782C27.8187 243.116 29.361 204.381 29.7775 195.094Z" fill="#263238"/>
<path d="M45.1036 81.5367C51.26 94.2401 59.076 107.998 66.3909 110.171C73.3543 112.221 86.8516 95.1252 91.1208 90.6478C92.6437 89.0208 80.2722 79.7145 78.3523 81.1267C74.734 83.7885 68.2326 91.0382 67.1393 90.7844C66.0459 90.5306 56.9154 81.8491 48.6894 74.5603C43.7044 70.1414 40.8409 72.7316 45.1036 81.5367Z" fill="#EB9481"/>
<path d="M101.827 82.5855C103.519 81.8762 116.548 81.4597 116.548 78.6352C116.548 75.8108 99.959 76.6048 99.959 76.6048L101.827 82.5855Z" fill="#EB9481"/>
<path d="M76.8359 82.9169C79.1137 80.086 81.1181 77.0598 83.0965 76.4741C84.4697 76.0836 99.2166 76.7214 101.527 76.5847C103.837 76.4481 112.05 76.6563 112.245 78.6738C112.512 81.5307 102.776 81.5047 101.742 82.969C98.1558 88.0061 84.5218 95.4641 84.5218 95.4641L76.8359 82.9169Z" fill="#EB9481"/>
<path d="M112.46 78.719C112.317 78.1833 111.981 77.7195 111.516 77.4175C110.508 76.7146 109.18 76.6495 107.996 76.5584C106.2 76.3905 104.393 76.3752 102.594 76.5129C102.585 76.5129 102.577 76.5163 102.571 76.5224C102.565 76.5285 102.562 76.5368 102.562 76.5454C102.562 76.554 102.565 76.5623 102.571 76.5684C102.577 76.5745 102.585 76.5779 102.594 76.5779C103.941 76.5779 105.288 76.6105 106.635 76.7211C107.869 76.7728 109.094 76.9605 110.286 77.2808C110.826 77.4241 111.313 77.7175 111.692 78.1268C111.826 78.2697 111.923 78.4443 111.972 78.6343C112.02 78.8243 112.021 79.0236 111.972 79.2136C111.575 80.4566 109.121 80.8276 107.989 81.0814C106.512 81.4133 104.976 81.7322 103.486 82.0055C103.421 82.0055 103.486 82.1227 103.518 82.1096C105.061 81.8038 106.694 81.6801 108.243 81.4003C109.499 81.1725 110.846 80.9187 111.861 80.0987C112.08 79.9474 112.252 79.7381 112.357 79.4943C112.463 79.2505 112.499 78.9819 112.46 78.719Z" fill="#263238"/>
<path d="M89.5264 72.5684L89.9555 70.3712L115.594 75.378C115.826 75.4233 116.03 75.5589 116.163 75.7551C116.295 75.9512 116.343 76.1918 116.298 76.4239L116.211 76.871C116.165 77.1031 116.03 77.3076 115.834 77.4397C115.637 77.5718 115.397 77.6205 115.165 77.5752L89.5264 72.5684Z" fill="#2AD352"/>
<path opacity="0.1" d="M89.9535 70.3751L89.5244 72.5723L92.6158 73.176L93.0449 70.9788L89.9535 70.3751Z" fill="black"/>
<path d="M80.1486 67.5769L79.3936 71.4816C79.1348 72.802 79.411 74.1712 80.1616 75.2879C80.9122 76.4046 82.0756 77.1775 83.396 77.4364C84.7164 77.6953 86.0855 77.419 87.2023 76.6684C88.319 75.9179 89.0918 74.7544 89.3507 73.434L90.1121 69.5293C90.2403 68.8751 90.2384 68.202 90.1065 67.5485C89.9746 66.895 89.7152 66.2739 89.3433 65.7207C88.9713 65.1674 88.494 64.6929 87.9387 64.3241C87.3833 63.9553 86.7608 63.6995 86.1065 63.5713C85.4523 63.4431 84.7793 63.445 84.1258 63.5769C83.4723 63.7089 82.8512 63.9682 82.298 64.3402C81.1806 65.0914 80.4075 66.2557 80.1486 67.5769ZM88.5177 68.5466C88.3811 69.1244 88.0686 69.6456 87.6234 70.0384C87.1781 70.4312 86.622 70.6762 86.0317 70.7397C86.552 71.0242 86.973 71.4609 87.2381 71.9913C87.5033 72.5216 87.6001 73.1204 87.5155 73.7073C87.2096 75.2562 85.5046 76.2324 83.7019 75.881C81.8992 75.5295 80.6822 73.9807 80.9816 72.4383C81.1212 71.8608 81.4354 71.3404 81.8814 70.948C82.3274 70.5556 82.8836 70.3101 83.4741 70.2451C82.9512 69.9635 82.5281 69.5273 82.2625 68.9962C81.9969 68.465 81.9019 67.8648 81.9903 67.2775C82.2962 65.7222 84.0012 64.759 85.8039 65.1104C87.6066 65.4618 88.8236 66.9977 88.5177 68.5466Z" fill="#2AD352"/>
<path d="M90.1466 69.3808L89.3296 73.5644C89.2862 73.7866 89.4311 74.002 89.6534 74.0454L89.8578 74.0853C90.08 74.1287 90.2953 73.9837 90.3387 73.7615L91.1557 69.5778C91.1991 69.3556 91.0542 69.1403 90.8319 69.0969L90.6275 69.057C90.4053 69.0136 90.19 69.1585 90.1466 69.3808Z" fill="#2AD352"/>
<path d="M91.1563 69.58L90.3393 73.7636C90.2959 73.9859 90.4409 74.2012 90.6631 74.2446L90.8675 74.2845C91.0898 74.3279 91.3051 74.1829 91.3485 73.9607L92.1655 69.7771C92.2089 69.5548 92.0639 69.3395 91.8417 69.2961L91.6373 69.2562C91.4151 69.2128 91.1997 69.3577 91.1563 69.58Z" fill="#2AD352"/>
<path d="M109.453 73.2393L110.215 73.389L110.644 71.1698L111.302 71.3L111.074 72.4584L111.835 72.608L112.063 71.4496L112.636 71.5603L112.284 73.389L113.046 73.5387L113.404 71.7099L114.224 71.8726L113.749 74.3131L114.51 74.4628L114.985 72.0223L115.759 72.172L115.154 75.2893L108.334 73.9617L108.939 70.8379L109.883 71.0266L109.453 73.2393Z" fill="#2AD352"/>
<path d="M22.0918 106.814L58.4188 107.412L55.5684 96.5313C56.5161 95.1658 57.1534 93.6093 57.4356 91.9713C57.7178 90.3332 57.638 88.6532 57.2018 87.0493C56.3298 83.8474 52.1973 79.0511 49.6592 75.9859C43.4897 68.5669 38.1272 71.9185 36.4157 73.8253C29.8882 81.1336 22.0918 106.814 22.0918 106.814Z" fill="#2AD352"/>
<path d="M39.9822 78.0558V75.9863L41.3553 77.5222L42.8391 77.0601L42.1168 78.3617L42.8131 79.0906L41.7328 79.2012V80.6069L40.5484 79.6177L39.5852 80.4182L39.6958 79.2338L38.2901 78.583L39.9822 78.0558ZM55.4579 101.309L54.3125 102.356L53.2583 101.797L53.6292 103.001L52.2626 103.71L53.5641 104.27L53.2452 105.311L54.1954 104.946L55.1325 106.131L55.2757 104.582L57.2281 103.931L55.3278 103.105L55.4579 101.309ZM42.1753 93.5836L43.2882 95.7963L44.388 93.6813L46.4836 94.0457L45.3707 91.82L46.9261 90.3362L44.7199 90.4143L44.2774 88.2537L43.119 90.4924L40.1774 90.2646L41.9085 92.0543L40.3076 93.2843L42.1753 93.5836ZM50.8373 80.7957L51.371 79.8976L50.3688 79.9887L50.0238 79.1622L49.4837 80.0603L48.6051 79.8455L49.1323 80.6134L48.4815 81.2642L49.5423 81.1666L50.128 82.2599L50.3688 81.2447L51.1627 81.531L50.8373 80.7957ZM33.7997 104.497L34.3333 103.606L33.3376 103.69L32.9862 102.864L32.4526 103.768L31.574 103.547L32.1011 104.315L31.4503 104.966L32.5111 104.875L33.0968 105.968L33.3376 104.946L34.1381 105.239L33.7997 104.497ZM39.7739 88.3643L40.3076 87.4727L39.3054 87.5573L38.9604 86.7308L38.4268 87.6354L37.5417 87.4142L38.0689 88.1821L37.4181 88.8329L38.4789 88.7418L39.0646 89.8286L39.3054 88.8134L40.1058 89.0997L39.7739 88.3643ZM33.3051 90.7853L33.1229 90.1995L32.7714 90.6746L32.2703 90.4989L32.4526 91.0911L32.0165 91.3905L32.5567 91.4621V92.0087L32.9276 91.5011L33.637 91.6768L33.2856 91.1692L33.7281 90.9284L33.3051 90.7853ZM50.167 104.745L49.9848 104.159L49.6269 104.634L49.1323 104.465L49.3145 105.051L48.8719 105.356L49.4186 105.421V105.968L49.7896 105.467L50.4989 105.636L50.1475 105.129L50.59 104.894L50.167 104.745ZM55.2106 87.7331L55.6727 87.3231L55.0935 87.1994L55.0414 86.6723L54.5794 87.0823L54.1238 86.8089L54.2865 87.3296L53.7984 87.5769L54.4102 87.707L54.5468 88.4294L54.8657 87.8958L55.2627 88.2016L55.2106 87.7331ZM46.0996 98.7249L46.5551 98.3149L45.9759 98.1912L45.9239 97.6641L45.4683 98.0741L45.0063 97.8008L45.169 98.3214L44.6809 98.5687L45.2926 98.6988L45.4293 99.4212L45.7482 98.8876L46.1451 99.1935L46.0996 98.7249ZM27.3439 102.174L27.7994 101.764L27.2202 101.634L27.1747 101.107L26.7126 101.523L26.2831 101.243L26.4393 101.771L25.9512 102.011L26.5629 102.148L26.7061 102.864L27.0185 102.337L27.4154 102.643L27.3439 102.174Z" fill="white"/>
<path d="M45.8515 95.8929C47.4049 95.7498 48.9669 95.7237 50.5242 95.8149C51.2986 95.8669 52.0666 95.958 52.8345 96.0687C53.212 96.1207 53.5959 96.1598 53.9799 96.1988C54.3819 96.2476 54.7884 96.2476 55.1904 96.1988C55.1904 96.1988 55.2359 96.2444 55.1904 96.2574C54.8191 96.3408 54.4431 96.4016 54.0645 96.4396C53.6939 96.4624 53.3223 96.4624 52.9517 96.4396C52.1707 96.3875 51.3833 96.3029 50.6023 96.2509C49.0209 96.1337 47.4395 96.0231 45.8515 96.0231C45.806 96.0361 45.806 95.8995 45.8515 95.8929Z" fill="#263238"/>
<path d="M42.3253 97.9305C43.56 97.5709 44.8136 97.2798 46.0804 97.0585C46.7311 96.9544 47.3819 96.8828 47.9937 96.8307L48.9113 96.7656C49.2497 96.7656 49.5621 96.7656 49.9265 96.7656C49.9656 96.7656 49.9721 96.8177 49.9265 96.8242C49.6076 96.8567 49.2757 96.9413 48.9764 96.9869L48.0262 97.1366L46.1259 97.4359C44.859 97.6182 43.5922 97.8221 42.3253 98.0477C42.2732 98.0477 42.2602 97.9501 42.3253 97.9305Z" fill="#263238"/>
<path d="M39.9488 73.4156C40.105 74.0664 43.2028 78.264 46.1639 78.1208C47.127 78.0687 47.101 72.7973 47.101 72.7973L47.1856 72.4069L48.4091 66.9468L42.0053 62.8468L41.0812 62.3066C41.0812 62.3066 40.8469 63.823 40.5736 65.7103C40.5736 65.8014 40.5736 65.886 40.5736 65.9771C40.5736 66.0682 40.5345 66.1853 40.5215 66.2895C40.476 66.5693 40.4304 66.8557 40.3979 67.142C40.3653 67.4284 40.3393 67.578 40.3133 67.7928L40.2352 68.4826C40.0293 70.1187 39.9336 71.7667 39.9488 73.4156Z" fill="#EB9481"/>
<path d="M40.5996 65.7038C41.155 67.2349 42.0362 68.6272 43.1822 69.7846C44.3283 70.9419 45.712 71.8366 47.2377 72.4069L48.4091 66.9468L42.0053 62.8468L41.0812 62.3066C41.0812 62.3066 40.8469 63.8165 40.5996 65.7038Z" fill="#263238"/>
<path d="M56.1087 58.0365C58.0155 67.6682 52.4578 69.8939 50.3817 70.3039C48.501 70.6749 42.0321 71.6901 39.1426 62.3122C36.2531 52.9343 40.1318 49.0036 44.401 47.9298C48.6702 46.856 54.2084 48.4114 56.1087 58.0365Z" fill="#EB9481"/>
<path d="M53.2967 56.5665C53.082 56.6153 52.8647 56.6522 52.6459 56.6771C52.4176 56.7521 52.1713 56.7521 51.9431 56.6771C51.8771 56.6372 51.8261 56.5768 51.7978 56.505C51.7696 56.4333 51.7658 56.3543 51.7869 56.2801C51.8515 56.1397 51.9527 56.0191 52.0797 55.931C52.2067 55.8429 52.3551 55.7904 52.5092 55.779C52.8164 55.7073 53.1394 55.7537 53.4138 55.9092C53.4702 55.9501 53.514 56.0061 53.54 56.0707C53.5661 56.1353 53.5734 56.2059 53.5612 56.2745C53.549 56.3431 53.5177 56.4069 53.4709 56.4585C53.4241 56.5102 53.3638 56.5476 53.2967 56.5665Z" fill="#263238"/>
<path d="M46.4573 58.5388C46.6766 58.5053 46.8938 58.4597 47.1081 58.4022C47.3487 58.3883 47.5778 58.2944 47.7588 58.1353C47.8081 58.0758 47.835 58.001 47.835 57.9238C47.835 57.8466 47.8081 57.7718 47.7588 57.7123C47.6494 57.603 47.512 57.5257 47.3617 57.489C47.2114 57.4523 47.0539 57.4575 46.9063 57.5041C46.5929 57.5445 46.3067 57.7027 46.1058 57.9466C46.0608 58.0054 46.0343 58.0764 46.0299 58.1503C46.0256 58.2243 46.0434 58.2979 46.0812 58.3616C46.119 58.4253 46.1751 58.4762 46.2421 58.5078C46.3091 58.5394 46.3841 58.5502 46.4573 58.5388Z" fill="#263238"/>
<path d="M47.9018 59.7754C47.9018 59.7754 47.8563 59.7754 47.8628 59.8405C47.9799 60.4913 48.006 61.2722 47.4463 61.5781C47.4463 61.5781 47.4463 61.6236 47.4463 61.6171C48.1687 61.4024 48.1231 60.3741 47.9018 59.7754Z" fill="#263238"/>
<path d="M47.2117 59.1694C46.1379 59.2475 46.3721 61.3951 47.3678 61.317C48.3636 61.2389 48.1097 59.1043 47.2117 59.1694Z" fill="#263238"/>
<path d="M46.802 59.3318C46.6263 59.4685 46.4701 59.7028 46.2424 59.7548C46.0146 59.8069 45.7673 59.6052 45.5916 59.4099C45.6306 59.8199 45.8324 60.2234 46.2814 60.2364C46.7305 60.2494 46.9322 59.8524 46.9908 59.4294C46.9517 59.3774 46.8736 59.2732 46.802 59.3318Z" fill="#263238"/>
<path d="M51.9819 59.1504C51.9819 59.1504 52.034 59.1504 52.034 59.2025C52.086 59.8532 52.2487 60.6277 52.8735 60.7839V60.8229C52.1251 60.7969 51.9168 59.7882 51.9819 59.1504Z" fill="#263238"/>
<path d="M52.5036 58.3946C53.5644 58.2059 53.8638 60.3469 52.8811 60.5161C51.8984 60.6854 51.612 58.5573 52.5036 58.3946Z" fill="#263238"/>
<path d="M52.9657 58.4732C53.1545 58.5643 53.3497 58.7465 53.5515 58.727C53.7532 58.7075 53.9289 58.4537 54.0461 58.2129C54.0461 58.2129 54.046 58.2129 54.0851 58.2129C54.1502 58.6164 54.0851 59.0654 53.6946 59.1956C53.3042 59.3257 53.0438 59.0069 52.8811 58.6099C52.8551 58.5578 52.8942 58.4342 52.9657 58.4732Z" fill="#263238"/>
<path d="M49.1126 65.3857C49.2818 65.5354 49.4575 65.7372 49.6983 65.7437C49.9469 65.7211 50.1883 65.648 50.4077 65.5289C50.4077 65.5289 50.4467 65.5289 50.4077 65.5289C50.3212 65.6658 50.1994 65.7768 50.055 65.8501C49.9107 65.9234 49.7492 65.9563 49.5877 65.9454C49.4633 65.9184 49.3485 65.8582 49.2557 65.7711C49.1628 65.684 49.0954 65.5733 49.0605 65.4508C49.0605 65.4508 49.0605 65.3662 49.1126 65.3857Z" fill="#263238"/>
<path d="M51.5916 62.6511C51.5916 62.6511 51.8519 63.6208 51.9105 64.0893C51.9105 64.1349 51.8063 64.1674 51.6437 64.2C51.2505 64.3216 50.8315 64.3331 50.4322 64.2333C50.0329 64.1335 49.6686 63.9261 49.3789 63.6338C49.3789 63.5947 49.3789 63.5362 49.444 63.5622C50.0903 63.8974 50.8279 64.0138 51.546 63.8941C51.546 63.7639 51.0449 62.2411 51.1165 62.2281C51.4843 62.2161 51.8519 62.2533 52.2098 62.3387C51.7348 60.2952 50.9083 58.3429 50.4852 56.2994C50.4852 56.2278 50.5764 56.1888 50.6024 56.2538C51.5279 58.3178 52.2431 60.4697 52.737 62.6771C52.7955 62.9374 51.7933 62.7032 51.5916 62.6511Z" fill="#263238"/>
<path d="M51.5789 64.0304C51.3664 64.4446 51.0502 64.7966 50.6613 65.0522C50.4453 65.1865 50.1928 65.2502 49.9389 65.2344C49.3922 65.1888 49.2881 64.7073 49.2881 64.2777C49.305 64.0569 49.3465 63.8386 49.4117 63.627C50.0718 63.9913 50.8319 64.1328 51.5789 64.0304Z" fill="#263238"/>
<path d="M50.6613 65.0532C50.4453 65.1876 50.1928 65.2513 49.9389 65.2354C49.3922 65.1899 49.2881 64.7083 49.2881 64.2788C49.571 64.2317 49.8615 64.2828 50.1113 64.4237C50.3611 64.5646 50.5552 64.7867 50.6613 65.0532Z" fill="#FF9ABB"/>
<path d="M40.2157 63.1591C42.0574 63.1591 41.9337 58.929 41.9337 58.929C41.9337 58.929 49.4569 56.5276 49.2226 50.1694C50.556 52.5823 52.7679 54.3886 55.3986 55.213C55.3986 55.213 54.1556 48.3797 48.5132 47.8135C48.5132 47.8135 41.4001 46.3102 38.3544 52.2194C35.3087 58.1285 38.9792 63.1787 40.2157 63.1591Z" fill="#263238"/>
<path d="M49.1836 49.7012C49.4082 50.6559 49.4281 51.6472 49.2422 52.6102C49.0732 53.5898 48.7008 54.5232 48.1489 55.35C48.0123 55.557 47.8623 55.7549 47.6998 55.9422L47.4721 56.2351C47.3875 56.3262 47.2964 56.4108 47.2052 56.4954C47.1141 56.58 46.8538 56.8403 46.6716 57.003L46.0729 57.4456C45.9753 57.5171 45.8776 57.5887 45.7735 57.6538L45.4546 57.836L44.8038 58.194C44.3613 58.3892 43.9057 58.5584 43.4502 58.7211C43.8667 58.4673 44.2962 58.259 44.6997 58.0052L45.2984 57.6017L45.5913 57.4C45.6889 57.3284 45.7735 57.2503 45.8646 57.1722L46.4048 56.7167C46.5805 56.554 46.7367 56.3783 46.8994 56.2091L47.1467 55.9553L47.3614 55.6754C47.5096 55.4953 47.6465 55.3062 47.7714 55.1092C48.2994 54.3143 48.6848 53.4334 48.9103 52.5061C49.0268 52.0466 49.1074 51.5788 49.1511 51.1069C49.1993 50.6399 49.2102 50.1699 49.1836 49.7012Z" fill="#263238"/>
<path d="M37.3462 57.373L36.8906 58.2972L39.9363 60.5229L40.9125 58.4468L37.3462 57.373ZM39.7216 59.5727L37.6195 58.2061L37.7171 57.9913L40.0795 58.8438L39.7216 59.5727Z" fill="#2AD352"/>
<path d="M37.4759 55.7401L37.4043 56.7683L41.0682 57.686L41.1919 55.3887L37.4759 55.7401ZM40.5086 56.879L38.0421 56.4104V56.1696L40.5541 56.072L40.5086 56.879Z" fill="#2AD352"/>
<path d="M41.6288 62.3323C41.6288 62.3323 39.1623 59.5144 37.8672 60.4255C36.5722 61.3366 38.6482 65.5798 40.3337 66.0028C40.5464 66.0736 40.7712 66.1004 40.9945 66.0817C41.2178 66.0629 41.435 65.9989 41.6328 65.8936C41.8306 65.7883 42.005 65.6439 42.1453 65.4691C42.2855 65.2943 42.3888 65.0928 42.4488 64.8769L41.6288 62.3323Z" fill="#EB9481"/>
<path d="M38.4912 61.6292C38.4912 61.6292 38.4912 61.6617 38.4912 61.6682C39.0406 61.8717 39.5411 62.1883 39.9604 62.5975C40.3797 63.0067 40.7083 63.4993 40.9252 64.0436C40.8469 63.937 40.7464 63.8487 40.6306 63.7849C40.5149 63.721 40.3866 63.6831 40.2547 63.6738C40.1228 63.6646 39.9904 63.6841 39.8669 63.7311C39.7433 63.7781 39.6314 63.8514 39.539 63.946C39.539 63.946 39.539 64.0111 39.578 64.0046C39.77 63.9185 39.9839 63.8942 40.1902 63.935C40.3966 63.9758 40.5852 64.0797 40.7299 64.2323C40.9761 64.4906 41.1942 64.7742 41.3807 65.0783C41.4393 65.176 41.6215 65.0783 41.5694 64.9872C41.4132 63.4969 40.0661 61.6031 38.4912 61.6292Z" fill="#263238"/>
<path d="M34.2554 75.9935C25.9774 90.2718 13.6059 123.045 11.3672 127.731C9.85085 130.914 26.485 139.302 27.1944 136.985C28.0924 134.024 39.6374 95.849 40.3924 78.8179C40.7438 70.9304 36.9041 71.425 34.2554 75.9935Z" fill="#EB9481"/>
<path d="M20.4258 144.273C21.3043 143.505 21.7273 143.961 21.3304 145.991C20.9334 148.022 17.7185 155.753 20.5039 156.632C23.2892 157.51 27.6625 146.584 28.066 143.154C28.4695 139.724 27.8448 134.043 27.8448 134.043C26.5627 136.008 23.0289 140.46 20.4258 144.273Z" fill="#EB9481"/>
<path d="M25.3062 156.209L4.48095 152.461C3.83016 152.409 3.43318 151.979 3.54382 151.498L5.45063 142.985C5.55496 142.734 5.74028 142.524 5.97723 142.39C6.21418 142.255 6.4892 142.204 6.75871 142.243L27.5839 145.972C28.2347 146.031 28.6317 146.461 28.5211 146.936L26.6143 155.448C26.5162 155.705 26.3329 155.921 26.0948 156.06C25.8568 156.199 25.5784 156.251 25.3062 156.209Z" fill="#A6A6A6"/>
<path d="M25.5467 155.206L4.68238 151.458C4.03159 151.399 3.64111 150.97 3.74524 150.495L5.65856 141.982C5.75536 141.725 5.93749 141.51 6.17444 141.371C6.41139 141.232 6.68878 141.179 6.96014 141.221L27.8244 144.969C28.4752 145.021 28.8657 145.451 28.7616 145.926L26.8678 154.445C26.7683 154.704 26.5827 154.921 26.3422 155.06C26.1017 155.198 25.8208 155.25 25.5467 155.206Z" fill="#C7C7C7"/>
<path d="M25.1569 152.506C24.6753 152.324 24.2198 152.506 24.1417 152.91C24.1312 153.141 24.1977 153.369 24.3308 153.559C24.4638 153.749 24.6559 153.889 24.8771 153.958C25.3587 154.14 25.8142 153.958 25.8923 153.561C25.9043 153.328 25.8384 153.098 25.7053 152.907C25.5721 152.717 25.3792 152.575 25.1569 152.506Z" fill="#263238"/>
<path d="M12.4794 126.234C8.22973 131.961 4.46817 138.703 4.37706 146.155C4.34949 146.983 4.59916 147.796 5.08642 148.465C4.9888 151.797 6.53117 152.852 6.53117 152.852C7.39021 155.982 9.13433 156.841 9.13433 156.841C9.13433 156.841 9.38162 159.529 11.2754 159.49C13.1692 159.451 14.2105 155.045 15.8309 151.83C19.625 144.45 26.5234 136.068 27.825 134.05L12.4794 126.234Z" fill="#EB9481"/>
<path d="M13.8328 142.346C12.7008 144.494 11.7159 146.716 10.8847 148.997C10.1281 151.555 9.56253 154.165 9.19266 156.807C9.19266 156.824 9.1858 156.84 9.1736 156.853C9.16139 156.865 9.14484 156.872 9.12758 156.872C9.11032 156.872 9.09377 156.865 9.08156 156.853C9.06936 156.84 9.0625 156.824 9.0625 156.807C9.26966 151.646 10.8856 146.641 13.7352 142.333C13.8002 142.196 13.9174 142.242 13.8328 142.346Z" fill="#263238"/>
<path d="M9.71404 139.413C8.78992 141.606 7.18898 145.465 6.60978 152.858C6.60978 152.858 6.57073 152.858 6.56422 152.858C6.31103 148.166 7.36541 143.495 9.60991 139.367C9.6815 139.237 9.77912 139.263 9.71404 139.413Z" fill="#263238"/>
<path d="M7.47497 137.876C6.04324 141.664 5.61372 144.235 5.1061 148.445H5.06055C5.13864 143.597 5.71134 141.84 7.35132 137.805C7.40989 137.688 7.52703 137.727 7.47497 137.876Z" fill="#263238"/>
</svg>
