<svg width="20" height="20" viewBox="0 0 20 20" fill="none" xmlns="http://www.w3.org/2000/svg">
<path d="M9.29621 4.79362C11.552 4.74152 13.7294 3.95625 15.4992 2.55659C15.6179 2.46757 15.759 2.41336 15.9068 2.40003C16.0545 2.38671 16.2031 2.4148 16.3358 2.48115C16.4685 2.54751 16.5801 2.6495 16.6581 2.77572C16.7361 2.90193 16.7775 3.04737 16.7775 3.19574V12.2589M11.4869 11.4703C10.6036 11.2576 9.69629 11.1617 8.78809 11.1851H3.99447C3.57068 11.1851 3.16426 11.0168 2.8646 10.7171C2.56494 10.4174 2.39659 10.011 2.39659 9.58724V6.39149C2.39659 5.96771 2.56494 5.56128 2.8646 5.26162C3.16426 4.96196 3.57068 4.79362 3.99447 4.79362H4.7934M1.59766 1.59787L17.5764 17.5766M4.7934 11.1851C4.7934 13.2595 5.46622 15.2779 6.71085 16.9375C6.96512 17.2765 7.34365 17.5006 7.76318 17.5605C8.1827 17.6205 8.60885 17.5113 8.94787 17.257C9.2869 17.0028 9.51103 16.6242 9.57096 16.2047C9.6309 15.7852 9.52172 15.359 9.26745 15.02C8.43769 13.9137 7.98915 12.568 7.98915 11.1851M6.39128 6.39149V11.1851" stroke="#2AD352" stroke-linecap="round" stroke-linejoin="round"/>
</svg>
