<svg width="20" height="20" viewBox="0 0 20 20" fill="none" xmlns="http://www.w3.org/2000/svg">
<path d="M16.3784 3.19574C16.3784 3.12159 16.3577 3.04895 16.3187 2.98586C16.2797 2.92276 16.224 2.87158 16.1576 2.8384C16.0913 2.80523 16.0169 2.79117 15.9431 2.79783C15.8692 2.8045 15.7988 2.83176 15.7394 2.87624L15.739 2.87585C13.8227 4.3888 11.4519 5.20594 9.01478 5.19659L8.77838 5.19308H6.79118V10.7856H8.77838C11.2981 10.7208 13.7608 11.5408 15.739 13.1025C15.7984 13.147 15.8692 13.1742 15.9431 13.1809C16.0169 13.1876 16.0913 13.1735 16.1576 13.1403C16.224 13.1071 16.2797 13.056 16.3187 12.9929C16.3577 12.9298 16.3784 12.8571 16.3784 12.783V3.19574ZM5.20228 11.5846C5.28261 13.4311 5.91804 15.2141 7.0307 16.6977C7.22141 16.952 7.50563 17.1201 7.82028 17.165C8.13482 17.2099 8.45434 17.1282 8.70855 16.9376C8.96282 16.7469 9.13095 16.4627 9.1759 16.148C9.22079 15.8335 9.13907 15.514 8.94846 15.2598C8.14699 14.1911 7.68161 12.9122 7.60338 11.5846H5.20228ZM2.7965 9.58724C2.7965 9.90507 2.92285 10.2098 3.14759 10.4345C3.37234 10.6593 3.67706 10.7856 3.9949 10.7856H5.99224V5.19308H3.9949C3.67706 5.19308 3.37234 5.31943 3.14759 5.54418C2.92285 5.76892 2.7965 6.07365 2.7965 6.39149V9.58724ZM17.1774 12.783C17.1774 13.0055 17.1153 13.2237 16.9983 13.413C16.8813 13.6023 16.714 13.7555 16.515 13.855C16.3159 13.9545 16.0929 13.9967 15.8713 13.9767C15.6497 13.9567 15.438 13.8753 15.26 13.7419C15.2573 13.7398 15.2544 13.7377 15.2518 13.7356C13.4188 12.2856 11.1351 11.5244 8.79866 11.5846H8.40349C8.48063 12.7392 8.88973 13.85 9.58746 14.7803C9.90528 15.2041 10.0419 15.7368 9.96703 16.2612C9.89212 16.7856 9.61177 17.2588 9.18799 17.5766C8.76422 17.8944 8.23153 18.0311 7.70715 17.9562C7.18274 17.8813 6.70955 17.6009 6.39171 17.1771C5.17526 15.5552 4.48338 13.6041 4.40256 11.5846H3.9949C3.46517 11.5846 2.95729 11.374 2.58272 10.9994C2.20814 10.6248 1.99756 10.117 1.99756 9.58724V6.39149C1.99756 5.86176 2.20814 5.35388 2.58272 4.97931C2.95729 4.60473 3.46517 4.39415 3.9949 4.39415H8.79866C11.1351 4.45433 13.4188 3.6931 15.2518 2.2431L15.26 2.23686C15.438 2.10339 15.6497 2.022 15.8713 2.00202C16.0929 1.98203 16.3159 2.0242 16.515 2.12373C16.714 2.22326 16.8813 2.37641 16.9983 2.56572C17.1153 2.75504 17.1774 2.97318 17.1774 3.19574V12.783Z" fill="#2C2C2C"/>
</svg>
