<svg width="16" height="16" viewBox="0 0 16 16" fill="none" xmlns="http://www.w3.org/2000/svg">
<g clip-path="url(#clip0_8152_200)">
<path d="M9.21481 11.0371C9.35239 11.1003 9.5074 11.1148 9.65429 11.0781C9.80118 11.0414 9.93119 10.9558 10.0229 10.8353L10.2594 10.5255C10.3835 10.36 10.5444 10.2257 10.7294 10.1332C10.9145 10.0407 11.1185 9.99255 11.3253 9.99255H13.3239C13.6773 9.99255 14.0162 10.1329 14.266 10.3828C14.5159 10.6327 14.6563 10.9716 14.6563 11.3249V13.3235C14.6563 13.6769 14.5159 14.0158 14.266 14.2657C14.0162 14.5155 13.6773 14.6559 13.3239 14.6559C10.1435 14.6559 7.09347 13.3925 4.84462 11.1437C2.59578 8.89484 1.3324 5.84476 1.3324 2.66442C1.3324 2.31105 1.47277 1.97215 1.72264 1.72228C1.97252 1.47241 2.31141 1.33203 2.66479 1.33203H4.66337C5.01674 1.33203 5.35564 1.47241 5.60551 1.72228C5.85538 1.97215 5.99576 2.31105 5.99576 2.66442V4.663C5.99576 4.86985 5.9476 5.07385 5.85509 5.25886C5.76259 5.44387 5.62828 5.6048 5.4628 5.72891L5.15102 5.96275C5.02872 6.05613 4.94252 6.18898 4.90706 6.33871C4.87159 6.48845 4.88906 6.64585 4.95649 6.78416C5.86697 8.63343 7.3644 10.129 9.21481 11.0371Z" stroke="#A1A1AA" stroke-width="1.33239" stroke-linecap="round" stroke-linejoin="round"/>
</g>
<defs>
<clipPath id="clip0_8152_200">
<rect width="15.9887" height="15.9887" fill="white"/>
</clipPath>
</defs>
</svg>
