<svg width="24" height="24" viewBox="0 0 24 24" fill="none" xmlns="http://www.w3.org/2000/svg">
<path d="M13.58 5.19282L13.0316 6.63162C13.0074 6.69455 12.9645 6.7486 12.9088 6.78654C12.853 6.82449 12.787 6.84455 12.7196 6.84402H11.2808C11.2134 6.84455 11.1474 6.82449 11.0916 6.78654C11.0359 6.7486 10.9931 6.69455 10.9688 6.63162L10.4204 5.19282C10.3994 5.13438 10.3948 5.07128 10.4072 5.01042L10.6132 3.96362C10.6277 3.888 10.6681 3.8198 10.7275 3.77074C10.7868 3.72168 10.8614 3.69484 10.9384 3.69482H13.0616C13.2208 3.69482 13.3572 3.80762 13.3868 3.96362L13.5928 5.01042C13.6052 5.07129 13.601 5.13438 13.58 5.19282Z" fill="#3B4651"/>
<path d="M11.9666 9.09278C11.7233 9.09329 11.4871 9.0109 11.297 8.85918C11.1706 8.75885 11.0685 8.63118 10.9985 8.48577C10.9284 8.34036 10.8922 8.18098 10.8926 8.01958C10.8926 7.93152 10.9276 7.84708 10.9898 7.78482C11.0521 7.72255 11.1365 7.68758 11.2246 7.68758C11.3126 7.68758 11.3971 7.72255 11.4593 7.78482C11.5216 7.84708 11.5566 7.93152 11.5566 8.01958C11.5568 8.08181 11.5712 8.14318 11.5986 8.19905C11.626 8.25492 11.6658 8.30384 11.7148 8.34212C11.7639 8.3804 11.821 8.40705 11.8819 8.42005C11.9427 8.43305 12.0058 8.43207 12.0662 8.41718C12.2114 8.38398 12.3302 8.26518 12.3634 8.12038C12.3846 8.03484 12.3778 7.94473 12.344 7.86335C12.3101 7.78197 12.251 7.71362 12.1754 7.66838C11.8362 7.46558 11.6338 7.11758 11.6338 6.73718V6.51238C11.6338 6.42427 11.6688 6.33977 11.7311 6.27747C11.7934 6.21518 11.8779 6.18018 11.966 6.18018C12.0541 6.18018 12.1386 6.21518 12.2009 6.27747C12.2632 6.33977 12.2982 6.42427 12.2982 6.51238V6.73718C12.2982 6.88118 12.3798 7.01638 12.5158 7.09758C12.7117 7.21506 12.8653 7.39178 12.9543 7.60222C13.0433 7.81265 13.0632 8.04593 13.011 8.26838C12.9565 8.50397 12.8235 8.71399 12.6337 8.86384C12.4439 9.0137 12.2088 9.09444 11.967 9.09278H11.9666Z" fill="#3B4651"/>
<path d="M6.19191 12.8252C6.12021 12.8253 6.0504 12.8022 5.99292 12.7593C5.93544 12.7165 5.89338 12.6562 5.87303 12.5874C5.85268 12.5187 5.85513 12.4452 5.88002 12.3779C5.90491 12.3107 5.9509 12.2533 6.01111 12.2144L11.7783 8.48199C11.8523 8.43414 11.9422 8.41763 12.0283 8.43608C12.1144 8.45454 12.1897 8.50644 12.2375 8.58039C12.2854 8.65433 12.3019 8.74425 12.2834 8.83037C12.265 8.91648 12.2131 8.99174 12.1391 9.03959L6.37191 12.772C6.31838 12.8069 6.25584 12.8252 6.19191 12.8252Z" fill="#3B4651"/>
<path d="M17.7268 12.8252C17.6629 12.8252 17.6004 12.8068 17.5468 12.772L11.7788 9.03996C11.7048 8.99211 11.6528 8.91683 11.6344 8.83068C11.6159 8.74452 11.6324 8.65455 11.6802 8.58055C11.728 8.50656 11.8033 8.4546 11.8895 8.43611C11.9756 8.41762 12.0656 8.43411 12.1396 8.48195L17.9076 12.214C17.968 12.2528 18.0142 12.3102 18.0392 12.3775C18.0642 12.4448 18.0667 12.5185 18.0463 12.5873C18.0259 12.6562 17.9838 12.7166 17.9262 12.7595C17.8686 12.8024 17.7986 12.8254 17.7268 12.8252Z" fill="#3B4651"/>
<path d="M6.5231 18.5809C6.5231 18.669 6.48808 18.7536 6.42574 18.8159C6.36341 18.8782 6.27886 18.9133 6.1907 18.9133C6.10254 18.9133 6.018 18.8782 5.95566 18.8159C5.89332 18.7536 5.8583 18.669 5.8583 18.5809V13.8857C5.8583 13.7976 5.8933 13.7131 5.9556 13.6508C6.0179 13.5885 6.1024 13.5535 6.1905 13.5535C6.27861 13.5535 6.3631 13.5885 6.4254 13.6508C6.4877 13.7131 6.5227 13.7976 6.5227 13.8857L6.5231 18.5809ZM8.1823 18.5809C8.1823 18.669 8.1473 18.7535 8.085 18.8158C8.0227 18.8781 7.93821 18.9131 7.8501 18.9131C7.762 18.9131 7.6775 18.8781 7.6152 18.8158C7.5529 18.7535 7.5179 18.669 7.5179 18.5809V13.8857C7.5179 13.7976 7.5529 13.7131 7.6152 13.6508C7.6775 13.5885 7.762 13.5535 7.8501 13.5535C7.93821 13.5535 8.0227 13.5885 8.085 13.6508C8.1473 13.7131 8.1823 13.7976 8.1823 13.8857V18.5809ZM9.8419 18.5809C9.8419 18.669 9.8069 18.7535 9.7446 18.8158C9.6823 18.8781 9.59781 18.9131 9.5097 18.9131C9.4216 18.9131 9.3371 18.8781 9.2748 18.8158C9.2125 18.7535 9.1775 18.669 9.1775 18.5809V13.8857C9.1775 13.7976 9.21248 13.7132 9.27474 13.6509C9.337 13.5886 9.42145 13.5537 9.5095 13.5537C9.59755 13.5537 9.682 13.5886 9.74426 13.6509C9.80652 13.7132 9.8415 13.7976 9.8415 13.8857L9.8419 18.5809ZM11.5019 18.5809C11.5019 18.669 11.4669 18.7536 11.4045 18.8159C11.3422 18.8782 11.2577 18.9133 11.1695 18.9133C11.0813 18.9133 10.9968 18.8782 10.9345 18.8159C10.8721 18.7536 10.8371 18.669 10.8371 18.5809V13.8857C10.8371 13.7976 10.8721 13.7131 10.9344 13.6508C10.9967 13.5885 11.0812 13.5535 11.1693 13.5535C11.2574 13.5535 11.3419 13.5885 11.4042 13.6508C11.4665 13.7131 11.5015 13.7976 11.5015 13.8857L11.5019 18.5809ZM13.1611 18.5809C13.1611 18.669 13.1261 18.7535 13.0638 18.8158C13.0015 18.8781 12.917 18.9131 12.8289 18.9131C12.7408 18.9131 12.6563 18.8781 12.594 18.8158C12.5317 18.7535 12.4967 18.669 12.4967 18.5809V13.8857C12.4967 13.8421 12.5053 13.7989 12.522 13.7586C12.5387 13.7183 12.5631 13.6817 12.5939 13.6509C12.6248 13.6201 12.6614 13.5956 12.7017 13.5789C12.7419 13.5623 12.7851 13.5537 12.8287 13.5537C12.8723 13.5537 12.9155 13.5623 12.9558 13.5789C12.996 13.5956 13.0326 13.6201 13.0635 13.6509C13.0943 13.6817 13.1187 13.7183 13.1354 13.7586C13.1521 13.7989 13.1607 13.8421 13.1607 13.8857L13.1611 18.5809ZM14.8203 18.5809C14.8203 18.6245 14.8117 18.6676 14.795 18.7079C14.7783 18.7482 14.7539 18.7848 14.7231 18.8156C14.6922 18.8465 14.6556 18.8709 14.6154 18.8876C14.5751 18.9043 14.5319 18.9129 14.4883 18.9129C14.4447 18.9129 14.4015 18.9043 14.3612 18.8876C14.321 18.8709 14.2844 18.8465 14.2535 18.8156C14.2227 18.7848 14.1983 18.7482 14.1816 18.7079C14.1649 18.6676 14.1563 18.6245 14.1563 18.5809V13.8857C14.1563 13.8421 14.1649 13.7989 14.1816 13.7586C14.1983 13.7183 14.2227 13.6817 14.2535 13.6509C14.2844 13.6201 14.321 13.5956 14.3612 13.5789C14.4015 13.5623 14.4447 13.5537 14.4883 13.5537C14.5319 13.5537 14.5751 13.5623 14.6154 13.5789C14.6556 13.5956 14.6922 13.6201 14.7231 13.6509C14.7539 13.6817 14.7783 13.7183 14.795 13.7586C14.8117 13.7989 14.8203 13.8421 14.8203 13.8857V18.5809ZM16.4803 18.5809C16.4803 18.669 16.4453 18.7535 16.383 18.8158C16.3207 18.8781 16.2362 18.9131 16.1481 18.9131C16.06 18.9131 15.9755 18.8781 15.9132 18.8158C15.8509 18.7535 15.8159 18.669 15.8159 18.5809V13.8857C15.8159 13.7976 15.8509 13.7132 15.9131 13.6509C15.9754 13.5886 16.0598 13.5537 16.1479 13.5537C16.236 13.5537 16.3204 13.5886 16.3827 13.6509C16.4449 13.7132 16.4799 13.7976 16.4799 13.8857L16.4803 18.5809ZM18.1395 18.5809C18.1395 18.6245 18.1309 18.6676 18.1142 18.7079C18.0975 18.7482 18.0731 18.7848 18.0423 18.8156C18.0114 18.8465 17.9748 18.8709 17.9346 18.8876C17.8943 18.9043 17.8511 18.9129 17.8075 18.9129C17.7639 18.9129 17.7207 18.9043 17.6805 18.8876C17.6402 18.8709 17.6036 18.8465 17.5727 18.8156C17.5419 18.7848 17.5175 18.7482 17.5008 18.7079C17.4841 18.6676 17.4755 18.6245 17.4755 18.5809V13.8857C17.4755 13.8421 17.4841 13.7989 17.5008 13.7586C17.5175 13.7183 17.5419 13.6817 17.5727 13.6509C17.6036 13.6201 17.6402 13.5956 17.6805 13.5789C17.7207 13.5623 17.7639 13.5537 17.8075 13.5537C17.8511 13.5537 17.8943 13.5623 17.9346 13.5789C17.9748 13.5956 18.0114 13.6201 18.0423 13.6509C18.0731 13.6817 18.0975 13.7183 18.1142 13.7586C18.1309 13.7989 18.1395 13.8421 18.1395 13.8857V18.5809ZM19.4791 12.1597H4.5195C4.43155 12.16 4.34728 12.1951 4.28509 12.2573C4.2229 12.3195 4.18782 12.4037 4.1875 12.4917V19.9733C4.1875 20.1561 4.3367 20.3053 4.5195 20.3053H19.4787C19.6615 20.3053 19.8107 20.1561 19.8107 19.9733V12.4917C19.8104 12.4037 19.7753 12.3195 19.7131 12.2573C19.6509 12.1951 19.5671 12.16 19.4791 12.1597Z" fill="#2B79C2"/>
</svg>
