<svg width="22" height="22" viewBox="0 0 22 22" fill="none" xmlns="http://www.w3.org/2000/svg">
<path d="M1.51352 0.16389C1.06627 0.299722 0.707909 0.636282 0.544306 1.07413C0.400248 1.45967 0.478407 1.82548 0.523897 2.01023C0.572874 2.20916 0.654506 2.44643 0.735896 2.683L6.72037 20.0877C6.80357 20.3298 6.88652 20.5712 6.97134 20.7608C7.04921 20.9349 7.21448 21.2775 7.57101 21.4939C7.97391 21.7383 8.46827 21.7792 8.90587 21.6043C9.29311 21.4495 9.51244 21.1388 9.61788 20.9798C9.73273 20.8067 9.85424 20.5822 9.97611 20.357L12.4317 15.8223C12.6294 15.4572 12.7282 15.2747 12.7512 15.0863C12.7714 14.9199 12.7496 14.7511 12.6876 14.5954C12.6174 14.4191 12.4752 14.2678 12.191 13.9651L7.23208 8.68493C6.854 8.28235 6.87386 7.6495 7.27644 7.27142C7.67902 6.89333 8.31187 6.91319 8.68995 7.31577L13.6359 12.5822C13.9195 12.8841 14.0612 13.035 14.2324 13.1161C14.3835 13.1877 14.5502 13.2203 14.7171 13.2108C14.9062 13.2001 15.0944 13.1136 15.4706 12.9405L20.1573 10.7855C20.3907 10.6783 20.6231 10.5714 20.8037 10.468C20.9693 10.3731 21.2945 10.1742 21.4743 9.79701C21.6773 9.37111 21.6681 8.87451 21.4494 8.45643C21.2558 8.0862 20.9234 7.89945 20.7544 7.8108C20.5701 7.71407 20.3338 7.61591 20.0967 7.51738L3.10726 0.455985C2.87624 0.359919 2.64453 0.263564 2.44906 0.202205C2.26752 0.145225 1.90733 0.0442853 1.51352 0.16389Z" fill="#407BFF"/>
</svg>
