<svg width="10" height="10" viewBox="0 0 10 10" fill="none" xmlns="http://www.w3.org/2000/svg">
<path d="M4.63552 0.788888C4.65378 0.751997 4.68198 0.720943 4.71695 0.699232C4.75193 0.67752 4.79227 0.666016 4.83343 0.666016C4.8746 0.666016 4.91494 0.67752 4.94991 0.699232C4.98488 0.720943 5.01309 0.751997 5.03135 0.788888L5.99385 2.73847C6.05726 2.86679 6.15085 2.97781 6.26661 3.06199C6.38236 3.14618 6.51682 3.20102 6.65843 3.2218L8.81093 3.5368C8.85172 3.54271 8.89004 3.55992 8.92155 3.58647C8.95307 3.61302 8.97653 3.64787 8.98927 3.68706C9.00202 3.72625 9.00354 3.76822 8.99368 3.80824C8.98381 3.84825 8.96294 3.8847 8.93343 3.91347L7.37677 5.42931C7.27411 5.52935 7.1973 5.65284 7.15295 5.78915C7.1086 5.92546 7.09804 6.07051 7.12218 6.21181L7.48968 8.35347C7.49688 8.39424 7.49248 8.43621 7.47697 8.47459C7.46147 8.51297 7.43549 8.54623 7.40199 8.57055C7.3685 8.59488 7.32884 8.6093 7.28754 8.61218C7.24625 8.61505 7.20497 8.60626 7.16843 8.5868L5.24427 7.57514C5.11748 7.50857 4.97642 7.47378 4.83322 7.47378C4.69002 7.47378 4.54897 7.50857 4.42218 7.57514L2.49843 8.5868C2.4619 8.60614 2.42068 8.61484 2.37945 8.61191C2.33823 8.60898 2.29865 8.59454 2.26522 8.57023C2.2318 8.54592 2.20586 8.51272 2.19037 8.4744C2.17488 8.43608 2.17046 8.39418 2.1776 8.35347L2.54468 6.21222C2.56893 6.07086 2.55843 5.92572 2.51407 5.78932C2.46972 5.65293 2.39285 5.52937 2.2901 5.42931L0.733432 3.91389C0.70368 3.88515 0.682596 3.84864 0.672583 3.8085C0.66257 3.76837 0.664031 3.72623 0.676798 3.68688C0.689566 3.64754 0.713127 3.61257 0.744797 3.58596C0.776468 3.55936 0.814975 3.54218 0.855932 3.53639L3.00802 3.2218C3.14979 3.20118 3.28443 3.14641 3.40034 3.06222C3.51626 2.97802 3.60998 2.86692 3.67343 2.73847L4.63552 0.788888Z" fill="#FDC700" stroke="#FDC700" stroke-width="1.33239" stroke-linecap="round" stroke-linejoin="round"/>
</svg>
