<svg width="24" height="24" viewBox="0 0 24 24" fill="none" xmlns="http://www.w3.org/2000/svg">
<path d="M14.6348 0.834473H15.7289V2.65204H14.6348V0.834473Z" fill="#A3A3CC"/>
<path fill-rule="evenodd" clip-rule="evenodd" d="M16.9949 3.40134L18.869 4.1057L19.8027 3.53837L22.0619 5.58538L21.4358 6.43128L22.2132 8.12934L23.3152 8.32622V11.221L22.2132 11.4179L21.4358 13.1159L22.0619 13.9618L19.8027 16.0088L18.869 15.4415L16.9949 16.1459L16.7776 17.1444H13.5826L13.3653 16.1459L11.4912 15.4415L10.5575 16.0088L8.29822 13.9618L8.92433 13.1159L8.14692 11.4179L7.04492 11.221V8.32622L8.14692 8.12934L8.92433 6.43128L8.29822 5.58538L10.5575 3.53837L11.4912 4.1057L13.3653 3.40134L13.5826 2.40283H16.7776L16.9949 3.40134Z" fill="#F89B00"/>
<path fill-rule="evenodd" clip-rule="evenodd" d="M16.9936 3.40134L19.0901 4.18925L19.9459 3.66928L22.0607 5.58538L21.4346 6.43128L22.212 8.12934L23.314 8.32622V11.221L22.212 11.4179L21.4346 13.1159L22.0607 13.9618L19.9459 15.8779L19.0901 15.358L16.9936 16.1459L16.7763 17.1443H13.9783L13.7456 16.0752L11.7076 15.3092L10.8972 15.8017L8.86658 13.9618L9.49269 13.1159L8.71528 11.4179L7.61328 11.221V8.32622L8.71528 8.12934L9.49269 6.43128L8.86658 5.58538L10.8972 3.74553L11.7076 4.23793L13.7456 3.47201L13.9783 2.40283H16.7763L16.9936 3.40134Z" fill="#F9AC00"/>
<path d="M15.1791 14.8166C18.253 14.8166 20.7449 12.5588 20.7449 9.77378C20.7449 6.9887 18.253 4.73096 15.1791 4.73096C12.1052 4.73096 9.61328 6.9887 9.61328 9.77378C9.61328 12.5588 12.1052 14.8166 15.1791 14.8166Z" fill="#D3D3F2"/>
<path fill-rule="evenodd" clip-rule="evenodd" d="M14.9965 14.8135C12.0072 14.7262 9.61328 12.5034 9.61328 9.77372C9.61328 7.04399 12.0072 4.82121 14.9965 4.73389C17.9859 4.82121 20.3797 7.04404 20.3797 9.77372C20.3797 12.5034 17.9858 14.7262 14.9965 14.8135Z" fill="#E9E9FF"/>
<path fill-rule="evenodd" clip-rule="evenodd" d="M17.3869 5.81572C17.4046 5.78796 17.428 5.76361 17.456 5.74407C17.484 5.72453 17.516 5.71017 17.5501 5.70182C17.5842 5.69347 17.6198 5.69129 17.6549 5.69541C17.6899 5.69952 17.7237 5.70985 17.7544 5.7258C17.785 5.74176 17.8119 5.76302 17.8334 5.78838C17.855 5.81375 17.8709 5.84271 17.8801 5.87362C17.8893 5.90453 17.8917 5.93679 17.8871 5.96854C17.8826 6.00029 17.8712 6.03093 17.8536 6.05869L17.6485 6.3806C17.6309 6.40836 17.6074 6.43271 17.5794 6.45225C17.5514 6.4718 17.5194 6.48615 17.4853 6.4945C17.4512 6.50285 17.4156 6.50503 17.3806 6.50092C17.3455 6.4968 17.3117 6.48647 17.2811 6.47052C17.2504 6.45456 17.2235 6.4333 17.202 6.40794C17.1804 6.38257 17.1646 6.35361 17.1553 6.3227C17.1461 6.29179 17.1437 6.25954 17.1483 6.22778C17.1528 6.19603 17.1642 6.1654 17.1818 6.13763L17.3869 5.81572ZM19.271 7.34389C19.3329 7.31142 19.4065 7.30255 19.4756 7.31923C19.5447 7.33592 19.6036 7.37679 19.6395 7.43285C19.6753 7.48892 19.6851 7.55559 19.6667 7.6182C19.6483 7.68081 19.6032 7.73422 19.5413 7.76669L19.186 7.95255C19.1241 7.98503 19.0505 7.9939 18.9814 7.97721C18.9123 7.96053 18.8534 7.91966 18.8175 7.86359C18.7817 7.80752 18.7719 7.74085 18.7903 7.67825C18.8087 7.61564 18.8538 7.56222 18.9157 7.52975L19.271 7.34389ZM20.0598 9.52074C20.1315 9.52074 20.2002 9.54654 20.2509 9.59246C20.3016 9.63838 20.3301 9.70067 20.3301 9.76561C20.3301 9.83056 20.3016 9.89284 20.2509 9.93876C20.2002 9.98469 20.1315 10.0105 20.0598 10.0105H19.6495C19.5779 10.0105 19.5091 9.98469 19.4584 9.93876C19.4078 9.89284 19.3793 9.83056 19.3793 9.76561C19.3793 9.70067 19.4078 9.63838 19.4584 9.59246C19.5091 9.54654 19.5779 9.52074 19.6495 9.52074H20.0598ZM19.5402 11.7646C19.5708 11.7805 19.5977 11.8018 19.6193 11.8272C19.6408 11.8525 19.6567 11.8815 19.6659 11.9124C19.6751 11.9433 19.6775 11.9756 19.673 12.0073C19.6684 12.0391 19.657 12.0697 19.6394 12.0975C19.6218 12.1252 19.5984 12.1496 19.5704 12.1691C19.5424 12.1887 19.5104 12.203 19.4763 12.2114C19.4422 12.2197 19.4066 12.2219 19.3715 12.2178C19.3365 12.2137 19.3027 12.2033 19.272 12.1874L18.9167 12.0015C18.8861 11.9856 18.8592 11.9643 18.8377 11.9389C18.8161 11.9136 18.8002 11.8846 18.791 11.8537C18.7818 11.8228 18.7794 11.7905 18.7839 11.7588C18.7885 11.727 18.7999 11.6964 18.8175 11.6686C18.8351 11.6409 18.8586 11.6165 18.8866 11.597C18.9146 11.5774 18.9465 11.5631 18.9806 11.5547C19.0148 11.5464 19.0504 11.5442 19.0854 11.5483C19.1204 11.5524 19.1543 11.5628 19.1849 11.5787L19.5402 11.7646ZM17.8535 13.4726C17.8891 13.5287 17.8986 13.5952 17.88 13.6576C17.8614 13.7201 17.8162 13.7732 17.7543 13.8055C17.6924 13.8377 17.6189 13.8463 17.55 13.8295C17.4811 13.8126 17.4225 13.7716 17.3869 13.7155L17.1818 13.3936C17.1641 13.3659 17.1527 13.3352 17.1482 13.3035C17.1437 13.2717 17.1461 13.2395 17.1553 13.2086C17.1645 13.1777 17.1803 13.1487 17.2019 13.1233C17.2235 13.098 17.2504 13.0767 17.281 13.0608C17.3116 13.0448 17.3454 13.0345 17.3805 13.0304C17.4155 13.0262 17.4511 13.0284 17.4853 13.0368C17.5194 13.0451 17.5513 13.0595 17.5793 13.079C17.6073 13.0986 17.6308 13.1229 17.6484 13.1507L17.8535 13.4726ZM15.4509 14.1863C15.4509 14.2513 15.4225 14.3136 15.3718 14.3595C15.3211 14.4054 15.2524 14.4312 15.1807 14.4312C15.109 14.4312 15.0402 14.4054 14.9896 14.3595C14.9389 14.3136 14.9104 14.2513 14.9104 14.1863V13.8146C14.9104 13.7497 14.9389 13.6874 14.9896 13.6415C15.0402 13.5955 15.109 13.5698 15.1807 13.5698C15.2524 13.5698 15.3211 13.5955 15.3718 13.6415C15.4225 13.6874 15.4509 13.7497 15.4509 13.8146V14.1863ZM12.9744 13.7155C12.9568 13.7433 12.9333 13.7677 12.9053 13.7872C12.8773 13.8067 12.8454 13.8211 12.8112 13.8295C12.7771 13.8378 12.7415 13.84 12.7065 13.8359C12.6714 13.8317 12.6376 13.8214 12.607 13.8055C12.5763 13.7895 12.5495 13.7683 12.5279 13.7429C12.5063 13.7175 12.4905 13.6886 12.4813 13.6576C12.4721 13.6267 12.4697 13.5945 12.4742 13.5627C12.4787 13.531 12.4901 13.5003 12.5077 13.4726L12.7129 13.1507C12.7484 13.0946 12.8071 13.0536 12.876 13.0368C12.9449 13.0199 13.0184 13.0285 13.0803 13.0608C13.1422 13.093 13.1874 13.1461 13.206 13.2086C13.2246 13.271 13.2151 13.3376 13.1795 13.3936L12.9744 13.7155ZM11.0893 12.1874C11.0586 12.2033 11.0248 12.2137 10.9898 12.2178C10.9547 12.2219 10.9191 12.2197 10.885 12.2114C10.8509 12.203 10.8189 12.1887 10.7909 12.1691C10.7629 12.1496 10.7395 12.1252 10.7218 12.0975C10.7042 12.0697 10.6928 12.0391 10.6883 12.0073C10.6838 11.9756 10.6862 11.9433 10.6954 11.9124C10.7046 11.8815 10.7204 11.8525 10.742 11.8272C10.7636 11.8018 10.7904 11.7805 10.8211 11.7646L11.1764 11.5787C11.207 11.5628 11.2408 11.5524 11.2759 11.5483C11.3109 11.5442 11.3465 11.5464 11.3806 11.5547C11.4148 11.5631 11.4467 11.5774 11.4747 11.597C11.5027 11.6165 11.5262 11.6409 11.5438 11.6686C11.5614 11.6964 11.5728 11.727 11.5773 11.7588C11.5819 11.7905 11.5795 11.8228 11.5703 11.8537C11.5611 11.8846 11.5452 11.9136 11.5236 11.9389C11.5021 11.9643 11.4752 11.9856 11.4446 12.0015L11.0893 12.1874ZM10.3015 10.0105C10.2298 10.0105 10.1611 9.98474 10.1104 9.93881C10.0597 9.89289 10.0313 9.83061 10.0312 9.76566C10.0313 9.70072 10.0597 9.63843 10.1104 9.59251C10.1611 9.54658 10.2298 9.52078 10.3015 9.52078H10.7118C10.7835 9.52078 10.8522 9.54658 10.9029 9.59251C10.9536 9.63843 10.9821 9.70072 10.9821 9.76566C10.9821 9.83061 10.9536 9.89289 10.9029 9.93881C10.8522 9.98474 10.7835 10.0105 10.7118 10.0105H10.3015ZM10.8201 7.76669C10.7582 7.73422 10.7131 7.68081 10.6947 7.6182C10.6762 7.55559 10.686 7.48892 10.7219 7.43285C10.7577 7.37679 10.8167 7.33592 10.8858 7.31923C10.9549 7.30255 11.0285 7.31142 11.0903 7.34389L11.4456 7.52975C11.5075 7.56222 11.5526 7.61564 11.571 7.67825C11.5895 7.74085 11.5797 7.80752 11.5438 7.86359C11.508 7.91966 11.449 7.96053 11.3799 7.97721C11.3108 7.9939 11.2372 7.98503 11.1754 7.95255L10.8201 7.76669ZM12.5077 6.05869C12.4901 6.03093 12.4787 6.00029 12.4742 5.96854C12.4697 5.93679 12.4721 5.90453 12.4813 5.87362C12.4905 5.84271 12.5063 5.81375 12.5279 5.78838C12.5495 5.76302 12.5763 5.74176 12.607 5.7258C12.6376 5.70985 12.6714 5.69952 12.7065 5.69541C12.7415 5.69129 12.7771 5.69347 12.8112 5.70182C12.8454 5.71017 12.8773 5.72453 12.9053 5.74407C12.9333 5.76361 12.9568 5.78796 12.9744 5.81572L13.1795 6.13763C13.1971 6.1654 13.2085 6.19603 13.2131 6.22778C13.2176 6.25954 13.2152 6.29179 13.206 6.3227C13.1968 6.35361 13.1809 6.38257 13.1594 6.40794C13.1378 6.4333 13.1109 6.45456 13.0803 6.47052C13.0496 6.48647 13.0158 6.4968 12.9808 6.50092C12.9457 6.50503 12.9101 6.50285 12.876 6.4945C12.8419 6.48615 12.8099 6.4718 12.782 6.45225C12.754 6.43271 12.7305 6.40836 12.7129 6.3806L12.5077 6.05869ZM14.9103 5.34497C14.9103 5.28003 14.9388 5.21774 14.9895 5.17182C15.0402 5.1259 15.1089 5.1001 15.1806 5.1001C15.2523 5.1001 15.321 5.1259 15.3717 5.17182C15.4224 5.21774 15.4509 5.28003 15.4509 5.34497V5.71669C15.4509 5.78164 15.4224 5.84392 15.3717 5.88985C15.321 5.93577 15.2523 5.96157 15.1806 5.96157C15.1089 5.96157 15.0402 5.93577 14.9895 5.88985C14.9388 5.84392 14.9103 5.78164 14.9103 5.71669V5.34497ZM15.4509 9.76561C15.4509 9.83056 15.4225 9.89284 15.3718 9.93876C15.3211 9.98469 15.2524 10.0105 15.1807 10.0105C15.109 10.0105 15.0402 9.98469 14.9896 9.93876C14.9389 9.89284 14.9104 9.83056 14.9104 9.76561V7.14819C14.9104 7.08324 14.9389 7.02096 14.9896 6.97503C15.0402 6.92911 15.109 6.90331 15.1807 6.90331C15.2524 6.90331 15.3211 6.92911 15.3718 6.97503C15.4225 7.02096 15.4509 7.08324 15.4509 7.14819V9.76561Z" fill="#A3A3CC"/>
<path fill-rule="evenodd" clip-rule="evenodd" d="M15.1807 10.2586C15.4802 10.2586 15.7246 10.0372 15.7246 9.76574C15.7246 9.49427 15.4802 9.27295 15.1807 9.27295C14.8811 9.27295 14.6367 9.49432 14.6367 9.76574C14.6367 10.0372 14.8811 10.2586 15.1807 10.2586Z" fill="#F9AC00"/>
<path d="M16.7952 0H13.5669C13.421 0 13.3027 0.107157 13.3027 0.239341V0.892375C13.3027 1.02456 13.421 1.13172 13.5669 1.13172H16.7952C16.9411 1.13172 17.0594 1.02456 17.0594 0.892375V0.239341C17.0594 0.107157 16.9411 0 16.7952 0Z" fill="#5D689E"/>
<path fill-rule="evenodd" clip-rule="evenodd" d="M15.6349 15.6493C15.5974 15.0504 15.0745 14.4704 13.9031 14.4424C12.038 14.3977 11.378 14.3462 9.50332 14.1384C8.30619 14.0057 7.31802 14.6789 6.4098 15.3979C4.87542 16.6126 3.97488 17.1339 2.22266 18.076L6.14661 22.1448C8.08197 20.3077 9.24662 20.1434 11.2063 20.1775C13.0481 20.2096 13.2687 20.3328 15.0644 19.6344L22.9999 16.2659C25.0073 15.4138 23.6358 13.6384 22.0085 14.295C20.0436 15.0873 16.7658 16.0044 15.5393 16.1851C15.6131 16.0303 15.6477 15.8527 15.635 15.6493H15.6349Z" fill="#FDD7AD"/>
<path fill-rule="evenodd" clip-rule="evenodd" d="M15.6345 15.6494C15.6047 15.1735 15.2684 14.7096 14.5437 14.525C14.755 14.7501 14.865 15.044 14.8812 15.3009C14.896 15.5323 14.8266 15.7092 14.6631 15.8568C13.8949 16.5507 11.4789 16.4189 10.3183 16.3552C10.1215 16.3443 9.95193 16.3354 9.8102 16.33C9.55804 16.3215 9.34593 16.4996 9.33593 16.7285C9.32652 16.957 9.52328 17.1499 9.77571 17.1582C9.90658 17.1629 10.0723 17.1718 10.2633 17.1823C12.1916 17.288 14.3315 17.3268 15.3091 16.4437C15.3973 16.3637 15.4743 16.2781 15.539 16.1853C15.6127 16.0305 15.6474 15.8529 15.6346 15.6495L15.6345 15.6494ZM5.16802 21.1759L5.72819 20.6718C7.53322 19.1469 9.13403 19.1901 10.8674 19.2211C12.3802 19.2455 13.063 19.4735 14.5804 18.8842L22.7953 15.4495C23.3827 15.2001 23.647 14.845 23.4843 14.5226C23.4312 14.4174 23.308 14.3 23.1399 14.2085C24.1121 14.4751 24.5008 15.6286 22.9995 16.2659L15.064 19.6344C13.2683 20.3328 13.0478 20.2096 11.2059 20.1775C9.2462 20.1433 8.08154 20.3077 6.14619 22.1448L5.16797 21.1758L5.16802 21.1759Z" fill="#E6B17C"/>
<path fill-rule="evenodd" clip-rule="evenodd" d="M0.180776 19.7555L4.05517 23.7729C4.32144 24.049 4.78874 24.0775 5.09349 23.8363L6.27523 22.9008C6.57998 22.6595 6.61144 22.2362 6.34517 21.96L2.47078 17.9426C2.20451 17.6664 1.73721 17.6379 1.43251 17.8792L0.250777 18.8147C-0.053927 19.056 -0.0854946 19.4794 0.180776 19.7555Z" fill="#2A92FA"/>
<path fill-rule="evenodd" clip-rule="evenodd" d="M3.23828 22.9257L4.05493 23.7726C4.3212 24.0487 4.7885 24.0772 5.09326 23.8359L6.27499 22.9004C6.57975 22.6592 6.61121 22.2358 6.34494 21.9596L5.39353 20.9731L3.23834 22.9258L3.23828 22.9257Z" fill="#0E82F5"/>
</svg>
