<svg width="36" height="36" viewBox="0 0 36 36" fill="none" xmlns="http://www.w3.org/2000/svg">
<g clip-path="url(#clip0_8152_195)">
<path d="M20.6728 18.6648L24.1523 20.9845C24.2025 21.0179 24.2608 21.0371 24.3209 21.0399C24.3811 21.0428 24.441 21.0293 24.4941 21.0009C24.5472 20.9724 24.5916 20.9301 24.6226 20.8784C24.6536 20.8268 24.6699 20.7676 24.67 20.7074V15.2473C24.67 15.1886 24.6545 15.1311 24.6252 15.0803C24.5958 15.0296 24.5536 14.9875 24.5028 14.9583C24.452 14.9291 24.3943 14.9139 24.3357 14.9141C24.2771 14.9143 24.2196 14.9299 24.169 14.9595L20.6728 16.9993" stroke="#A1A1AA" stroke-width="1.33239" stroke-linecap="round" stroke-linejoin="round"/>
<path d="M19.3404 14.002H12.6785C11.9426 14.002 11.3461 14.5985 11.3461 15.3343V20.6639C11.3461 21.3998 11.9426 21.9963 12.6785 21.9963H19.3404C20.0763 21.9963 20.6728 21.3998 20.6728 20.6639V15.3343C20.6728 14.5985 20.0763 14.002 19.3404 14.002Z" stroke="#A1A1AA" stroke-width="1.33239" stroke-linecap="round" stroke-linejoin="round"/>
</g>
<defs>
<clipPath id="clip0_8152_195">
<rect width="15.9887" height="15.9887" fill="white" transform="translate(10.0137 10.0039)"/>
</clipPath>
</defs>
</svg>
